SplineFontDB: 3.0
FontName: PaytoneOne
FullName: Paytone One
FamilyName: Paytone One
Weight: Book
Copyright: Copyright (c) 2011 by vernon adams. All rights reserved.
Version: 1.000
ItalicAngle: 0
UnderlinePosition: -104
UnderlineWidth: 102
Ascent: 1638
Descent: 410
sfntRevision: 0x00010000
LayerCount: 2
Layer: 0 1 "Back"  1
Layer: 1 1 "Fore"  0
XUID: [1021 759 1887733602 1204196]
FSType: 0
OS2Version: 2
OS2_WeightWidthSlopeOnly: 0
OS2_UseTypoMetrics: 1
CreationTime: 1304382703
ModificationTime: 1304443864
PfmFamily: 81
TTFWeight: 400
TTFWidth: 5
LineGap: 0
VLineGap: 0
Panose: 0 0 0 0 0 0 0 0 0 0
OS2TypoAscent: 642
OS2TypoAOffset: 1
OS2TypoDescent: -170
OS2TypoDOffset: 1
OS2TypoLinegap: 0
OS2WinAscent: -75
OS2WinAOffset: 1
OS2WinDescent: -301
OS2WinDOffset: 1
HheadAscent: -75
HheadAOffset: 1
HheadDescent: 301
HheadDOffset: 1
OS2SubXSize: 1434
OS2SubYSize: 1331
OS2SubXOff: 0
OS2SubYOff: 287
OS2SupXSize: 1434
OS2SupYSize: 1331
OS2SupXOff: 0
OS2SupYOff: 977
OS2StrikeYSize: 102
OS2StrikeYPos: 512
OS2Vendor: 'pyrs'
OS2CodePages: 00000001.00000000
OS2UnicodeRanges: 00000003.08000000.14000000.00000000
Lookup: 258 0 0 "'kern' Horizontal Kerning in Latin lookup 0"  {"'kern' Horizontal Kerning in Latin lookup 0 per glyph data 0"  "'kern' Horizontal Kerning in Latin lookup 0 per glyph data 1"  "'kern' Horizontal Kerning in Latin lookup 0 kerning class 2"  } ['kern' ('latn' <'dflt' > ) ]
MarkAttachClasses: 1
DEI: 91125
KernClass2: 42+ 33 "'kern' Horizontal Kerning in Latin lookup 0 kerning class 2" 
 73 A Agrave Aacute Acircumflex Atilde Adieresis Aring Amacron Abreve Aogonek
 47 C Ccedilla Cacute Ccircumflex Cdotaccent Ccaron
 19 D Eth Dcaron Dcroat
 84 E AE Egrave Eacute Ecircumflex Edieresis Emacron Ebreve Edotaccent Eogonek Ecaron OE
 44 G Gcircumflex Gbreve Gdotaccent Gcommaaccent
 139 H I M N Igrave Iacute Icircumflex Idieresis Ntilde Hcircumflex Hbar Itilde Imacron Ibreve Iogonek Idotaccent Nacute Ncommaaccent Ncaron Eng
 16 J IJ Jcircumflex
 14 K Kcommaaccent

StartChar: .notdef
Encoding: 65536 -1 0
Width: 748
Flags: W
LayerCount: 2
Fore
SplineSet
68 0 m 1,0,-1
 68 1365 l 1,1,-1
 612 1365 l 1,2,-1
 612 0 l 1,3,-1
 68 0 l 1,0,-1
136 68 m 1,4,-1
 544 68 l 1,5,-1
 544 1297 l 1,6,-1
 136 1297 l 1,7,-1
 136 68 l 1,4,-1
EndSplineSet
EndChar

StartChar: exclam
Encoding: 33 33 7
Width: 625
GlyphClass: 2
Flags: W
LayerCount: 2
Fore
SplineSet
94 1096 m 1,0,-1
 94 1414 l 1,1,-1
 526 1414 l 1,2,-1
 526 1096 l 1,3,-1
 446 516 l 1,4,-1
 176 516 l 1,5,-1
 94 1096 l 1,0,-1
86 176 m 0,6,7
 86 222 86 222 105 260 c 128,-1,8
 124 298 124 298 156.5 325 c 128,-1,9
 189 352 189 352 231 367 c 128,-1,10
 273 382 273 382 318 382 c 0,11,12
 365 382 365 382 406.5 366 c 128,-1,13
 448 350 448 350 479.5 322 c 128,-1,14
 511 294 511 294 529.5 256.5 c 128,-1,15
 548 219 548 219 548 176 c 0,16,17
 548 131 548 131 528.5 92.5 c 128,-1,18
 509 54 509 54 477 26.5 c 128,-1,19
 445 -1 445 -1 403.5 -16.5 c 128,-1,20
 362 -32 362 -32 318 -32 c 0,21,22
 270 -32 270 -32 227.5 -16 c 128,-1,23
 185 0 185 0 153.5 28.5 c 128,-1,24
 122 57 122 57 104 94.5 c 128,-1,25
 86 132 86 132 86 176 c 0,6,7
EndSplineSet
EndChar

StartChar: quotedbl
Encoding: 34 34 8
Width: 792
GlyphClass: 2
Flags: W
LayerCount: 2
Fore
SplineSet
446 1534 m 1,0,-1
 742 1534 l 1,1,-1
 684 1026 l 1,2,-1
 488 1026 l 1,3,-1
 446 1534 l 1,0,-1
60 1534 m 1,4,-1
 354 1534 l 1,5,-1
 296 1026 l 1,6,-1
 100 1026 l 1,7,-1
 60 1534 l 1,4,-1
EndSplineSet
EndChar

StartChar: numbersign
Encoding: 35 35 9
Width: 1068
GlyphClass: 2
Flags: W
LayerCount: 2
Fore
SplineSet
212 502 m 1,0,-1
 56 502 l 1,1,-1
 72 624 l 1,2,-1
 240 624 l 1,3,-1
 278 776 l 1,4,-1
 94 776 l 1,5,-1
 110 902 l 1,6,-1
 308 902 l 1,7,-1
 426 1376 l 1,8,-1
 608 1376 l 1,9,-1
 490 902 l 1,10,-1
 684 902 l 1,11,-1
 800 1376 l 1,12,-1
 982 1376 l 1,13,-1
 866 902 l 1,14,-1
 1012 902 l 1,15,-1
 996 776 l 1,16,-1
 832 776 l 1,17,-1
 796 624 l 1,18,-1
 974 624 l 1,19,-1
 958 502 l 1,20,-1
 764 502 l 1,21,-1
 642 0 l 1,22,-1
 464 0 l 1,23,-1
 586 502 l 1,24,-1
 390 502 l 1,25,-1
 268 0 l 1,26,-1
 90 0 l 1,27,-1
 212 502 l 1,0,-1
616 624 m 1,28,-1
 652 776 l 1,29,-1
 458 776 l 1,30,-1
 420 624 l 1,31,-1
 616 624 l 1,28,-1
EndSplineSet
EndChar

StartChar: dollar
Encoding: 36 36 10
Width: 1159
GlyphClass: 2
Flags: W
LayerCount: 2
Fore
SplineSet
64 976 m 1,0,1
 64 1074 64 1074 92.5 1148.5 c 128,-1,2
 121 1223 121 1223 173.5 1276 c 128,-1,3
 226 1329 226 1329 301 1360.5 c 128,-1,4
 376 1392 376 1392 470 1404 c 1,5,-1
 470 1576 l 1,6,-1
 676 1576 l 1,7,-1
 676 1410 l 1,8,9
 860 1394 860 1394 1028 1290 c 1,10,-1
 924 1056 l 1,11,-1
 812 1092 l 2,12,13
 777 1103 777 1103 743 1111 c 128,-1,14
 709 1119 709 1119 676 1124 c 1,15,-1
 676 836 l 1,16,17
 778 801 778 801 858.5 758.5 c 128,-1,18
 939 716 939 716 994.5 660.5 c 128,-1,19
 1050 605 1050 605 1079 534.5 c 128,-1,20
 1108 464 1108 464 1108 374 c 0,21,22
 1108 303 1108 303 1077 235 c 128,-1,23
 1046 167 1046 167 989.5 112 c 128,-1,24
 933 57 933 57 853.5 21.5 c 128,-1,25
 774 -14 774 -14 676 -20 c 1,26,-1
 676 -186 l 1,27,-1
 470 -186 l 1,28,-1
 470 -30 l 1,29,30
 232 -8 232 -8 84 88 c 1,31,-1
 186 334 l 1,32,33
 274 305 274 305 345 288.5 c 128,-1,34
 416 272 416 272 470 270 c 1,35,-1
 470 540 l 1,36,37
 384 561 384 561 310.5 593 c 128,-1,38
 237 625 237 625 183 676 c 128,-1,39
 129 727 129 727 97.5 800 c 128,-1,40
 66 873 66 873 64 976 c 1,0,1
470 1102 m 1,41,42
 432 1083 432 1083 411 1060 c 128,-1,43
 390 1037 390 1037 390 998 c 0,44,45
 390 956 390 956 409 933.5 c 128,-1,46
 428 911 428 911 470 894 c 1,47,-1
 470 1102 l 1,41,42
676 290 m 1,48,49
 718 306 718 306 743 325.5 c 128,-1,50
 768 345 768 345 768 386 c 0,51,52
 768 417 768 417 740.5 440.5 c 128,-1,53
 713 464 713 464 676 474 c 1,54,-1
 676 290 l 1,48,49
EndSplineSet
EndChar

StartChar: percent
Encoding: 37 37 11
Width: 1818
GlyphClass: 2
Flags: W
LayerCount: 2
Fore
SplineSet
998 1376 m 1,0,-1
 1140 1376 l 1,1,-1
 800 0 l 1,2,-1
 662 0 l 1,3,-1
 998 1376 l 1,0,-1
1396 -32 m 0,4,5
 1309 -32 1309 -32 1240 -1.5 c 128,-1,6
 1171 29 1171 29 1123 83 c 128,-1,7
 1075 137 1075 137 1049.5 210 c 128,-1,8
 1024 283 1024 283 1024 368 c 0,9,10
 1024 455 1024 455 1051.5 529 c 128,-1,11
 1079 603 1079 603 1128.5 656.5 c 128,-1,12
 1178 710 1178 710 1246.5 740 c 128,-1,13
 1315 770 1315 770 1396 770 c 0,14,15
 1483 770 1483 770 1552 737 c 128,-1,16
 1621 704 1621 704 1669 648.5 c 128,-1,17
 1717 593 1717 593 1742.5 520 c 128,-1,18
 1768 447 1768 447 1768 368 c 0,19,20
 1768 281 1768 281 1741 207.5 c 128,-1,21
 1714 134 1714 134 1664.5 81 c 128,-1,22
 1615 28 1615 28 1546.5 -2 c 128,-1,23
 1478 -32 1478 -32 1396 -32 c 0,4,5
1396 172 m 0,24,25
 1428 172 1428 172 1450.5 190.5 c 128,-1,26
 1473 209 1473 209 1487 237.5 c 128,-1,27
 1501 266 1501 266 1507.5 301 c 128,-1,28
 1514 336 1514 336 1514 368 c 0,29,30
 1514 406 1514 406 1506 441 c 128,-1,31
 1498 476 1498 476 1483 503 c 128,-1,32
 1468 530 1468 530 1446 546 c 128,-1,33
 1424 562 1424 562 1396 562 c 0,34,35
 1365 562 1365 562 1343 545.5 c 128,-1,36
 1321 529 1321 529 1306.5 502 c 128,-1,37
 1292 475 1292 475 1285 440 c 128,-1,38
 1278 405 1278 405 1278 368 c 0,39,40
 1278 329 1278 329 1285.5 293.5 c 128,-1,41
 1293 258 1293 258 1308 231 c 128,-1,42
 1323 204 1323 204 1345 188 c 128,-1,43
 1367 172 1367 172 1396 172 c 0,24,25
420 614 m 0,44,45
 330 614 330 614 261 646.5 c 128,-1,46
 192 679 192 679 145 734 c 128,-1,47
 98 789 98 789 74 861.5 c 128,-1,48
 50 934 50 934 50 1014 c 0,49,50
 50 1102 50 1102 77.5 1175.5 c 128,-1,51
 105 1249 105 1249 154.5 1302 c 128,-1,52
 204 1355 204 1355 273 1384.5 c 128,-1,53
 342 1414 342 1414 425 1414 c 0,54,55
 517 1414 517 1414 586 1379 c 128,-1,56
 655 1344 655 1344 701.5 1287 c 128,-1,57
 748 1230 748 1230 771 1158.5 c 128,-1,58
 794 1087 794 1087 794 1014 c 0,59,60
 794 926 794 926 766.5 852.5 c 128,-1,61
 739 779 739 779 689.5 726 c 128,-1,62
 640 673 640 673 571.5 643.5 c 128,-1,63
 503 614 503 614 420 614 c 0,44,45
420 816 m 0,64,65
 453 816 453 816 475.5 834.5 c 128,-1,66
 498 853 498 853 512.5 882 c 128,-1,67
 527 911 527 911 533.5 946 c 128,-1,68
 540 981 540 981 540 1014 c 0,69,70
 540 1053 540 1053 532 1088 c 128,-1,71
 524 1123 524 1123 508.5 1149.5 c 128,-1,72
 493 1176 493 1176 470.5 1192 c 128,-1,73
 448 1208 448 1208 420 1208 c 0,74,75
 388 1208 388 1208 365.5 1190.5 c 128,-1,76
 343 1173 343 1173 329.5 1145 c 128,-1,77
 316 1117 316 1117 310 1082.5 c 128,-1,78
 304 1048 304 1048 304 1014 c 0,79,80
 304 975 304 975 311.5 939.5 c 128,-1,81
 319 904 319 904 334 876.5 c 128,-1,82
 349 849 349 849 370.5 832.5 c 128,-1,83
 392 816 392 816 420 816 c 0,64,65
EndSplineSet
EndChar

StartChar: ampersand
Encoding: 38 38 12
Width: 1375
GlyphClass: 2
Flags: W
LayerCount: 2
Fore
SplineSet
1305 504 m 1,0,1
 1232 363 1232 363 1133 278 c 1,2,-1
 1375 0 l 1,3,-1
 963 0 l 1,4,-1
 874 103 l 1,5,6
 800 43 800 43 710 5.5 c 128,-1,7
 620 -32 620 -32 525 -32 c 0,8,9
 419 -32 419 -32 333 -3 c 128,-1,10
 247 26 247 26 185.5 80 c 128,-1,11
 124 134 124 134 90.5 211 c 128,-1,12
 57 288 57 288 57 384 c 0,13,14
 57 462 57 462 78.5 520 c 128,-1,15
 100 578 100 578 138.5 622 c 128,-1,16
 177 666 177 666 229 699 c 128,-1,17
 281 732 281 732 341 760 c 1,18,19
 199 917 199 917 199 1056 c 0,20,21
 199 1123 199 1123 231.5 1187 c 128,-1,22
 264 1251 264 1251 324.5 1301.5 c 128,-1,23
 385 1352 385 1352 471.5 1383 c 128,-1,24
 558 1414 558 1414 667 1414 c 0,25,26
 759 1414 759 1414 836 1389 c 128,-1,27
 913 1364 913 1364 969 1317.5 c 128,-1,28
 1025 1271 1025 1271 1056 1206 c 128,-1,29
 1087 1141 1087 1141 1087 1060 c 0,30,31
 1087 1006 1087 1006 1070 952.5 c 128,-1,32
 1053 899 1053 899 1019.5 851 c 128,-1,33
 986 803 986 803 936 762 c 128,-1,34
 886 721 886 721 819 692 c 1,35,36
 829 680 829 680 847.5 657 c 128,-1,37
 866 634 866 634 887 608.5 c 128,-1,38
 908 583 908 583 927 559.5 c 128,-1,39
 946 536 946 536 957 524 c 1,40,-1
 1121 700 l 1,41,-1
 1305 504 l 1,0,1
421 398 m 0,42,43
 421 341 421 341 453.5 305.5 c 128,-1,44
 486 270 486 270 543 270 c 0,45,46
 623 270 623 270 667 314 c 1,47,-1
 499 528 l 1,48,49
 421 484 421 484 421 398 c 0,42,43
669 1146 m 0,50,51
 563 1146 563 1146 563 1052 c 0,52,53
 563 1013 563 1013 589 978.5 c 128,-1,54
 615 944 615 944 663 906 c 1,55,56
 690 918 690 918 709.5 931 c 128,-1,57
 729 944 729 944 741 961 c 128,-1,58
 753 978 753 978 759 1000 c 128,-1,59
 765 1022 765 1022 765 1052 c 0,60,61
 765 1095 765 1095 739.5 1120.5 c 128,-1,62
 714 1146 714 1146 669 1146 c 0,50,51
EndSplineSet
EndChar

StartChar: quotesingle
Encoding: 39 39 13
Width: 406
GlyphClass: 2
Flags: W
LayerCount: 2
Fore
SplineSet
60 1534 m 1,0,-1
 356 1534 l 1,1,-1
 298 1026 l 1,2,-1
 102 1026 l 1,3,-1
 60 1534 l 1,0,-1
EndSplineSet
EndChar

StartChar: parenleft
Encoding: 40 40 14
Width: 855
GlyphClass: 2
Flags: W
LayerCount: 2
Fore
SplineSet
809 -264 m 1,0,1
 623 -247 623 -247 479.5 -171.5 c 128,-1,2
 336 -96 336 -96 238.5 26.5 c 128,-1,3
 141 149 141 149 91 312.5 c 128,-1,4
 41 476 41 476 41 668 c 0,5,6
 41 870 41 870 94.5 1031.5 c 128,-1,7
 148 1193 148 1193 248 1309.5 c 128,-1,8
 348 1426 348 1426 490 1495 c 128,-1,9
 632 1564 632 1564 809 1582 c 1,10,-1
 809 1322 l 1,11,12
 738 1310 738 1310 680 1262.5 c 128,-1,13
 622 1215 622 1215 581.5 1133 c 128,-1,14
 541 1051 541 1051 519 934.5 c 128,-1,15
 497 818 497 818 497 668 c 0,16,17
 497 533 497 533 514 417 c 128,-1,18
 531 301 531 301 568.5 212 c 128,-1,19
 606 123 606 123 665.5 67 c 128,-1,20
 725 11 725 11 809 -4 c 1,21,-1
 809 -264 l 1,0,1
EndSplineSet
EndChar

StartChar: parenright
Encoding: 41 41 15
Width: 855
GlyphClass: 2
Flags: W
LayerCount: 2
Fore
SplineSet
46 -4 m 1,0,1
 118 8 118 8 175.5 56.5 c 128,-1,2
 233 105 233 105 273.5 189.5 c 128,-1,3
 314 274 314 274 336 394 c 128,-1,4
 358 514 358 514 358 668 c 0,5,6
 358 810 358 810 337.5 925.5 c 128,-1,7
 317 1041 317 1041 277.5 1125 c 128,-1,8
 238 1209 238 1209 180 1259.5 c 128,-1,9
 122 1310 122 1310 46 1322 c 1,10,-1
 46 1582 l 1,11,12
 236 1562 236 1562 380 1486.5 c 128,-1,13
 524 1411 524 1411 620.5 1291 c 128,-1,14
 717 1171 717 1171 765.5 1012 c 128,-1,15
 814 853 814 853 814 668 c 0,16,17
 814 470 814 470 762 306 c 128,-1,18
 710 142 710 142 611.5 21 c 128,-1,19
 513 -100 513 -100 370.5 -173.5 c 128,-1,20
 228 -247 228 -247 46 -264 c 1,21,-1
 46 -4 l 1,0,1
EndSplineSet
EndChar

StartChar: asterisk
Encoding: 42 42 16
Width: 1096
GlyphClass: 2
Flags: W
LayerCount: 2
Fore
SplineSet
381 884 m 1,0,-1
 65 1022 l 1,1,-1
 175 1240 l 1,2,-1
 451 1074 l 1,3,-1
 429 1408 l 1,4,-1
 677 1408 l 1,5,-1
 651 1076 l 1,6,-1
 919 1244 l 1,7,-1
 1035 1022 l 1,8,-1
 715 884 l 1,9,-1
 949 638 l 1,10,-1
 741 474 l 1,11,-1
 545 770 l 1,12,-1
 353 474 l 1,13,-1
 147 640 l 1,14,-1
 381 884 l 1,0,-1
EndSplineSet
EndChar

StartChar: plus
Encoding: 43 43 17
Width: 1092
GlyphClass: 2
Flags: W
LayerCount: 2
Fore
SplineSet
488 458 m 1,0,-1
 48 458 l 1,1,-1
 48 572 l 1,2,-1
 488 572 l 1,3,-1
 488 1026 l 1,4,-1
 608 1026 l 1,5,-1
 608 572 l 1,6,-1
 1044 572 l 1,7,-1
 1044 458 l 1,8,-1
 608 458 l 1,9,-1
 608 0 l 1,10,-1
 488 0 l 1,11,-1
 488 458 l 1,0,-1
EndSplineSet
EndChar

StartChar: comma
Encoding: 44 44 18
Width: 604
GlyphClass: 2
Flags: W
LayerCount: 2
Fore
SplineSet
94 -106 m 1,0,1
 163 -106 163 -106 201 -105 c 128,-1,2
 239 -104 239 -104 257.5 -94 c 128,-1,3
 276 -84 276 -84 280 -62.5 c 128,-1,4
 284 -41 284 -41 284 0 c 1,5,-1
 94 0 l 1,6,-1
 94 382 l 1,7,-1
 514 382 l 1,8,-1
 510 174 l 2,9,10
 508 64 508 64 502 -17.5 c 128,-1,11
 496 -99 496 -99 481 -157 c 128,-1,12
 466 -215 466 -215 439 -251.5 c 128,-1,13
 412 -288 412 -288 366.5 -309 c 128,-1,14
 321 -330 321 -330 254 -338 c 128,-1,15
 187 -346 187 -346 94 -346 c 1,16,-1
 94 -106 l 1,0,1
EndSplineSet
EndChar

StartChar: hyphen
Encoding: 45 45 19
Width: 740
GlyphClass: 2
Flags: W
LayerCount: 2
Fore
SplineSet
95 650 m 1,0,-1
 645 650 l 1,1,-1
 645 408 l 1,2,-1
 95 408 l 1,3,-1
 95 650 l 1,0,-1
EndSplineSet
EndChar

StartChar: period
Encoding: 46 46 20
Width: 574
GlyphClass: 2
Flags: W
LayerCount: 2
Fore
SplineSet
58 176 m 0,0,1
 58 221 58 221 77.5 259 c 128,-1,2
 97 297 97 297 129 324 c 128,-1,3
 161 351 161 351 202.5 366.5 c 128,-1,4
 244 382 244 382 288 382 c 0,5,6
 334 382 334 382 376 365.5 c 128,-1,7
 418 349 418 349 449.5 320.5 c 128,-1,8
 481 292 481 292 499.5 255 c 128,-1,9
 518 218 518 218 518 176 c 0,10,11
 518 130 518 130 498.5 91.5 c 128,-1,12
 479 53 479 53 447 25.5 c 128,-1,13
 415 -2 415 -2 373.5 -17 c 128,-1,14
 332 -32 332 -32 288 -32 c 0,15,16
 240 -32 240 -32 198 -16 c 128,-1,17
 156 0 156 0 125 28 c 128,-1,18
 94 56 94 56 76 94 c 128,-1,19
 58 132 58 132 58 176 c 0,0,1
EndSplineSet
EndChar

StartChar: slash
Encoding: 47 47 21
Width: 658
GlyphClass: 2
Flags: W
LayerCount: 2
Fore
SplineSet
396 1408 m 1,0,-1
 600 1408 l 1,1,-1
 260 0 l 1,2,-1
 60 0 l 1,3,-1
 396 1408 l 1,0,-1
EndSplineSet
EndChar

StartChar: zero
Encoding: 48 48 22
Width: 1420
GlyphClass: 2
Flags: W
LayerCount: 2
Fore
SplineSet
1186 1178 m 0,0,1
 1352 978 1352 978 1352 692 c 256,2,3
 1352 406 1352 406 1187 204 c 1,4,5
 1008 -17 1008 -17 710 -17 c 0,6,7
 559 -17 559 -17 439.5 40 c 128,-1,8
 320 97 320 97 237.5 194.5 c 128,-1,9
 155 292 155 292 111.5 420.5 c 128,-1,10
 68 549 68 549 68 692 c 0,11,12
 68 860 68 860 121 991.5 c 128,-1,13
 174 1123 174 1123 262.5 1213.5 c 128,-1,14
 351 1304 351 1304 467 1351.5 c 128,-1,15
 583 1399 583 1399 710 1399 c 0,16,17
 1004 1399 1004 1399 1186 1178 c 0,0,1
502 826 m 1,18,19
 496 793 496 793 492.5 759.5 c 128,-1,20
 489 726 489 726 489 692 c 0,21,22
 489 623 489 623 503 556.5 c 128,-1,23
 517 490 517 490 544.5 438 c 128,-1,24
 572 386 572 386 613.5 354.5 c 128,-1,25
 655 323 655 323 710 323 c 0,26,27
 756 323 756 323 796.5 350.5 c 128,-1,28
 837 378 837 378 866 427 c 128,-1,29
 895 476 895 476 912 543.5 c 128,-1,30
 929 611 929 611 929 692 c 0,31,32
 929 765 929 765 914.5 831.5 c 128,-1,33
 900 898 900 898 872.5 948.5 c 128,-1,34
 845 999 845 999 804 1029 c 128,-1,35
 763 1059 763 1059 710 1059 c 0,36,37
 661 1059 661 1059 626 1037.5 c 128,-1,38
 591 1016 591 1016 566 982 c 128,-1,39
 541 948 541 948 526 906.5 c 128,-1,40
 511 865 511 865 502 826 c 1,18,19
EndSplineSet
EndChar

StartChar: one
Encoding: 49 49 23
Width: 926
GlyphClass: 2
Flags: W
LayerCount: 2
Fore
SplineSet
88 302 m 1,0,-1
 260 302 l 1,1,-1
 260 983 l 1,2,-1
 88 971 l 1,3,-1
 88 1237 l 1,4,5
 174 1237 174 1237 279.5 1269.5 c 128,-1,6
 385 1302 385 1302 486 1371 c 1,7,-1
 700 1371 l 1,8,-1
 700 302 l 1,9,-1
 872 302 l 1,10,-1
 872 0 l 1,11,-1
 88 0 l 1,12,-1
 88 302 l 1,0,-1
EndSplineSet
EndChar

StartChar: two
Encoding: 50 50 24
Width: 1060
GlyphClass: 2
Flags: W
LayerCount: 2
Fore
SplineSet
405 1044 m 0,0,1
 390 1044 390 1044 371 1041 c 128,-1,2
 352 1038 352 1038 333.5 1034 c 128,-1,3
 315 1030 315 1030 299.5 1025 c 128,-1,4
 284 1020 284 1020 275 1017 c 0,5,6
 269 1014 269 1014 249.5 1005.5 c 128,-1,7
 230 997 230 997 210 988 c 128,-1,8
 190 979 190 979 174.5 972 c 128,-1,9
 159 965 159 965 159 965 c 1,10,-1
 56 1270 l 1,11,12
 122 1297 122 1297 183 1318 c 128,-1,13
 244 1339 244 1339 304 1354 c 128,-1,14
 364 1369 364 1369 423.5 1376.5 c 128,-1,15
 483 1384 483 1384 546 1384 c 0,16,17
 651 1384 651 1384 732 1348 c 128,-1,18
 813 1312 813 1312 868.5 1250 c 128,-1,19
 924 1188 924 1188 952.5 1106 c 128,-1,20
 981 1024 981 1024 981 932 c 0,21,22
 981 835 981 835 942 747.5 c 128,-1,23
 903 660 903 660 837.5 583 c 128,-1,24
 772 506 772 506 687 439 c 128,-1,25
 602 372 602 372 509 317 c 1,26,-1
 478 298 l 1,27,-1
 939 298 l 1,28,-1
 939 0 l 1,29,-1
 79 0 l 1,30,-1
 79 288 l 1,31,32
 187 389 187 389 275.5 484.5 c 128,-1,33
 364 580 364 580 427 663.5 c 128,-1,34
 490 747 490 747 525 815 c 128,-1,35
 560 883 560 883 560 930 c 0,36,37
 560 961 560 961 546 983 c 128,-1,38
 532 1005 532 1005 509.5 1018.5 c 128,-1,39
 487 1032 487 1032 459.5 1038 c 128,-1,40
 432 1044 432 1044 405 1044 c 0,0,1
EndSplineSet
EndChar

StartChar: three
Encoding: 51 51 25
Width: 1071
GlyphClass: 2
Flags: W
LayerCount: 2
Fore
SplineSet
456 1068 m 0,0,1
 329 1068 329 1068 130 1008 c 1,2,-1
 60 1276 l 1,3,4
 295 1386 295 1386 522 1386 c 0,5,6
 610 1386 610 1386 686.5 1361 c 128,-1,7
 763 1336 763 1336 820 1293.5 c 128,-1,8
 877 1251 877 1251 909.5 1193.5 c 128,-1,9
 942 1136 942 1136 942 1072 c 0,10,11
 942 863 942 863 748 738 c 1,12,13
 870 686 870 686 937 592 c 128,-1,14
 1004 498 1004 498 1004 366 c 0,15,16
 1004 282 1004 282 968 210.5 c 128,-1,17
 932 139 932 139 866 87.5 c 128,-1,18
 800 36 800 36 707 7 c 128,-1,19
 614 -22 614 -22 500 -22 c 0,20,21
 306 -22 306 -22 60 58 c 1,22,-1
 130 358 l 1,23,24
 292 292 292 292 434 292 c 0,25,26
 515 292 515 292 557 318 c 128,-1,27
 599 344 599 344 599 409 c 0,28,29
 599 467 599 467 565 501 c 128,-1,30
 531 535 531 535 477.5 552.5 c 128,-1,31
 424 570 424 570 357.5 575 c 128,-1,32
 291 580 291 580 226 580 c 1,33,-1
 226 834 l 1,34,35
 403 834 403 834 495 871.5 c 128,-1,36
 587 909 587 909 587 974 c 0,37,38
 587 1028 587 1028 554.5 1048 c 128,-1,39
 522 1068 522 1068 456 1068 c 0,0,1
EndSplineSet
EndChar

StartChar: four
Encoding: 52 52 26
Width: 1300
GlyphClass: 2
Flags: W
LayerCount: 2
Fore
SplineSet
36 333 m 1,0,-1
 36 620 l 1,1,-1
 582 1371 l 1,2,-1
 1040 1371 l 1,3,-1
 1040 617 l 1,4,-1
 1236 617 l 1,5,-1
 1236 331 l 1,6,-1
 1040 331 l 1,7,-1
 1040 0 l 1,8,-1
 604 0 l 1,9,-1
 604 333 l 1,10,-1
 36 333 l 1,0,-1
338 617 m 1,11,-1
 604 617 l 1,12,-1
 604 1022 l 1,13,-1
 338 617 l 1,11,-1
EndSplineSet
EndChar

StartChar: five
Encoding: 53 53 27
Width: 1096
GlyphClass: 2
Flags: W
LayerCount: 2
Fore
SplineSet
871 98 m 0,0,1
 800 42 800 42 702 7.5 c 128,-1,2
 604 -27 604 -27 485 -27 c 0,3,4
 312 -27 312 -27 96 61 c 1,5,-1
 123 351 l 1,6,7
 306 287 306 287 479 287 c 0,8,9
 514 287 514 287 543 299 c 128,-1,10
 572 311 572 311 592.5 333 c 128,-1,11
 613 355 613 355 624.5 385.5 c 128,-1,12
 636 416 636 416 636 453 c 0,13,14
 636 484 636 484 627 512 c 128,-1,15
 618 540 618 540 601 560.5 c 128,-1,16
 584 581 584 581 559.5 593 c 128,-1,17
 535 605 535 605 503 605 c 0,18,19
 424 605 424 605 302 522 c 1,20,-1
 88 615 l 1,21,-1
 141 1371 l 1,22,-1
 931 1371 l 1,23,-1
 902 1077 l 1,24,-1
 417 1077 l 1,25,-1
 392 865 l 1,26,-1
 399 867 l 1,27,-1
 447 883 l 1,28,29
 468 887 468 887 486.5 892.5 c 128,-1,30
 505 898 505 898 524 902.5 c 128,-1,31
 543 907 543 907 565 910 c 128,-1,32
 587 913 587 913 615 913 c 0,33,34
 890 913 890 913 998 660 c 0,35,36
 1040 562 1040 562 1040 452 c 0,37,38
 1040 231 1040 231 871 98 c 0,0,1
EndSplineSet
EndChar

StartChar: six
Encoding: 54 54 28
Width: 1283
GlyphClass: 2
Flags: W
LayerCount: 2
Fore
SplineSet
905 1046 m 1,0,1
 822 1073 822 1073 746 1073 c 0,2,3
 680 1073 680 1073 634 1048 c 128,-1,4
 588 1023 588 1023 557 981 c 128,-1,5
 526 939 526 939 508.5 884 c 128,-1,6
 491 829 491 829 483 770 c 2,7,-1
 475 714 l 1,8,-1
 515 752 l 2,9,10
 572 806 572 806 638 832 c 128,-1,11
 704 858 704 858 776 859 c 1,12,13
 879 859 879 859 961 830.5 c 128,-1,14
 1043 802 1043 802 1100.5 748 c 128,-1,15
 1158 694 1158 694 1189 617 c 128,-1,16
 1220 540 1220 540 1220 443 c 0,17,18
 1220 238 1220 238 1049 108 c 0,19,20
 888 -15 888 -15 682 -15 c 0,21,22
 542 -15 542 -15 429 31.5 c 128,-1,23
 316 78 316 78 236 164.5 c 128,-1,24
 156 251 156 251 113 373 c 128,-1,25
 70 495 70 495 70 647 c 0,26,27
 70 759 70 759 93.5 857.5 c 128,-1,28
 117 956 117 956 159 1038.5 c 128,-1,29
 201 1121 201 1121 259.5 1186.5 c 128,-1,30
 318 1252 318 1252 387.5 1297.5 c 128,-1,31
 457 1343 457 1343 536 1367 c 128,-1,32
 615 1391 615 1391 699 1391 c 0,33,34
 764 1391 764 1391 822 1382 c 128,-1,35
 880 1373 880 1373 935 1356 c 128,-1,36
 990 1339 990 1339 1044.5 1313.5 c 128,-1,37
 1099 1288 1099 1288 1158 1254 c 1,38,-1
 1060 986 l 1,39,40
 1018 1003 1018 1003 979 1018 c 128,-1,41
 940 1033 940 1033 905 1046 c 1,0,1
483 554 m 1,42,-1
 485 539 l 2,43,44
 491 495 491 495 501 448.5 c 128,-1,45
 511 402 511 402 530 364.5 c 128,-1,46
 549 327 549 327 580 303 c 128,-1,47
 611 279 611 279 659 279 c 0,48,49
 696 279 696 279 729.5 290.5 c 128,-1,50
 763 302 763 302 787.5 323 c 128,-1,51
 812 344 812 344 826.5 374.5 c 128,-1,52
 841 405 841 405 841 443 c 0,53,54
 841 477 841 477 828 504.5 c 128,-1,55
 815 532 815 532 792.5 551.5 c 128,-1,56
 770 571 770 571 740.5 581 c 128,-1,57
 711 591 711 591 678 591 c 0,58,59
 571 591 571 591 497 560 c 2,60,-1
 483 554 l 1,42,-1
EndSplineSet
EndChar

StartChar: seven
Encoding: 55 55 29
Width: 955
GlyphClass: 2
Flags: W
LayerCount: 2
Fore
SplineSet
492 1073 m 1,0,-1
 54 1073 l 1,1,-1
 54 1371 l 1,2,-1
 912 1371 l 1,3,-1
 912 1033 l 1,4,-1
 478 -34 l 1,5,-1
 98 122 l 1,6,-1
 492 1073 l 1,0,-1
EndSplineSet
EndChar

StartChar: eight
Encoding: 56 56 30
Width: 1284
GlyphClass: 2
Flags: W
LayerCount: 2
Fore
SplineSet
105 206 m 0,0,1
 61 283 61 283 61 384 c 0,2,3
 61 453 61 453 81.5 503 c 128,-1,4
 102 553 102 553 137 589.5 c 128,-1,5
 172 626 172 626 217 651.5 c 128,-1,6
 262 677 262 677 312 697 c 1,7,-1
 319 701 l 1,8,-1
 313 706 l 1,9,10
 163 829 163 829 163 1032 c 0,11,12
 163 1110 163 1110 197.5 1175.5 c 128,-1,13
 232 1241 232 1241 295 1288.5 c 128,-1,14
 358 1336 358 1336 446 1362.5 c 128,-1,15
 534 1389 534 1389 641 1389 c 0,16,17
 739 1389 739 1389 825.5 1368 c 128,-1,18
 912 1347 912 1347 977 1306.5 c 128,-1,19
 1042 1266 1042 1266 1079.5 1207 c 128,-1,20
 1117 1148 1117 1148 1117 1072 c 0,21,22
 1117 1018 1117 1018 1104.5 976 c 128,-1,23
 1092 934 1092 934 1070.5 902 c 128,-1,24
 1049 870 1049 870 1019 845.5 c 128,-1,25
 989 821 989 821 954 802 c 1,26,-1
 946 798 l 1,27,-1
 954 794 l 1,28,29
 1007 765 1007 765 1055.5 730 c 128,-1,30
 1104 695 1104 695 1140.5 649.5 c 128,-1,31
 1177 604 1177 604 1199 544 c 128,-1,32
 1221 484 1221 484 1221 406 c 0,33,34
 1221 292 1221 292 1175 210 c 128,-1,35
 1129 128 1129 128 1050 75.5 c 128,-1,36
 971 23 971 23 866 -2 c 128,-1,37
 761 -27 761 -27 643 -27 c 0,38,39
 548 -27 548 -27 464.5 -12 c 128,-1,40
 381 3 381 3 312.5 32 c 128,-1,41
 244 61 244 61 191 105 c 128,-1,42
 138 149 138 149 105 206 c 0,0,1
537 574 m 1,43,-1
 535 572 l 2,44,45
 504 540 504 540 487.5 500 c 128,-1,46
 471 460 471 460 471 406 c 0,47,48
 471 371 471 371 484 343.5 c 128,-1,49
 497 316 497 316 520.5 296.5 c 128,-1,50
 544 277 544 277 575.5 267 c 128,-1,51
 607 257 607 257 645 257 c 0,52,53
 682 257 682 257 714 264 c 128,-1,54
 746 271 746 271 769 284.5 c 128,-1,55
 792 298 792 298 805.5 318 c 128,-1,56
 819 338 819 338 819 364 c 0,57,58
 819 395 819 395 803.5 421 c 128,-1,59
 788 447 788 447 761 468 c 128,-1,60
 734 489 734 489 698 506.5 c 128,-1,61
 662 524 662 524 622 539 c 1,62,-1
 578 557 l 2,63,64
 562 564 562 564 552.5 568 c 128,-1,65
 543 572 543 572 540 573 c 2,66,-1
 537 574 l 1,43,-1
794 1020 m 0,67,68
 794 1091 794 1091 754 1129 c 128,-1,69
 714 1167 714 1167 643 1167 c 0,70,71
 613 1167 613 1167 584.5 1162 c 128,-1,72
 556 1157 556 1157 534 1144.5 c 128,-1,73
 512 1132 512 1132 499 1111.5 c 128,-1,74
 486 1091 486 1091 486 1060 c 0,75,76
 486 1031 486 1031 498 1008 c 128,-1,77
 510 985 510 985 538.5 963 c 128,-1,78
 567 941 567 941 613.5 919.5 c 128,-1,79
 660 898 660 898 728 873 c 1,80,-1
 731 872 l 1,81,-1
 733 874 l 1,82,83
 794 932 794 932 794 1020 c 0,67,68
EndSplineSet
EndChar

StartChar: nine
Encoding: 57 57 31
Width: 1261
GlyphClass: 2
Flags: W
LayerCount: 2
Fore
SplineSet
218 387 m 1,0,-1
 293 355 l 2,1,2
 348 332 348 332 408.5 317 c 128,-1,3
 469 302 469 302 527 302 c 0,4,5
 746 302 746 302 790 589 c 2,6,-1
 800 655 l 1,7,-1
 751 612 l 2,8,9
 706 573 706 573 652 549.5 c 128,-1,10
 598 526 598 526 517 526 c 0,11,12
 412 526 412 526 328 554 c 128,-1,13
 244 582 244 582 184.5 635.5 c 128,-1,14
 125 689 125 689 93.5 765 c 128,-1,15
 62 841 62 841 62 937 c 0,16,17
 62 1035 62 1035 104 1117.5 c 128,-1,18
 146 1200 146 1200 219.5 1260 c 128,-1,19
 293 1320 293 1320 393.5 1354 c 128,-1,20
 494 1388 494 1388 612 1388 c 0,21,22
 711 1388 711 1388 792.5 1360.5 c 128,-1,23
 874 1333 874 1333 938 1285 c 128,-1,24
 1002 1237 1002 1237 1050 1171 c 128,-1,25
 1098 1105 1098 1105 1129 1027.5 c 128,-1,26
 1160 950 1160 950 1175.5 864 c 128,-1,27
 1191 778 1191 778 1191 691 c 0,28,29
 1191 530 1191 530 1141.5 400.5 c 128,-1,30
 1092 271 1092 271 1007.5 180.5 c 128,-1,31
 923 90 923 90 811 41 c 128,-1,32
 699 -8 699 -8 575 -8 c 0,33,34
 514 -8 514 -8 458 1 c 128,-1,35
 402 10 402 10 347.5 27 c 128,-1,36
 293 44 293 44 238.5 69.5 c 128,-1,37
 184 95 184 95 126 128 c 1,38,-1
 218 387 l 1,0,-1
594 762 m 1,39,40
 646 760 646 760 689 770 c 128,-1,41
 732 780 732 780 773 794 c 2,42,-1
 790 800 l 1,43,-1
 788 820 l 2,44,45
 774 962 774 962 730.5 1033 c 128,-1,46
 687 1104 687 1104 612 1104 c 0,47,48
 574 1104 574 1104 541 1093 c 128,-1,49
 508 1082 508 1082 482.5 1061 c 128,-1,50
 457 1040 457 1040 442.5 1008.5 c 128,-1,51
 428 977 428 977 428 937 c 0,52,53
 428 899 428 899 440.5 867 c 128,-1,54
 453 835 453 835 475 811.5 c 128,-1,55
 497 788 497 788 527.5 775 c 128,-1,56
 558 762 558 762 594 762 c 1,39,40
EndSplineSet
EndChar

StartChar: colon
Encoding: 58 58 32
Width: 634
GlyphClass: 2
Flags: W
LayerCount: 2
Fore
SplineSet
87 206 m 0,0,1
 87 251 87 251 106.5 289.5 c 128,-1,2
 126 328 126 328 158.5 355.5 c 128,-1,3
 191 383 191 383 232.5 398.5 c 128,-1,4
 274 414 274 414 319 414 c 0,5,6
 367 414 367 414 408.5 396.5 c 128,-1,7
 450 379 450 379 480.5 350.5 c 128,-1,8
 511 322 511 322 529 284 c 128,-1,9
 547 246 547 246 547 206 c 0,10,11
 547 161 547 161 528 123 c 128,-1,12
 509 85 509 85 477.5 58 c 128,-1,13
 446 31 446 31 404.5 15.5 c 128,-1,14
 363 0 363 0 319 0 c 0,15,16
 271 0 271 0 228.5 16 c 128,-1,17
 186 32 186 32 154.5 60 c 128,-1,18
 123 88 123 88 105 125.5 c 128,-1,19
 87 163 87 163 87 206 c 0,0,1
87 820 m 0,20,21
 87 865 87 865 106.5 903.5 c 128,-1,22
 126 942 126 942 158.5 969.5 c 128,-1,23
 191 997 191 997 232.5 1012.5 c 128,-1,24
 274 1028 274 1028 319 1028 c 0,25,26
 367 1028 367 1028 408.5 1010.5 c 128,-1,27
 450 993 450 993 480.5 964.5 c 128,-1,28
 511 936 511 936 529 898 c 128,-1,29
 547 860 547 860 547 820 c 0,30,31
 547 775 547 775 528 737 c 128,-1,32
 509 699 509 699 477.5 672 c 128,-1,33
 446 645 446 645 404.5 629.5 c 128,-1,34
 363 614 363 614 319 614 c 0,35,36
 271 614 271 614 228.5 630 c 128,-1,37
 186 646 186 646 154.5 674 c 128,-1,38
 123 702 123 702 105 739.5 c 128,-1,39
 87 777 87 777 87 820 c 0,20,21
EndSplineSet
EndChar

StartChar: semicolon
Encoding: 59 59 33
Width: 612
GlyphClass: 2
Flags: W
LayerCount: 2
Fore
SplineSet
104 -106 m 1,0,1
 172 -106 172 -106 210.5 -105 c 128,-1,2
 249 -104 249 -104 268 -94 c 128,-1,3
 287 -84 287 -84 291.5 -62.5 c 128,-1,4
 296 -41 296 -41 296 0 c 1,5,-1
 104 0 l 1,6,-1
 104 382 l 1,7,-1
 524 382 l 1,8,-1
 521 255 l 1,9,10
 519 124 519 124 514.5 28.5 c 128,-1,11
 510 -67 510 -67 496.5 -134 c 128,-1,12
 483 -201 483 -201 457 -242.5 c 128,-1,13
 431 -284 431 -284 385.5 -307 c 128,-1,14
 340 -330 340 -330 271 -338 c 128,-1,15
 202 -346 202 -346 104 -346 c 1,16,-1
 104 -106 l 1,0,1
78 820 m 0,17,18
 78 866 78 866 98 904 c 128,-1,19
 118 942 118 942 150.5 969.5 c 128,-1,20
 183 997 183 997 224.5 1012.5 c 128,-1,21
 266 1028 266 1028 310 1028 c 0,22,23
 357 1028 357 1028 398.5 1011 c 128,-1,24
 440 994 440 994 471 965.5 c 128,-1,25
 502 937 502 937 520 899 c 128,-1,26
 538 861 538 861 538 820 c 0,27,28
 538 775 538 775 519 737 c 128,-1,29
 500 699 500 699 468.5 672 c 128,-1,30
 437 645 437 645 395.5 629.5 c 128,-1,31
 354 614 354 614 310 614 c 0,32,33
 262 614 262 614 219.5 630 c 128,-1,34
 177 646 177 646 145.5 673.5 c 128,-1,35
 114 701 114 701 96 738.5 c 128,-1,36
 78 776 78 776 78 820 c 0,17,18
EndSplineSet
EndChar

StartChar: less
Encoding: 60 60 34
Width: 938
GlyphClass: 2
Flags: W
LayerCount: 2
Fore
SplineSet
55 804 m 1,0,-1
 835 1232 l 1,1,-1
 835 924 l 1,2,-1
 227 620 l 1,3,-1
 835 332 l 1,4,-1
 835 0 l 1,5,-1
 55 456 l 1,6,-1
 55 804 l 1,0,-1
EndSplineSet
EndChar

StartChar: equal
Encoding: 61 61 35
Width: 838
GlyphClass: 2
Flags: W
LayerCount: 2
Fore
SplineSet
107 442 m 1,0,-1
 731 442 l 1,1,-1
 731 318 l 1,2,-1
 107 318 l 1,3,-1
 107 442 l 1,0,-1
107 720 m 1,4,-1
 731 720 l 1,5,-1
 731 594 l 1,6,-1
 107 594 l 1,7,-1
 107 720 l 1,4,-1
EndSplineSet
EndChar

StartChar: greater
Encoding: 62 62 36
Width: 938
GlyphClass: 2
Flags: W
LayerCount: 2
Fore
SplineSet
103 332 m 1,0,-1
 711 620 l 1,1,-1
 103 924 l 1,2,-1
 103 1232 l 1,3,-1
 883 804 l 1,4,-1
 883 456 l 1,5,-1
 103 0 l 1,6,-1
 103 332 l 1,0,-1
EndSplineSet
EndChar

StartChar: question
Encoding: 63 63 37
Width: 1035
GlyphClass: 2
Flags: W
LayerCount: 2
Fore
SplineSet
534 1026 m 0,0,1
 534 1092 534 1092 372 1092 c 0,2,3
 214 1092 214 1092 106 1038 c 1,4,-1
 78 1350 l 1,5,6
 297 1440 297 1440 490 1440 c 0,7,8
 595 1440 595 1440 685.5 1413.5 c 128,-1,9
 776 1387 776 1387 843 1337.5 c 128,-1,10
 910 1288 910 1288 948 1217 c 128,-1,11
 986 1146 986 1146 986 1058 c 0,12,13
 986 996 986 996 968 948 c 128,-1,14
 950 900 950 900 919.5 863 c 128,-1,15
 889 826 889 826 847 797.5 c 128,-1,16
 805 769 805 769 757 745 c 0,17,18
 732 732 732 732 701.5 718.5 c 128,-1,19
 671 705 671 705 641.5 690.5 c 128,-1,20
 612 676 612 676 586.5 661.5 c 128,-1,21
 561 647 561 647 548 633 c 0,22,23
 531 615 531 615 528.5 593.5 c 128,-1,24
 526 572 526 572 526 546 c 2,25,-1
 526 520 l 1,26,-1
 240 520 l 1,27,-1
 216 597 l 2,28,29
 212 613 212 613 208 636 c 128,-1,30
 204 659 204 659 204 680 c 0,31,32
 205 756 205 756 235 801.5 c 128,-1,33
 265 847 265 847 313 879 c 0,34,35
 343 899 343 899 381 917.5 c 128,-1,36
 419 936 419 936 453 954 c 128,-1,37
 487 972 487 972 510.5 990 c 128,-1,38
 534 1008 534 1008 534 1026 c 0,0,1
148 176 m 0,39,40
 148 221 148 221 167.5 258.5 c 128,-1,41
 187 296 187 296 219.5 323.5 c 128,-1,42
 252 351 252 351 294 366.5 c 128,-1,43
 336 382 336 382 380 382 c 0,44,45
 426 382 426 382 468 365.5 c 128,-1,46
 510 349 510 349 541.5 320.5 c 128,-1,47
 573 292 573 292 591.5 255 c 128,-1,48
 610 218 610 218 610 176 c 0,49,50
 610 130 610 130 590.5 91.5 c 128,-1,51
 571 53 571 53 539 25.5 c 128,-1,52
 507 -2 507 -2 465.5 -17 c 128,-1,53
 424 -32 424 -32 380 -32 c 0,54,55
 332 -32 332 -32 289.5 -16 c 128,-1,56
 247 0 247 0 215.5 28 c 128,-1,57
 184 56 184 56 166 94 c 128,-1,58
 148 132 148 132 148 176 c 0,39,40
EndSplineSet
EndChar

StartChar: at
Encoding: 64 64 38
Width: 1769
GlyphClass: 2
Flags: W
LayerCount: 2
Fore
SplineSet
1362 377 m 0,0,1
 1145 377 1145 377 1052 528 c 1,2,3
 1016 459 1016 459 953.5 419 c 128,-1,4
 891 379 891 379 804 379 c 0,5,6
 721 379 721 379 658.5 413 c 128,-1,7
 596 447 596 447 553 501 c 128,-1,8
 510 555 510 555 488.5 621 c 128,-1,9
 467 687 467 687 467 750 c 0,10,11
 467 827 467 827 495.5 893 c 128,-1,12
 524 959 524 959 571 1007.5 c 128,-1,13
 618 1056 618 1056 679 1083.5 c 128,-1,14
 740 1111 740 1111 806 1111 c 0,15,16
 915 1111 915 1111 1028.5 1106 c 128,-1,17
 1142 1101 1142 1101 1261 1091 c 1,18,-1
 1261 622 l 1,19,20
 1300 581 1300 581 1336 581 c 256,21,22
 1372 581 1372 581 1395.5 605.5 c 128,-1,23
 1419 630 1419 630 1432.5 667.5 c 128,-1,24
 1446 705 1446 705 1451 749.5 c 128,-1,25
 1456 794 1456 794 1456 835 c 0,26,27
 1456 1277 1456 1277 910 1277 c 0,28,29
 781 1277 781 1277 672.5 1236.5 c 128,-1,30
 564 1196 564 1196 486 1124 c 128,-1,31
 408 1052 408 1052 364.5 953 c 128,-1,32
 321 854 321 854 321 737 c 0,33,34
 321 605 321 605 369.5 507 c 128,-1,35
 418 409 418 409 499 343.5 c 128,-1,36
 580 278 580 278 684.5 245.5 c 128,-1,37
 789 213 789 213 900 213 c 0,38,39
 1125 213 1125 213 1310 307 c 1,40,-1
 1430 103 l 1,41,42
 1370 68 1370 68 1310.5 42.5 c 128,-1,43
 1251 17 1251 17 1187.5 0.5 c 128,-1,44
 1124 -16 1124 -16 1053 -24 c 128,-1,45
 982 -32 982 -32 900 -32 c 0,46,47
 711 -32 711 -32 557 25.5 c 128,-1,48
 403 83 403 83 293 185 c 128,-1,49
 183 287 183 287 123 428 c 128,-1,50
 63 569 63 569 63 736 c 0,51,52
 63 893 63 893 120 1034.5 c 128,-1,53
 177 1176 177 1176 285.5 1283 c 128,-1,54
 394 1390 394 1390 551 1453 c 128,-1,55
 708 1516 708 1516 908 1516 c 0,56,57
 1091 1516 1091 1516 1240 1471 c 128,-1,58
 1389 1426 1389 1426 1494.5 1340 c 128,-1,59
 1600 1254 1600 1254 1658 1128 c 128,-1,60
 1716 1002 1716 1002 1716 839 c 0,61,62
 1716 735 1716 735 1693.5 650 c 128,-1,63
 1671 565 1671 565 1626.5 504 c 128,-1,64
 1582 443 1582 443 1515.5 410 c 128,-1,65
 1449 377 1449 377 1362 377 c 0,0,1
1012 902 m 1,66,-1
 876 902 l 2,67,68
 845 902 845 902 819.5 889.5 c 128,-1,69
 794 877 794 877 775.5 855 c 128,-1,70
 757 833 757 833 747 804.5 c 128,-1,71
 737 776 737 776 737 745 c 0,72,73
 737 716 737 716 747.5 690.5 c 128,-1,74
 758 665 758 665 777 646.5 c 128,-1,75
 796 628 796 628 821 617.5 c 128,-1,76
 846 607 846 607 876 607 c 0,77,78
 904 607 904 607 929 618 c 128,-1,79
 954 629 954 629 972.5 647 c 128,-1,80
 991 665 991 665 1001.5 689 c 128,-1,81
 1012 713 1012 713 1012 739 c 2,82,-1
 1012 902 l 1,66,-1
EndSplineSet
EndChar

StartChar: A
Encoding: 65 65 39
Width: 1431
GlyphClass: 2
Flags: W
LayerCount: 2
Fore
SplineSet
400 1408 m 1,0,-1
 1022 1408 l 1,1,-1
 1430 0 l 1,2,-1
 948 0 l 1,3,-1
 894 270 l 1,4,-1
 530 270 l 1,5,-1
 472 0 l 1,6,-1
 10 0 l 1,7,-1
 400 1408 l 1,0,-1
846 522 m 1,8,-1
 712 1138 l 1,9,-1
 574 522 l 1,10,-1
 846 522 l 1,8,-1
EndSplineSet
EndChar

StartChar: B
Encoding: 66 66 40
Width: 1476
GlyphClass: 2
Flags: W
LayerCount: 2
Fore
SplineSet
830 -32 m 0,0,1
 600 -32 600 -32 134 -2 c 1,2,-1
 134 1408 l 1,3,-1
 838 1408 l 2,4,5
 951 1408 951 1408 1047 1384 c 128,-1,6
 1143 1360 1143 1360 1213 1316 c 128,-1,7
 1283 1272 1283 1272 1322.5 1208.5 c 128,-1,8
 1362 1145 1362 1145 1362 1066 c 0,9,10
 1362 938 1362 938 1306 860.5 c 128,-1,11
 1250 783 1250 783 1138 766 c 1,12,13
 1277 753 1277 753 1351.5 665.5 c 128,-1,14
 1426 578 1426 578 1426 428 c 0,15,16
 1426 333 1426 333 1381 249.5 c 128,-1,17
 1336 166 1336 166 1256 103.5 c 128,-1,18
 1176 41 1176 41 1067 4.5 c 128,-1,19
 958 -32 958 -32 830 -32 c 0,0,1
976 456 m 0,20,21
 976 498 976 498 960.5 530 c 128,-1,22
 945 562 945 562 917 583 c 128,-1,23
 889 604 889 604 850 615 c 128,-1,24
 811 626 811 626 764 626 c 2,25,-1
 588 626 l 1,26,-1
 588 297 l 1,27,28
 611 296 611 296 633 296 c 128,-1,29
 655 296 655 296 675 296 c 2,30,-1
 790 296 l 2,31,32
 829 296 829 296 863 307 c 128,-1,33
 897 318 897 318 922 339 c 128,-1,34
 947 360 947 360 961.5 389.5 c 128,-1,35
 976 419 976 419 976 456 c 0,20,21
936 992 m 0,36,37
 936 1136 936 1136 756 1136 c 2,38,-1
 590 1136 l 1,39,-1
 590 852 l 1,40,-1
 752 852 l 2,41,42
 791 852 791 852 825 862 c 128,-1,43
 859 872 859 872 883.5 890 c 128,-1,44
 908 908 908 908 922 934 c 128,-1,45
 936 960 936 960 936 992 c 0,36,37
EndSplineSet
EndChar

StartChar: C
Encoding: 67 67 41
Width: 1237
GlyphClass: 2
Flags: W
LayerCount: 2
Fore
SplineSet
875 338 m 0,0,1
 911 338 911 338 940.5 341.5 c 128,-1,2
 970 345 970 345 999.5 352.5 c 128,-1,3
 1029 360 1029 360 1060 370.5 c 128,-1,4
 1091 381 1091 381 1129 396 c 1,5,-1
 1185 71 l 1,6,7
 1007 -32 1007 -32 797 -32 c 0,8,9
 500 -32 500 -32 288 168 c 0,10,11
 66 376 66 376 63 705 c 1,12,13
 63 866 63 866 118 1000.5 c 128,-1,14
 173 1135 173 1135 270 1232.5 c 128,-1,15
 367 1330 367 1330 499 1384.5 c 128,-1,16
 631 1439 631 1439 785 1439 c 0,17,18
 1004 1439 1004 1439 1183 1337 c 1,19,-1
 1129 1019 l 1,20,21
 984 1075 984 1075 863 1075 c 0,22,23
 696 1075 696 1075 609.5 978.5 c 128,-1,24
 523 882 523 882 523 707 c 0,25,26
 523 620 523 620 546.5 551.5 c 128,-1,27
 570 483 570 483 615 435.5 c 128,-1,28
 660 388 660 388 725.5 363 c 128,-1,29
 791 338 791 338 875 338 c 0,0,1
EndSplineSet
EndChar

StartChar: D
Encoding: 68 68 42
Width: 1565
GlyphClass: 2
Flags: W
LayerCount: 2
Fore
SplineSet
134 1408 m 1,0,-1
 746 1408 l 2,1,2
 917 1408 917 1408 1056 1356.5 c 128,-1,3
 1195 1305 1195 1305 1293.5 1213 c 128,-1,4
 1392 1121 1392 1121 1446 993.5 c 128,-1,5
 1500 866 1500 866 1500 714 c 0,6,7
 1500 554 1500 554 1446.5 422.5 c 128,-1,8
 1393 291 1393 291 1294 197 c 128,-1,9
 1195 103 1195 103 1056 51.5 c 128,-1,10
 917 0 917 0 746 0 c 2,11,-1
 134 0 l 1,12,-1
 134 1408 l 1,0,-1
746 368 m 2,13,14
 823 368 823 368 878.5 401 c 128,-1,15
 934 434 934 434 970 485 c 128,-1,16
 1006 536 1006 536 1023 598 c 128,-1,17
 1040 660 1040 660 1040 718 c 0,18,19
 1040 788 1040 788 1018.5 847 c 128,-1,20
 997 906 997 906 958 949 c 128,-1,21
 919 992 919 992 865 1016 c 128,-1,22
 811 1040 811 1040 746 1040 c 2,23,-1
 586 1040 l 1,24,-1
 586 368 l 1,25,-1
 746 368 l 2,13,14
EndSplineSet
EndChar

StartChar: E
Encoding: 69 69 43
Width: 1218
GlyphClass: 2
Flags: W
LayerCount: 2
Fore
SplineSet
134 1408 m 1,0,-1
 1122 1408 l 1,1,-1
 1122 1098 l 1,2,-1
 630 1098 l 1,3,-1
 630 842 l 1,4,-1
 1080 842 l 1,5,-1
 1080 584 l 1,6,-1
 630 584 l 1,7,-1
 630 308 l 1,8,-1
 1122 308 l 1,9,-1
 1122 0 l 1,10,-1
 134 0 l 1,11,-1
 134 1408 l 1,0,-1
EndSplineSet
EndChar

StartChar: F
Encoding: 70 70 44
Width: 1168
GlyphClass: 2
Flags: W
LayerCount: 2
Fore
SplineSet
134 1408 m 1,0,-1
 1104 1408 l 1,1,-1
 1104 1098 l 1,2,-1
 574 1098 l 1,3,-1
 574 814 l 1,4,-1
 1064 814 l 1,5,-1
 1064 554 l 1,6,-1
 574 554 l 1,7,-1
 574 0 l 1,8,-1
 134 0 l 1,9,-1
 134 1408 l 1,0,-1
EndSplineSet
EndChar

StartChar: G
Encoding: 71 71 45
Width: 1349
GlyphClass: 2
Flags: W
LayerCount: 2
Fore
SplineSet
1105 1020 m 1,0,1
 925 1078 925 1078 825 1078 c 0,2,3
 750 1078 750 1078 692.5 1047 c 128,-1,4
 635 1016 635 1016 596 965 c 128,-1,5
 557 914 557 914 537 848 c 128,-1,6
 517 782 517 782 517 711 c 0,7,8
 517 633 517 633 539.5 564.5 c 128,-1,9
 562 496 562 496 602.5 445.5 c 128,-1,10
 643 395 643 395 700 365.5 c 128,-1,11
 757 336 757 336 825 336 c 0,12,13
 862 336 862 336 907 342 c 1,14,-1
 907 674 l 1,15,-1
 1261 714 l 1,16,-1
 1261 74 l 1,17,18
 1021 -32 1021 -32 769 -32 c 0,19,20
 475 -32 475 -32 268 186 c 0,21,22
 61 405 61 405 61 716 c 0,23,24
 61 1018 61 1018 272 1230 c 0,25,26
 480 1440 480 1440 767 1440 c 0,27,28
 1029 1440 1029 1440 1241 1338 c 1,29,-1
 1105 1020 l 1,0,1
EndSplineSet
EndChar

StartChar: H
Encoding: 72 72 46
Width: 1626
GlyphClass: 2
Flags: W
LayerCount: 2
Fore
SplineSet
134 1408 m 1,0,-1
 594 1408 l 1,1,-1
 594 848 l 1,2,-1
 1030 848 l 1,3,-1
 1030 1408 l 1,4,-1
 1492 1408 l 1,5,-1
 1492 0 l 1,6,-1
 1030 0 l 1,7,-1
 1030 552 l 1,8,-1
 594 552 l 1,9,-1
 594 0 l 1,10,-1
 134 0 l 1,11,-1
 134 1408 l 1,0,-1
EndSplineSet
EndChar

StartChar: I
Encoding: 73 73 47
Width: 740
GlyphClass: 2
Flags: W
LayerCount: 2
Fore
SplineSet
134 1408 m 1,0,-1
 606 1408 l 1,1,-1
 606 0 l 1,2,-1
 134 0 l 1,3,-1
 134 1408 l 1,0,-1
EndSplineSet
EndChar

StartChar: J
Encoding: 74 74 48
Width: 934
GlyphClass: 2
Flags: W
LayerCount: 2
Fore
SplineSet
234 242 m 0,0,1
 370 242 370 242 370 412 c 2,2,-1
 370 1408 l 1,3,-1
 810 1408 l 1,4,-1
 810 412 l 2,5,6
 810 294 810 294 778 200.5 c 128,-1,7
 746 107 746 107 686.5 42 c 128,-1,8
 627 -23 627 -23 542 -57.5 c 128,-1,9
 457 -92 457 -92 350 -92 c 0,10,11
 160 -92 160 -92 -2 16 c 1,12,-1
 94 270 l 1,13,14
 177 242 177 242 234 242 c 0,0,1
EndSplineSet
EndChar

StartChar: K
Encoding: 75 75 49
Width: 1570
GlyphClass: 2
Flags: W
LayerCount: 2
Fore
SplineSet
134 1408 m 1,0,-1
 608 1408 l 1,1,-1
 608 834 l 1,2,-1
 756 834 l 1,3,-1
 1028 1408 l 1,4,-1
 1502 1408 l 1,5,-1
 1502 1316 l 1,6,-1
 1178 710 l 1,7,-1
 1548 92 l 1,8,-1
 1548 0 l 1,9,-1
 1050 0 l 1,10,-1
 748 560 l 1,11,-1
 608 560 l 1,12,-1
 608 0 l 1,13,-1
 134 0 l 1,14,-1
 134 1408 l 1,0,-1
EndSplineSet
EndChar

StartChar: L
Encoding: 76 76 50
Width: 1102
GlyphClass: 2
Flags: W
LayerCount: 2
Fore
SplineSet
134 1408 m 1,0,-1
 576 1408 l 1,1,-1
 576 302 l 1,2,-1
 1064 302 l 1,3,-1
 1064 0 l 1,4,-1
 134 0 l 1,5,-1
 134 1408 l 1,0,-1
EndSplineSet
EndChar

StartChar: M
Encoding: 77 77 51
Width: 1816
GlyphClass: 2
Flags: W
LayerCount: 2
Fore
SplineSet
134 1408 m 1,0,-1
 560 1408 l 1,1,-1
 912 724 l 1,2,-1
 1256 1408 l 1,3,-1
 1682 1408 l 1,4,-1
 1682 0 l 1,5,-1
 1256 0 l 1,6,-1
 1256 752 l 1,7,-1
 996 260 l 1,8,-1
 822 260 l 1,9,-1
 560 752 l 1,10,-1
 560 0 l 1,11,-1
 134 0 l 1,12,-1
 134 1408 l 1,0,-1
EndSplineSet
EndChar

StartChar: N
Encoding: 78 78 52
Width: 1606
GlyphClass: 2
Flags: W
LayerCount: 2
Fore
SplineSet
134 1408 m 1,0,-1
 544 1408 l 1,1,-1
 1106 650 l 1,2,-1
 1106 1408 l 1,3,-1
 1472 1408 l 1,4,-1
 1472 0 l 1,5,-1
 1062 0 l 1,6,-1
 498 734 l 1,7,-1
 498 0 l 1,8,-1
 134 0 l 1,9,-1
 134 1408 l 1,0,-1
EndSplineSet
EndChar

StartChar: O
Encoding: 79 79 53
Width: 1634
GlyphClass: 2
Flags: W
LayerCount: 2
Fore
SplineSet
64 702 m 0,0,1
 64 1008 64 1008 258 1216 c 0,2,3
 466 1439 466 1439 818 1439 c 0,4,5
 990 1439 990 1439 1129 1383.5 c 128,-1,6
 1268 1328 1268 1328 1366 1230 c 128,-1,7
 1464 1132 1464 1132 1517 996.5 c 128,-1,8
 1570 861 1570 861 1570 702 c 0,9,10
 1570 606 1570 606 1548 514 c 128,-1,11
 1526 422 1526 422 1482.5 340.5 c 128,-1,12
 1439 259 1439 259 1375 190.5 c 128,-1,13
 1311 122 1311 122 1227.5 72.5 c 128,-1,14
 1144 23 1144 23 1041 -4.5 c 128,-1,15
 938 -32 938 -32 818 -32 c 0,16,17
 695 -32 695 -32 591 -4 c 128,-1,18
 487 24 487 24 403 74 c 128,-1,19
 319 124 319 124 255.5 193 c 128,-1,20
 192 262 192 262 149.5 343.5 c 128,-1,21
 107 425 107 425 85.5 516 c 128,-1,22
 64 607 64 607 64 702 c 0,0,1
818 340 m 0,23,24
 897 340 897 340 952.5 373.5 c 128,-1,25
 1008 407 1008 407 1043.5 459.5 c 128,-1,26
 1079 512 1079 512 1095.5 577 c 128,-1,27
 1112 642 1112 642 1112 704 c 0,28,29
 1112 785 1112 785 1091.5 852.5 c 128,-1,30
 1071 920 1071 920 1032.5 970 c 128,-1,31
 994 1020 994 1020 939.5 1048.5 c 128,-1,32
 885 1077 885 1077 818 1080 c 1,33,34
 738 1078 738 1078 682 1044 c 128,-1,35
 626 1010 626 1010 590.5 956.5 c 128,-1,36
 555 903 555 903 538.5 836.5 c 128,-1,37
 522 770 522 770 522 704 c 0,38,39
 522 626 522 626 542.5 559.5 c 128,-1,40
 563 493 563 493 601.5 444.5 c 128,-1,41
 640 396 640 396 695 368 c 128,-1,42
 750 340 750 340 818 340 c 0,23,24
EndSplineSet
EndChar

StartChar: P
Encoding: 80 80 54
Width: 1330
GlyphClass: 2
Flags: W
LayerCount: 2
Fore
SplineSet
134 1408 m 1,0,-1
 642 1408 l 2,1,2
 800 1408 800 1408 923 1377 c 128,-1,3
 1046 1346 1046 1346 1130 1286 c 128,-1,4
 1214 1226 1214 1226 1258 1139.5 c 128,-1,5
 1302 1053 1302 1053 1302 942 c 0,6,7
 1302 834 1302 834 1252 749 c 128,-1,8
 1202 664 1202 664 1115 604.5 c 128,-1,9
 1028 545 1028 545 911.5 513.5 c 128,-1,10
 795 482 795 482 662 482 c 2,11,-1
 576 482 l 1,12,-1
 576 0 l 1,13,-1
 134 0 l 1,14,-1
 134 1408 l 1,0,-1
664 766 m 0,15,16
 769 766 769 766 829.5 810 c 128,-1,17
 890 854 890 854 890 942 c 0,18,19
 890 985 890 985 872.5 1017 c 128,-1,20
 855 1049 855 1049 824.5 1070.5 c 128,-1,21
 794 1092 794 1092 753 1103 c 128,-1,22
 712 1114 712 1114 664 1114 c 2,23,-1
 576 1114 l 1,24,-1
 576 770 l 1,25,26
 590 768 590 768 612 767 c 128,-1,27
 634 766 634 766 664 766 c 0,15,16
EndSplineSet
EndChar

StartChar: Q
Encoding: 81 81 55
Width: 1634
GlyphClass: 2
Flags: W
LayerCount: 2
Fore
SplineSet
1570 -124 m 1,0,-1
 1312 -326 l 1,1,-1
 860 -28 l 1,2,3
 850 -30 850 -30 839 -31 c 128,-1,4
 828 -32 828 -32 816 -32 c 0,5,6
 572 -32 572 -32 405 71 c 0,7,8
 325 120 325 120 261.5 188 c 128,-1,9
 198 256 198 256 153.5 338 c 128,-1,10
 109 420 109 420 85.5 513.5 c 128,-1,11
 62 607 62 607 62 706 c 0,12,13
 62 999 62 999 252 1208 c 1,14,15
 460 1439 460 1439 816 1439 c 0,16,17
 939 1439 939 1439 1042.5 1411 c 128,-1,18
 1146 1383 1146 1383 1229.5 1333.5 c 128,-1,19
 1313 1284 1313 1284 1377 1215.5 c 128,-1,20
 1441 1147 1441 1147 1483.5 1065.5 c 128,-1,21
 1526 984 1526 984 1548 892.5 c 128,-1,22
 1570 801 1570 801 1570 706 c 0,23,24
 1570 622 1570 622 1553.5 541 c 128,-1,25
 1537 460 1537 460 1504 385 c 128,-1,26
 1471 310 1471 310 1422 244 c 128,-1,27
 1373 178 1373 178 1308 124 c 1,28,-1
 1570 -47 l 1,29,-1
 1570 -124 l 1,0,-1
816 338 m 0,30,31
 895 338 895 338 950.5 372 c 128,-1,32
 1006 406 1006 406 1041.5 459.5 c 128,-1,33
 1077 513 1077 513 1093.5 578 c 128,-1,34
 1110 643 1110 643 1110 706 c 0,35,36
 1110 785 1110 785 1089.5 852.5 c 128,-1,37
 1069 920 1069 920 1031 969.5 c 128,-1,38
 993 1019 993 1019 938.5 1047 c 128,-1,39
 884 1075 884 1075 816 1075 c 0,40,41
 736 1075 736 1075 680 1040.5 c 128,-1,42
 624 1006 624 1006 589 952.5 c 128,-1,43
 554 899 554 899 538 833.5 c 128,-1,44
 522 768 522 768 522 706 c 0,45,46
 522 629 522 629 543 562 c 128,-1,47
 564 495 564 495 602.5 445 c 128,-1,48
 641 395 641 395 695.5 366.5 c 128,-1,49
 750 338 750 338 816 338 c 0,30,31
EndSplineSet
EndChar

StartChar: R
Encoding: 82 82 56
Width: 1429
GlyphClass: 2
Flags: W
LayerCount: 2
Fore
SplineSet
1389 4 m 1,0,1
 1258 -32 1258 -32 1200 -32 c 0,2,3
 829 -32 829 -32 734 306 c 1,4,-1
 678 534 l 1,5,-1
 582 534 l 1,6,-1
 582 0 l 1,7,-1
 134 0 l 1,8,-1
 134 1408 l 1,9,-1
 760 1408 l 2,10,11
 882 1408 882 1408 989 1380.5 c 128,-1,12
 1096 1353 1096 1353 1175.5 1300.5 c 128,-1,13
 1255 1248 1255 1248 1300.5 1171 c 128,-1,14
 1346 1094 1346 1094 1346 994 c 0,15,16
 1346 920 1346 920 1327.5 861.5 c 128,-1,17
 1309 803 1309 803 1274 756.5 c 128,-1,18
 1239 710 1239 710 1188.5 674 c 128,-1,19
 1138 638 1138 638 1074 610 c 1,20,-1
 1083 561 l 2,21,22
 1086 544 1086 544 1089 532 c 128,-1,23
 1092 520 1092 520 1094 512 c 2,24,-1
 1105 469 l 1,25,26
 1117 431 1117 431 1132.5 404.5 c 128,-1,27
 1148 378 1148 378 1172 361.5 c 128,-1,28
 1196 345 1196 345 1231.5 337.5 c 128,-1,29
 1267 330 1267 330 1318 330 c 0,30,31
 1326 330 1326 330 1343.5 332 c 128,-1,32
 1361 334 1361 334 1389 338 c 1,33,-1
 1389 4 l 1,0,1
936 974 m 0,34,35
 936 1013 936 1013 919.5 1038.5 c 128,-1,36
 903 1064 903 1064 874 1078.5 c 128,-1,37
 845 1093 845 1093 806 1098.5 c 128,-1,38
 767 1104 767 1104 722 1104 c 2,39,-1
 582 1104 l 1,40,-1
 582 822 l 1,41,-1
 660 822 l 1,42,-1
 726 825 l 1,43,44
 765 828 765 828 802.5 835.5 c 128,-1,45
 840 843 840 843 870 859.5 c 128,-1,46
 900 876 900 876 918 904 c 128,-1,47
 936 932 936 932 936 974 c 0,34,35
EndSplineSet
EndChar

StartChar: S
Encoding: 83 83 57
Width: 1213
GlyphClass: 2
Flags: W
LayerCount: 2
Fore
SplineSet
1152 460 m 0,0,1
 1152 334 1152 334 1113.5 241.5 c 128,-1,2
 1075 149 1075 149 1003 88.5 c 128,-1,3
 931 28 931 28 826.5 -2 c 128,-1,4
 722 -32 722 -32 590 -32 c 0,5,6
 298 -32 298 -32 76 74 c 1,7,8
 137 227 137 227 172 352 c 0,9,10
 178 373 178 373 184 388 c 1,11,-1
 334 351 l 2,12,13
 361 345 361 345 392 338 c 128,-1,14
 423 331 423 331 454 325.5 c 128,-1,15
 485 320 485 320 513 316 c 128,-1,16
 541 312 541 312 562 312 c 0,17,18
 596 312 596 312 627.5 314.5 c 128,-1,19
 659 317 659 317 683 326 c 128,-1,20
 707 335 707 335 721.5 352 c 128,-1,21
 736 369 736 369 736 398 c 0,22,23
 736 417 736 417 727 431.5 c 128,-1,24
 718 446 718 446 704 457 c 128,-1,25
 690 468 690 468 671.5 477 c 128,-1,26
 653 486 653 486 635 494 c 1,27,28
 620 499 620 499 587 509.5 c 128,-1,29
 554 520 554 520 517.5 531.5 c 128,-1,30
 481 543 481 543 448.5 553 c 128,-1,31
 416 563 416 563 402 568 c 0,32,33
 331 590 331 590 270 628 c 128,-1,34
 209 666 209 666 164.5 718.5 c 128,-1,35
 120 771 120 771 95 837.5 c 128,-1,36
 70 904 70 904 70 984 c 0,37,38
 70 1440 70 1440 618 1440 c 0,39,40
 878 1440 878 1440 1102 1332 c 1,41,-1
 1051 1191 l 2,42,43
 1032 1139 1032 1139 1017.5 1098 c 128,-1,44
 1003 1057 1003 1057 992 1026 c 1,45,46
 895 1051 895 1051 838.5 1065.5 c 128,-1,47
 782 1080 782 1080 748 1087.5 c 128,-1,48
 714 1095 714 1095 694 1096.5 c 128,-1,49
 674 1098 674 1098 652 1098 c 2,50,-1
 618 1098 l 2,51,52
 607 1098 607 1098 599.5 1098.5 c 128,-1,53
 592 1099 592 1099 585 1099 c 0,54,55
 540 1099 540 1099 516 1085.5 c 128,-1,56
 492 1072 492 1072 492 1030 c 0,57,58
 492 967 492 967 602 934 c 1,59,60
 871 871 871 871 1011.5 750.5 c 128,-1,61
 1152 630 1152 630 1152 460 c 0,0,1
EndSplineSet
EndChar

StartChar: T
Encoding: 84 84 58
Width: 1182
GlyphClass: 2
Flags: W
LayerCount: 2
Fore
SplineSet
352 1110 m 1,0,-1
 60 1110 l 1,1,-1
 60 1408 l 1,2,-1
 1122 1408 l 1,3,-1
 1122 1110 l 1,4,-1
 830 1110 l 1,5,-1
 830 0 l 1,6,-1
 352 0 l 1,7,-1
 352 1110 l 1,0,-1
EndSplineSet
EndChar

StartChar: U
Encoding: 85 85 59
Width: 1634
GlyphClass: 2
Flags: W
LayerCount: 2
Fore
SplineSet
817 338 m 0,0,1
 932 338 932 338 991.5 400.5 c 128,-1,2
 1051 463 1051 463 1051 584 c 2,3,-1
 1051 1408 l 1,4,-1
 1513 1408 l 1,5,-1
 1513 584 l 2,6,7
 1513 476 1513 476 1484.5 388.5 c 128,-1,8
 1456 301 1456 301 1406.5 232.5 c 128,-1,9
 1357 164 1357 164 1290 114 c 128,-1,10
 1223 64 1223 64 1145.5 31.5 c 128,-1,11
 1068 -1 1068 -1 984 -16.5 c 128,-1,12
 900 -32 900 -32 817 -32 c 0,13,14
 532 -32 532 -32 334 124 c 1,15,16
 121 290 121 290 121 584 c 2,17,-1
 121 1408 l 1,18,-1
 583 1408 l 1,19,-1
 583 584 l 2,20,21
 583 338 583 338 817 338 c 0,0,1
EndSplineSet
EndChar

StartChar: V
Encoding: 86 86 60
Width: 1377
GlyphClass: 2
Flags: W
LayerCount: 2
Fore
SplineSet
4 1408 m 1,0,-1
 466 1408 l 1,1,-1
 684 530 l 1,2,-1
 902 1408 l 1,3,-1
 1384 1408 l 1,4,-1
 944 0 l 1,5,-1
 422 0 l 1,6,-1
 4 1408 l 1,0,-1
EndSplineSet
EndChar

StartChar: W
Encoding: 87 87 61
Width: 2028
GlyphClass: 2
Flags: W
LayerCount: 2
Fore
SplineSet
43 1408 m 1,0,-1
 503 1408 l 1,1,-1
 637 510 l 1,2,-1
 775 1170 l 1,3,-1
 1251 1170 l 1,4,-1
 1391 510 l 1,5,-1
 1523 1408 l 1,6,-1
 1985 1408 l 1,7,-1
 1665 0 l 1,8,-1
 1187 0 l 1,9,-1
 1013 758 l 1,10,-1
 839 0 l 1,11,-1
 363 0 l 1,12,-1
 43 1408 l 1,0,-1
EndSplineSet
EndChar

StartChar: X
Encoding: 88 88 62
Width: 1296
GlyphClass: 2
Flags: W
LayerCount: 2
Fore
SplineSet
391 700 m 1,0,-1
 13 1408 l 1,1,-1
 477 1408 l 1,2,-1
 643 1052 l 1,3,-1
 809 1408 l 1,4,-1
 1283 1408 l 1,5,-1
 901 700 l 1,6,-1
 1295 0 l 1,7,-1
 821 0 l 1,8,-1
 643 350 l 1,9,-1
 465 0 l 1,10,-1
 1 0 l 1,11,-1
 391 700 l 1,0,-1
EndSplineSet
EndChar

StartChar: Y
Encoding: 89 89 63
Width: 1253
GlyphClass: 2
Flags: W
LayerCount: 2
Fore
SplineSet
400 392 m 1,0,-1
 -6 1408 l 1,1,-1
 422 1408 l 1,2,-1
 620 776 l 1,3,-1
 816 1408 l 1,4,-1
 1266 1408 l 1,5,-1
 840 392 l 1,6,-1
 840 0 l 1,7,-1
 400 0 l 1,8,-1
 400 392 l 1,0,-1
EndSplineSet
EndChar

StartChar: Z
Encoding: 90 90 64
Width: 1107
GlyphClass: 2
Flags: W
LayerCount: 2
Fore
SplineSet
73 296 m 1,0,-1
 555 1110 l 1,1,-1
 93 1110 l 1,2,-1
 93 1408 l 1,3,-1
 1013 1408 l 1,4,-1
 1013 1110 l 1,5,-1
 543 296 l 1,6,-1
 1034 296 l 1,7,-1
 1034 0 l 1,8,-1
 73 0 l 1,9,-1
 73 296 l 1,0,-1
EndSplineSet
EndChar

StartChar: bracketleft
Encoding: 91 91 65
Width: 915
GlyphClass: 2
Flags: W
LayerCount: 2
Fore
SplineSet
119 1408 m 1,0,-1
 845 1408 l 1,1,-1
 845 1104 l 1,2,-1
 559 1104 l 1,3,-1
 559 302 l 1,4,-1
 845 302 l 1,5,-1
 845 0 l 1,6,-1
 119 0 l 1,7,-1
 119 1408 l 1,0,-1
EndSplineSet
EndChar

StartChar: backslash
Encoding: 92 92 66
Width: 656
GlyphClass: 2
Flags: W
LayerCount: 2
Fore
SplineSet
597 0 m 1,0,-1
 397 0 l 1,1,-1
 57 1408 l 1,2,-1
 261 1408 l 1,3,-1
 597 0 l 1,0,-1
EndSplineSet
EndChar

StartChar: bracketright
Encoding: 93 93 67
Width: 915
GlyphClass: 2
Flags: W
LayerCount: 2
Fore
SplineSet
70 302 m 1,0,-1
 356 302 l 1,1,-1
 356 1104 l 1,2,-1
 70 1104 l 1,3,-1
 70 1408 l 1,4,-1
 796 1408 l 1,5,-1
 796 0 l 1,6,-1
 70 0 l 1,7,-1
 70 302 l 1,0,-1
EndSplineSet
EndChar

StartChar: asciicircum
Encoding: 94 94 68
Width: 1204
GlyphClass: 2
Flags: W
LayerCount: 2
Fore
SplineSet
418 1376 m 1,0,-1
 784 1376 l 1,1,-1
 1134 350 l 1,2,-1
 830 350 l 1,3,-1
 604 1184 l 1,4,-1
 382 350 l 1,5,-1
 72 350 l 1,6,-1
 418 1376 l 1,0,-1
EndSplineSet
EndChar

StartChar: underscore
Encoding: 95 95 69
Width: 844
GlyphClass: 2
Flags: W
LayerCount: 2
Fore
SplineSet
82 142 m 1,0,-1
 762 142 l 1,1,-1
 762 -32 l 1,2,-1
 82 -32 l 1,3,-1
 82 142 l 1,0,-1
EndSplineSet
EndChar

StartChar: grave
Encoding: 96 96 70
Width: 864
GlyphClass: 2
Flags: W
LayerCount: 2
Fore
SplineSet
238 1790 m 1,0,-1
 838 1370 l 1,1,-1
 712 1150 l 1,2,-1
 30 1424 l 1,3,-1
 238 1790 l 1,0,-1
EndSplineSet
EndChar

StartChar: a
Encoding: 97 97 71
Width: 1425
GlyphClass: 2
Flags: W
LayerCount: 2
Fore
SplineSet
890 190 m 1,0,1
 866 140 866 140 833.5 99 c 128,-1,2
 801 58 801 58 759 29 c 128,-1,3
 717 0 717 0 665 -16 c 128,-1,4
 613 -32 613 -32 552 -32 c 0,5,6
 452 -32 452 -32 361.5 11 c 128,-1,7
 271 54 271 54 202 128.5 c 128,-1,8
 133 203 133 203 92.5 303.5 c 128,-1,9
 52 404 52 404 52 519 c 0,10,11
 52 633 52 633 93.5 731.5 c 128,-1,12
 135 830 135 830 204.5 902 c 128,-1,13
 274 974 274 974 364.5 1015 c 128,-1,14
 455 1056 455 1056 554 1056 c 0,15,16
 605 1056 605 1056 654.5 1040 c 128,-1,17
 704 1024 704 1024 748.5 992 c 128,-1,18
 793 960 793 960 829.5 912.5 c 128,-1,19
 866 865 866 865 890 802 c 1,20,-1
 890 1056 l 1,21,-1
 1320 1026 l 1,22,-1
 1320 0 l 1,23,-1
 890 -32 l 1,24,-1
 890 190 l 1,0,1
890 520 m 1,25,26
 888 561 888 561 871 596.5 c 128,-1,27
 854 632 854 632 826.5 658.5 c 128,-1,28
 799 685 799 685 763 700.5 c 128,-1,29
 727 716 727 716 688 716 c 0,30,31
 644 716 644 716 606.5 699.5 c 128,-1,32
 569 683 569 683 541.5 655.5 c 128,-1,33
 514 628 514 628 498 591 c 128,-1,34
 482 554 482 554 482 512 c 0,35,36
 482 468 482 468 499 430.5 c 128,-1,37
 516 393 516 393 544.5 366 c 128,-1,38
 573 339 573 339 610 323.5 c 128,-1,39
 647 308 647 308 688 308 c 0,40,41
 730 308 730 308 766 324 c 128,-1,42
 802 340 802 340 829 367 c 128,-1,43
 856 394 856 394 872 429.5 c 128,-1,44
 888 465 888 465 890 504 c 1,45,-1
 890 520 l 1,25,26
EndSplineSet
EndChar

StartChar: b
Encoding: 98 98 72
Width: 1428
GlyphClass: 2
Flags: W
LayerCount: 2
Fore
SplineSet
875 -32 m 0,0,1
 756 -32 756 -32 672.5 28 c 128,-1,2
 589 88 589 88 541 190 c 1,3,-1
 541 0 l 1,4,-1
 107 0 l 1,5,-1
 107 1350 l 1,6,-1
 541 1414 l 1,7,-1
 541 834 l 1,8,9
 644 1056 644 1056 873 1056 c 0,10,11
 977 1056 977 1056 1068.5 1013.5 c 128,-1,12
 1160 971 1160 971 1228 897.5 c 128,-1,13
 1296 824 1296 824 1335.5 725 c 128,-1,14
 1375 626 1375 626 1375 512 c 256,15,16
 1375 398 1375 398 1334 299 c 128,-1,17
 1293 200 1293 200 1224 126.5 c 128,-1,18
 1155 53 1155 53 1064.5 10.5 c 128,-1,19
 974 -32 974 -32 875 -32 c 0,0,1
541 512 m 2,20,21
 541 469 541 469 557 431.5 c 128,-1,22
 573 394 573 394 601 366.5 c 128,-1,23
 629 339 629 339 665.5 323.5 c 128,-1,24
 702 308 702 308 743 308 c 0,25,26
 786 308 786 308 823.5 325 c 128,-1,27
 861 342 861 342 888.5 370 c 128,-1,28
 916 398 916 398 931.5 435 c 128,-1,29
 947 472 947 472 947 512 c 0,30,31
 947 556 947 556 930.5 593.5 c 128,-1,32
 914 631 914 631 886 658 c 128,-1,33
 858 685 858 685 821 700.5 c 128,-1,34
 784 716 784 716 743 716 c 0,35,36
 701 716 701 716 664.5 700.5 c 128,-1,37
 628 685 628 685 601 658 c 128,-1,38
 574 631 574 631 558 595.5 c 128,-1,39
 542 560 542 560 541 520 c 1,40,-1
 541 512 l 2,20,21
EndSplineSet
EndChar

StartChar: c
Encoding: 99 99 73
Width: 966
GlyphClass: 2
Flags: W
LayerCount: 2
Fore
SplineSet
882 686 m 1,0,1
 771 720 771 720 682 720 c 0,2,3
 635 720 635 720 597.5 705 c 128,-1,4
 560 690 560 690 533.5 663 c 128,-1,5
 507 636 507 636 492.5 597.5 c 128,-1,6
 478 559 478 559 478 512 c 256,7,8
 478 465 478 465 492.5 426.5 c 128,-1,9
 507 388 507 388 534 360 c 128,-1,10
 561 332 561 332 599.5 317 c 128,-1,11
 638 302 638 302 686 302 c 0,12,13
 775 302 775 302 878 336 c 1,14,-1
 918 50 l 1,15,16
 879 30 879 30 842 15 c 128,-1,17
 805 0 805 0 767.5 -10.5 c 128,-1,18
 730 -21 730 -21 691 -26.5 c 128,-1,19
 652 -32 652 -32 608 -32 c 0,20,21
 487 -32 487 -32 385 8.5 c 128,-1,22
 283 49 283 49 209 121 c 128,-1,23
 135 193 135 193 93.5 293 c 128,-1,24
 52 393 52 393 52 512 c 0,25,26
 52 577 52 577 64.5 634 c 128,-1,27
 77 691 77 691 99.5 740 c 128,-1,28
 122 789 122 789 152.5 830.5 c 128,-1,29
 183 872 183 872 218 905 c 0,30,31
 291 974 291 974 389.5 1015 c 128,-1,32
 488 1056 488 1056 608 1056 c 0,33,34
 657 1056 657 1056 696.5 1050 c 128,-1,35
 736 1044 736 1044 772 1032 c 128,-1,36
 808 1020 808 1020 844 1001.5 c 128,-1,37
 880 983 880 983 922 958 c 1,38,-1
 882 686 l 1,0,1
EndSplineSet
EndChar

StartChar: d
Encoding: 100 100 74
Width: 1428
GlyphClass: 2
Flags: W
LayerCount: 2
Fore
SplineSet
553 1056 m 0,0,1
 785 1056 785 1056 889 834 c 1,2,-1
 889 1350 l 1,3,-1
 1321 1414 l 1,4,-1
 1321 0 l 1,5,-1
 889 0 l 1,6,-1
 889 190 l 1,7,8
 865 139 865 139 832 98 c 128,-1,9
 799 57 799 57 757 28 c 128,-1,10
 715 -1 715 -1 663.5 -16.5 c 128,-1,11
 612 -32 612 -32 551 -32 c 0,12,13
 361 -32 361 -32 212 117 c 0,14,15
 53 276 53 276 53 512 c 0,16,17
 53 625 53 625 93.5 724 c 128,-1,18
 134 823 134 823 203 897 c 128,-1,19
 272 971 272 971 362.5 1013.5 c 128,-1,20
 453 1056 453 1056 553 1056 c 0,0,1
889 520 m 1,21,22
 887 561 887 561 870 596.5 c 128,-1,23
 853 632 853 632 825.5 658.5 c 128,-1,24
 798 685 798 685 762 700.5 c 128,-1,25
 726 716 726 716 687 716 c 0,26,27
 643 716 643 716 605.5 699.5 c 128,-1,28
 568 683 568 683 541 655 c 128,-1,29
 514 627 514 627 498.5 590 c 128,-1,30
 483 553 483 553 483 512 c 0,31,32
 483 469 483 469 499.5 431.5 c 128,-1,33
 516 394 516 394 544 366.5 c 128,-1,34
 572 339 572 339 609 323.5 c 128,-1,35
 646 308 646 308 687 308 c 0,36,37
 730 308 730 308 767 325 c 128,-1,38
 804 342 804 342 831 370 c 128,-1,39
 858 398 858 398 873.5 435 c 128,-1,40
 889 472 889 472 889 512 c 2,41,-1
 889 520 l 1,21,22
EndSplineSet
EndChar

StartChar: e
Encoding: 101 101 75
Width: 1138
GlyphClass: 2
Flags: W
LayerCount: 2
Fore
SplineSet
698 262 m 0,0,1
 838 262 838 262 1000 334 c 1,2,-1
 1050 52 l 1,3,4
 864 -32 864 -32 632 -32 c 0,5,6
 503 -32 503 -32 396.5 10 c 128,-1,7
 290 52 290 52 213.5 125.5 c 128,-1,8
 137 199 137 199 94.5 298.5 c 128,-1,9
 52 398 52 398 52 512 c 0,10,11
 52 632 52 632 96.5 732 c 128,-1,12
 141 832 141 832 218 904 c 128,-1,13
 295 976 295 976 398 1016 c 128,-1,14
 501 1056 501 1056 618 1056 c 0,15,16
 736 1056 736 1056 825 1014 c 128,-1,17
 914 972 914 972 973.5 901 c 128,-1,18
 1033 830 1033 830 1062.5 736 c 128,-1,19
 1092 642 1092 642 1092 538 c 0,20,21
 1092 524 1092 524 1091 511 c 128,-1,22
 1090 498 1090 498 1088 486 c 1,23,-1
 474 406 l 1,24,25
 522 262 522 262 698 262 c 0,0,1
774 664 m 1,26,27
 739 792 739 792 618 792 c 0,28,29
 579 792 579 792 549.5 777 c 128,-1,30
 520 762 520 762 500 735.5 c 128,-1,31
 480 709 480 709 468.5 672.5 c 128,-1,32
 457 636 457 636 456 594 c 1,33,-1
 774 664 l 1,26,27
EndSplineSet
EndChar

StartChar: f
Encoding: 102 102 76
Width: 890
GlyphClass: 2
Flags: W
LayerCount: 2
Fore
SplineSet
676 1264 m 0,0,1
 616 1264 616 1264 582.5 1234.5 c 128,-1,2
 549 1205 549 1205 549 1148 c 0,3,4
 549 1094 549 1094 584 1026 c 1,5,-1
 870 1026 l 1,6,-1
 870 772 l 1,7,-1
 612 772 l 1,8,-1
 612 0 l 1,9,-1
 180 0 l 1,10,-1
 180 772 l 1,11,-1
 52 772 l 1,12,-1
 52 1026 l 1,13,-1
 180 1026 l 1,14,15
 180 1169 180 1169 200.5 1272 c 128,-1,16
 221 1375 221 1375 266 1442 c 128,-1,17
 311 1509 311 1509 382 1540.5 c 128,-1,18
 453 1572 453 1572 554 1572 c 0,19,20
 712 1572 712 1572 888 1494 c 1,21,-1
 874 1216 l 1,22,23
 757 1264 757 1264 676 1264 c 0,0,1
EndSplineSet
EndChar

StartChar: g
Encoding: 103 103 77
Width: 1423
GlyphClass: 2
Flags: W
LayerCount: 2
Fore
SplineSet
917 170 m 1,0,1
 798 0 798 0 549 0 c 0,2,3
 450 0 450 0 360 39 c 128,-1,4
 270 78 270 78 202 147.5 c 128,-1,5
 134 217 134 217 94 312 c 128,-1,6
 54 407 54 407 54 519 c 0,7,8
 54 636 54 636 95 734.5 c 128,-1,9
 136 833 136 833 204.5 904.5 c 128,-1,10
 273 976 273 976 361.5 1016 c 128,-1,11
 450 1056 450 1056 545 1056 c 0,12,13
 608 1056 608 1056 663.5 1036.5 c 128,-1,14
 719 1017 719 1017 764 982.5 c 128,-1,15
 809 948 809 948 840.5 902 c 128,-1,16
 872 856 872 856 887 802 c 1,17,-1
 887 1056 l 1,18,-1
 1319 1024 l 1,19,-1
 1319 260 l 2,20,21
 1319 92 1319 92 1281.5 -43.5 c 128,-1,22
 1244 -179 1244 -179 1166 -273.5 c 128,-1,23
 1088 -368 1088 -368 968 -419 c 128,-1,24
 848 -470 848 -470 683 -470 c 0,25,26
 635 -470 635 -470 581 -465 c 128,-1,27
 527 -460 527 -460 467 -450 c 1,28,-1
 499 -144 l 1,29,30
 599 -156 599 -156 639 -156 c 0,31,32
 716 -156 716 -156 765 -131 c 128,-1,33
 814 -106 814 -106 844.5 -62.5 c 128,-1,34
 875 -19 875 -19 890.5 40.5 c 128,-1,35
 906 100 906 100 917 170 c 1,0,1
887 520 m 1,36,37
 885 560 885 560 867.5 595.5 c 128,-1,38
 850 631 850 631 822 658 c 128,-1,39
 794 685 794 685 758 700.5 c 128,-1,40
 722 716 722 716 683 716 c 0,41,42
 639 716 639 716 601.5 699.5 c 128,-1,43
 564 683 564 683 537 655 c 128,-1,44
 510 627 510 627 494.5 590 c 128,-1,45
 479 553 479 553 479 512 c 0,46,47
 479 463 479 463 497.5 425 c 128,-1,48
 516 387 516 387 545.5 361 c 128,-1,49
 575 335 575 335 611.5 321.5 c 128,-1,50
 648 308 648 308 683 308 c 0,51,52
 724 308 724 308 760.5 324 c 128,-1,53
 797 340 797 340 824.5 367 c 128,-1,54
 852 394 852 394 868.5 429.5 c 128,-1,55
 885 465 885 465 887 504 c 1,56,-1
 887 520 l 1,36,37
EndSplineSet
EndChar

StartChar: h
Encoding: 104 104 78
Width: 1413
GlyphClass: 2
Flags: W
LayerCount: 2
Fore
SplineSet
107 1350 m 1,0,-1
 539 1414 l 1,1,-1
 539 798 l 1,2,3
 591 923 591 923 677 989.5 c 128,-1,4
 763 1056 763 1056 877 1056 c 0,5,6
 970 1056 970 1056 1050 1016 c 128,-1,7
 1130 976 1130 976 1189.5 904.5 c 128,-1,8
 1249 833 1249 833 1283 735 c 128,-1,9
 1317 637 1317 637 1317 520 c 2,10,-1
 1317 0 l 1,11,-1
 887 0 l 1,12,-1
 887 512 l 2,13,14
 887 551 887 551 876 588 c 128,-1,15
 865 625 865 625 846 653.5 c 128,-1,16
 827 682 827 682 800.5 699 c 128,-1,17
 774 716 774 716 743 716 c 0,18,19
 699 716 699 716 661.5 698.5 c 128,-1,20
 624 681 624 681 597 651 c 128,-1,21
 570 621 570 621 554.5 581.5 c 128,-1,22
 539 542 539 542 539 498 c 2,23,-1
 539 0 l 1,24,-1
 107 0 l 1,25,-1
 107 1350 l 1,0,-1
EndSplineSet
EndChar

StartChar: i
Encoding: 105 105 79
Width: 748
GlyphClass: 2
Flags: W
LayerCount: 2
Fore
SplineSet
91 1366 m 0,0,1
 91 1411 91 1411 110.5 1449 c 128,-1,2
 130 1487 130 1487 162 1514.5 c 128,-1,3
 194 1542 194 1542 236 1557 c 128,-1,4
 278 1572 278 1572 323 1572 c 0,5,6
 375 1572 375 1572 417.5 1553.5 c 128,-1,7
 460 1535 460 1535 490 1505.5 c 128,-1,8
 520 1476 520 1476 536.5 1439.5 c 128,-1,9
 553 1403 553 1403 553 1366 c 0,10,11
 553 1320 553 1320 534 1282 c 128,-1,12
 515 1244 515 1244 483 1216.5 c 128,-1,13
 451 1189 451 1189 409.5 1173.5 c 128,-1,14
 368 1158 368 1158 323 1158 c 0,15,16
 274 1158 274 1158 231.5 1174 c 128,-1,17
 189 1190 189 1190 158 1218.5 c 128,-1,18
 127 1247 127 1247 109 1284.5 c 128,-1,19
 91 1322 91 1322 91 1366 c 0,0,1
731 38 m 1,20,21
 609 -32 609 -32 463 -32 c 0,22,23
 376 -32 376 -32 308 -3 c 128,-1,24
 240 26 240 26 193.5 79.5 c 128,-1,25
 147 133 147 133 123 209 c 128,-1,26
 99 285 99 285 99 378 c 2,27,-1
 99 1026 l 1,28,-1
 533 1026 l 1,29,-1
 533 408 l 1,30,-1
 533 398 l 2,31,32
 533 349 533 349 559 324.5 c 128,-1,33
 585 300 585 300 625 300 c 256,34,35
 665 300 665 300 709 324 c 1,36,-1
 731 38 l 1,20,21
EndSplineSet
EndChar

StartChar: j
Encoding: 106 106 80
Width: 646
GlyphClass: 2
Flags: W
LayerCount: 2
Fore
SplineSet
-29 -110 m 0,0,1
 107 -110 107 -110 107 60 c 2,2,-1
 107 1026 l 1,3,-1
 539 1026 l 1,4,-1
 539 60 l 2,5,6
 539 -57 539 -57 507.5 -150 c 128,-1,7
 476 -243 476 -243 417.5 -308 c 128,-1,8
 359 -373 359 -373 275 -407.5 c 128,-1,9
 191 -442 191 -442 85 -442 c 0,10,11
 -103 -442 -103 -442 -265 -334 c 1,12,-1
 -171 -80 l 1,13,14
 -77 -110 -77 -110 -29 -110 c 0,0,1
85 1366 m 0,15,16
 85 1410 85 1410 104.5 1448 c 128,-1,17
 124 1486 124 1486 156 1513.5 c 128,-1,18
 188 1541 188 1541 229.5 1556.5 c 128,-1,19
 271 1572 271 1572 315 1572 c 0,20,21
 367 1572 367 1572 410 1554 c 128,-1,22
 453 1536 453 1536 483.5 1506.5 c 128,-1,23
 514 1477 514 1477 530.5 1440 c 128,-1,24
 547 1403 547 1403 547 1366 c 0,25,26
 547 1320 547 1320 528 1282 c 128,-1,27
 509 1244 509 1244 477.5 1216.5 c 128,-1,28
 446 1189 446 1189 403.5 1173.5 c 128,-1,29
 361 1158 361 1158 315 1158 c 0,30,31
 266 1158 266 1158 224 1174.5 c 128,-1,32
 182 1191 182 1191 151 1219.5 c 128,-1,33
 120 1248 120 1248 102.5 1286 c 128,-1,34
 85 1324 85 1324 85 1366 c 0,15,16
EndSplineSet
EndChar

StartChar: k
Encoding: 107 107 81
Width: 1314
GlyphClass: 2
Flags: W
LayerCount: 2
Fore
SplineSet
973 592 m 1,0,1
 984 527 984 527 995 483.5 c 128,-1,2
 1006 440 1006 440 1017 417 c 0,3,4
 1040 366 1040 366 1081 340 c 128,-1,5
 1122 314 1122 314 1179 314 c 0,6,7
 1208 314 1208 314 1267 326 c 1,8,-1
 1227 -24 l 1,9,10
 1164 -30 1164 -30 1113 -30 c 0,11,12
 1004 -30 1004 -30 930 -5 c 128,-1,13
 856 20 856 20 805.5 70.5 c 128,-1,14
 755 121 755 121 722 197.5 c 128,-1,15
 689 274 689 274 661 378 c 1,16,-1
 541 282 l 1,17,-1
 541 0 l 1,18,-1
 107 0 l 1,19,-1
 107 1350 l 1,20,-1
 541 1414 l 1,21,-1
 541 712 l 1,22,-1
 1067 1142 l 1,23,-1
 1303 822 l 1,24,-1
 973 592 l 1,0,1
EndSplineSet
EndChar

StartChar: l
Encoding: 108 108 82
Width: 774
GlyphClass: 2
Flags: W
LayerCount: 2
Fore
SplineSet
771 38 m 1,0,1
 632 -32 632 -32 463 -32 c 0,2,3
 376 -32 376 -32 308 -3.5 c 128,-1,4
 240 25 240 25 193.5 78.5 c 128,-1,5
 147 132 147 132 123 207.5 c 128,-1,6
 99 283 99 283 99 378 c 2,7,-1
 99 1350 l 1,8,-1
 531 1414 l 1,9,-1
 531 408 l 2,10,11
 531 353 531 353 566 326.5 c 128,-1,12
 601 300 601 300 661 300 c 0,13,14
 707 300 707 300 755 324 c 1,15,-1
 771 38 l 1,0,1
EndSplineSet
EndChar

StartChar: m
Encoding: 109 109 83
Width: 2100
GlyphClass: 2
Flags: W
LayerCount: 2
Fore
SplineSet
1240 786 m 1,0,1
 1282 911 1282 911 1376 983.5 c 128,-1,2
 1470 1056 1470 1056 1616 1056 c 0,3,4
 1700 1056 1700 1056 1771 1014.5 c 128,-1,5
 1842 973 1842 973 1894 900.5 c 128,-1,6
 1946 828 1946 828 1975 728.5 c 128,-1,7
 2004 629 2004 629 2004 512 c 2,8,-1
 2004 0 l 1,9,-1
 1572 0 l 1,10,-1
 1572 512 l 2,11,12
 1572 555 1572 555 1562.5 591.5 c 128,-1,13
 1553 628 1553 628 1535 655 c 128,-1,14
 1517 682 1517 682 1491 697 c 128,-1,15
 1465 712 1465 712 1432 712 c 0,16,17
 1389 712 1389 712 1358 692.5 c 128,-1,18
 1327 673 1327 673 1307 643.5 c 128,-1,19
 1287 614 1287 614 1277.5 578.5 c 128,-1,20
 1268 543 1268 543 1268 512 c 2,21,-1
 1268 0 l 1,22,-1
 840 0 l 1,23,-1
 840 512 l 2,24,25
 840 554 840 554 830.5 590.5 c 128,-1,26
 821 627 821 627 802.5 654 c 128,-1,27
 784 681 784 681 757 696.5 c 128,-1,28
 730 712 730 712 696 712 c 0,29,30
 660 712 660 712 630 697 c 128,-1,31
 600 682 600 682 579 655.5 c 128,-1,32
 558 629 558 629 546.5 594 c 128,-1,33
 535 559 535 559 534 520 c 1,34,-1
 534 0 l 1,35,-1
 102 0 l 1,36,-1
 102 990 l 1,37,-1
 534 1056 l 1,38,-1
 534 802 l 1,39,40
 648 1056 648 1056 884 1056 c 0,41,42
 940 1056 940 1056 993.5 1039 c 128,-1,43
 1047 1022 1047 1022 1093.5 988 c 128,-1,44
 1140 954 1140 954 1177.5 903.5 c 128,-1,45
 1215 853 1215 853 1240 786 c 1,0,1
EndSplineSet
EndChar

StartChar: n
Encoding: 110 110 84
Width: 1407
GlyphClass: 2
Flags: W
LayerCount: 2
Fore
SplineSet
102 990 m 1,0,-1
 534 1056 l 1,1,-1
 534 802 l 1,2,3
 591 923 591 923 681 989.5 c 128,-1,4
 771 1056 771 1056 890 1056 c 0,5,6
 980 1056 980 1056 1057 1013.5 c 128,-1,7
 1134 971 1134 971 1190.5 897.5 c 128,-1,8
 1247 824 1247 824 1278.5 725 c 128,-1,9
 1310 626 1310 626 1310 512 c 2,10,-1
 1310 0 l 1,11,-1
 880 0 l 1,12,-1
 880 512 l 2,13,14
 880 551 880 551 869 588 c 128,-1,15
 858 625 858 625 839 653.5 c 128,-1,16
 820 682 820 682 793.5 699 c 128,-1,17
 767 716 767 716 736 716 c 0,18,19
 694 716 694 716 657.5 700 c 128,-1,20
 621 684 621 684 594 657 c 128,-1,21
 567 630 567 630 551 594.5 c 128,-1,22
 535 559 535 559 534 520 c 1,23,-1
 534 0 l 1,24,-1
 102 0 l 1,25,-1
 102 990 l 1,0,-1
EndSplineSet
EndChar

StartChar: o
Encoding: 111 111 85
Width: 1284
GlyphClass: 2
Flags: W
LayerCount: 2
Fore
SplineSet
644 310 m 0,0,1
 690 310 690 310 724.5 330.5 c 128,-1,2
 759 351 759 351 782 382 c 128,-1,3
 805 413 805 413 816.5 448.5 c 128,-1,4
 828 484 828 484 828 514 c 0,5,6
 828 556 828 556 813 593 c 128,-1,7
 798 630 798 630 773 658 c 128,-1,8
 748 686 748 686 714.5 702 c 128,-1,9
 681 718 681 718 644 718 c 0,10,11
 602 718 602 718 568.5 702 c 128,-1,12
 535 686 535 686 511.5 658 c 128,-1,13
 488 630 488 630 475 593 c 128,-1,14
 462 556 462 556 462 514 c 0,15,16
 462 471 462 471 476 434 c 128,-1,17
 490 397 490 397 514.5 369.5 c 128,-1,18
 539 342 539 342 572.5 326 c 128,-1,19
 606 310 606 310 644 310 c 0,0,1
52 514 m 0,20,21
 53 647 53 647 102.5 747.5 c 128,-1,22
 152 848 152 848 237 918 c 0,23,24
 310 978 310 978 413.5 1017 c 128,-1,25
 517 1056 517 1056 644 1056 c 0,26,27
 774 1056 774 1056 882 1015 c 128,-1,28
 990 974 990 974 1068 901 c 128,-1,29
 1146 828 1146 828 1189 729 c 128,-1,30
 1232 630 1232 630 1232 514 c 0,31,32
 1232 373 1232 373 1179 270 c 128,-1,33
 1126 167 1126 167 1041.5 100 c 128,-1,34
 957 33 957 33 852 0.5 c 128,-1,35
 747 -32 747 -32 642 -32 c 0,36,37
 510 -32 510 -32 401.5 9 c 128,-1,38
 293 50 293 50 215 123 c 128,-1,39
 137 196 137 196 94.5 296 c 128,-1,40
 52 396 52 396 52 514 c 0,20,21
EndSplineSet
EndChar

StartChar: p
Encoding: 112 112 86
Width: 1423
GlyphClass: 2
Flags: W
LayerCount: 2
Fore
SplineSet
870 -32 m 0,0,1
 643 -32 643 -32 534 190 c 1,2,-1
 534 -266 l 1,3,-1
 102 -348 l 1,4,-1
 102 990 l 1,5,-1
 534 1056 l 1,6,-1
 534 834 l 1,7,8
 640 1056 640 1056 868 1056 c 0,9,10
 1059 1056 1059 1056 1210 908 c 0,11,12
 1370 751 1370 751 1370 512 c 0,13,14
 1370 276 1370 276 1211 117 c 0,15,16
 1062 -32 1062 -32 870 -32 c 0,0,1
534 512 m 2,17,18
 534 469 534 469 550.5 431.5 c 128,-1,19
 567 394 567 394 595 366.5 c 128,-1,20
 623 339 623 339 659.5 323.5 c 128,-1,21
 696 308 696 308 736 308 c 0,22,23
 780 308 780 308 818 324.5 c 128,-1,24
 856 341 856 341 883.5 369 c 128,-1,25
 911 397 911 397 926.5 434 c 128,-1,26
 942 471 942 471 942 512 c 0,27,28
 942 560 942 560 924 598 c 128,-1,29
 906 636 906 636 876.5 662 c 128,-1,30
 847 688 847 688 810 702 c 128,-1,31
 773 716 773 716 736 716 c 0,32,33
 688 716 688 716 651.5 697.5 c 128,-1,34
 615 679 615 679 590 650.5 c 128,-1,35
 565 622 565 622 551 587 c 128,-1,36
 537 552 537 552 534 520 c 1,37,-1
 534 512 l 2,17,18
EndSplineSet
EndChar

StartChar: q
Encoding: 113 113 87
Width: 1425
GlyphClass: 2
Flags: W
LayerCount: 2
Fore
SplineSet
555 1056 m 0,0,1
 783 1056 783 1056 891 834 c 1,2,-1
 891 1056 l 1,3,-1
 1323 990 l 1,4,-1
 1323 -266 l 1,5,-1
 891 -348 l 1,6,-1
 891 190 l 1,7,8
 781 -32 781 -32 553 -32 c 0,9,10
 503 -32 503 -32 456 -21 c 128,-1,11
 409 -10 409 -10 366 10 c 128,-1,12
 323 30 323 30 284.5 57 c 128,-1,13
 246 84 246 84 213 117 c 0,14,15
 53 277 53 277 53 512 c 0,16,17
 53 626 53 626 93 725.5 c 128,-1,18
 133 825 133 825 201.5 898.5 c 128,-1,19
 270 972 270 972 361 1014 c 128,-1,20
 452 1056 452 1056 555 1056 c 0,0,1
891 520 m 1,21,22
 889 560 889 560 871.5 596 c 128,-1,23
 854 632 854 632 826 658.5 c 128,-1,24
 798 685 798 685 762.5 700.5 c 128,-1,25
 727 716 727 716 689 716 c 0,26,27
 645 716 645 716 607.5 699.5 c 128,-1,28
 570 683 570 683 542.5 655 c 128,-1,29
 515 627 515 627 499 590 c 128,-1,30
 483 553 483 553 483 512 c 0,31,32
 483 468 483 468 500 431 c 128,-1,33
 517 394 517 394 545.5 366.5 c 128,-1,34
 574 339 574 339 611 323.5 c 128,-1,35
 648 308 648 308 689 308 c 0,36,37
 729 308 729 308 765.5 324 c 128,-1,38
 802 340 802 340 829 367 c 128,-1,39
 856 394 856 394 872.5 429.5 c 128,-1,40
 889 465 889 465 891 504 c 1,41,-1
 891 520 l 1,21,22
EndSplineSet
EndChar

StartChar: r
Encoding: 114 114 88
Width: 914
GlyphClass: 2
Flags: W
LayerCount: 2
Fore
SplineSet
102 990 m 1,0,-1
 534 1056 l 1,1,-1
 534 802 l 1,2,3
 583 925 583 925 663.5 990.5 c 128,-1,4
 744 1056 744 1056 850 1056 c 1,5,-1
 912 706 l 1,6,7
 719 706 719 706 626.5 664 c 128,-1,8
 534 622 534 622 534 532 c 2,9,-1
 534 0 l 1,10,-1
 102 0 l 1,11,-1
 102 990 l 1,0,-1
EndSplineSet
EndChar

StartChar: s
Encoding: 115 115 89
Width: 947
GlyphClass: 2
Flags: W
LayerCount: 2
Fore
SplineSet
546 786 m 0,0,1
 424 786 424 786 424 744 c 0,2,3
 424 728 424 728 433 715.5 c 128,-1,4
 442 703 442 703 457 693.5 c 128,-1,5
 472 684 472 684 490 678 c 128,-1,6
 508 672 508 672 526 670 c 0,7,8
 605 658 605 658 672.5 633.5 c 128,-1,9
 740 609 740 609 789.5 568 c 128,-1,10
 839 527 839 527 867.5 467.5 c 128,-1,11
 896 408 896 408 896 326 c 0,12,13
 896 245 896 245 867.5 179 c 128,-1,14
 839 113 839 113 788 66 c 128,-1,15
 737 19 737 19 668 -6.5 c 128,-1,16
 599 -32 599 -32 518 -32 c 0,17,18
 258 -32 258 -32 80 48 c 1,19,-1
 126 284 l 1,20,21
 159 275 159 275 183.5 268.5 c 128,-1,22
 208 262 208 262 224 258 c 0,23,24
 239 255 239 255 262 250.5 c 128,-1,25
 285 246 285 246 311.5 242 c 128,-1,26
 338 238 338 238 365 235 c 128,-1,27
 392 232 392 232 414 232 c 0,28,29
 516 232 516 232 516 280 c 1,30,31
 513 300 513 300 501 314 c 128,-1,32
 489 328 489 328 469.5 338.5 c 128,-1,33
 450 349 450 349 425.5 356 c 128,-1,34
 401 363 401 363 374 368 c 0,35,36
 296 383 296 383 236.5 408 c 128,-1,37
 177 433 177 433 137 473 c 128,-1,38
 97 513 97 513 76.5 570.5 c 128,-1,39
 56 628 56 628 56 706 c 1,40,41
 60 796 60 796 94 862 c 128,-1,42
 128 928 128 928 186 971 c 128,-1,43
 244 1014 244 1014 322.5 1035 c 128,-1,44
 401 1056 401 1056 494 1056 c 0,45,46
 688 1056 688 1056 838 984 c 1,47,-1
 794 740 l 1,48,49
 641 786 641 786 546 786 c 0,0,1
EndSplineSet
EndChar

StartChar: t
Encoding: 116 116 90
Width: 890
GlyphClass: 2
Flags: W
LayerCount: 2
Fore
SplineSet
839 38 m 1,0,1
 700 -32 700 -32 531 -32 c 0,2,3
 444 -32 444 -32 376 -3.5 c 128,-1,4
 308 25 308 25 261.5 78.5 c 128,-1,5
 215 132 215 132 191 207.5 c 128,-1,6
 167 283 167 283 167 378 c 2,7,-1
 169 772 l 1,8,-1
 39 772 l 1,9,-1
 39 1026 l 1,10,-1
 201 1026 l 1,11,-1
 391 1414 l 1,12,-1
 599 1414 l 1,13,-1
 599 1026 l 1,14,-1
 835 1026 l 1,15,-1
 835 772 l 1,16,-1
 599 772 l 1,17,-1
 599 408 l 2,18,19
 599 354 599 354 634 327 c 128,-1,20
 669 300 669 300 729 300 c 0,21,22
 776 300 776 300 823 324 c 1,23,-1
 839 38 l 1,0,1
EndSplineSet
EndChar

StartChar: u
Encoding: 117 117 91
Width: 1286
GlyphClass: 2
Flags: W
LayerCount: 2
Fore
SplineSet
516 426 m 2,0,1
 516 399 516 399 526.5 376.5 c 128,-1,2
 537 354 537 354 555.5 338 c 128,-1,3
 574 322 574 322 598.5 313 c 128,-1,4
 623 304 623 304 650 304 c 0,5,6
 676 304 676 304 699 313.5 c 128,-1,7
 722 323 722 323 739 339.5 c 128,-1,8
 756 356 756 356 766 378 c 128,-1,9
 776 400 776 400 776 426 c 2,10,-1
 776 1026 l 1,11,-1
 1190 1026 l 1,12,-1
 1190 440 l 2,13,14
 1190 334 1190 334 1149 247 c 128,-1,15
 1108 160 1108 160 1035.5 98 c 128,-1,16
 963 36 963 36 864 2 c 128,-1,17
 765 -32 765 -32 648 -32 c 0,18,19
 533 -32 533 -32 432 1 c 128,-1,20
 331 34 331 34 256 95.5 c 128,-1,21
 181 157 181 157 137.5 244.5 c 128,-1,22
 94 332 94 332 94 440 c 2,23,-1
 94 1026 l 1,24,-1
 516 1026 l 1,25,-1
 516 426 l 2,0,1
EndSplineSet
EndChar

StartChar: v
Encoding: 118 118 92
Width: 1168
GlyphClass: 2
Flags: W
LayerCount: 2
Fore
SplineSet
2 1026 m 1,0,-1
 478 1026 l 1,1,-1
 640 396 l 1,2,-1
 666 536 l 1,3,-1
 788 1026 l 1,4,-1
 1164 1026 l 1,5,-1
 838 0 l 1,6,-1
 340 0 l 1,7,-1
 2 1026 l 1,0,-1
EndSplineSet
EndChar

StartChar: w
Encoding: 119 119 93
Width: 1707
GlyphClass: 2
Flags: W
LayerCount: 2
Fore
SplineSet
41 1026 m 1,0,-1
 459 1026 l 1,1,-1
 575 360 l 1,2,3
 587 410 587 410 598 460.5 c 128,-1,4
 609 511 609 511 621 566 c 128,-1,5
 633 621 633 621 645.5 683 c 128,-1,6
 658 745 658 745 673 817 c 2,7,-1
 717 1026 l 1,8,-1
 1069 1026 l 1,9,-1
 1171 544 l 1,10,-1
 1209 344 l 1,11,-1
 1249 544 l 1,12,-1
 1329 1026 l 1,13,-1
 1665 1026 l 1,14,-1
 1453 0 l 1,15,-1
 957 0 l 1,16,-1
 847 542 l 1,17,-1
 739 0 l 1,18,-1
 267 0 l 1,19,-1
 41 1026 l 1,0,-1
EndSplineSet
EndChar

StartChar: x
Encoding: 120 120 94
Width: 1136
GlyphClass: 2
Flags: W
LayerCount: 2
Fore
SplineSet
316 532 m 1,0,-1
 24 1026 l 1,1,-1
 456 1026 l 1,2,-1
 572 784 l 1,3,-1
 690 1026 l 1,4,-1
 1110 1026 l 1,5,-1
 824 532 l 1,6,-1
 1130 0 l 1,7,-1
 710 0 l 1,8,-1
 572 262 l 1,9,-1
 436 0 l 1,10,-1
 4 0 l 1,11,-1
 316 532 l 1,0,-1
EndSplineSet
EndChar

StartChar: y
Encoding: 121 121 95
Width: 1369
GlyphClass: 2
Flags: W
LayerCount: 2
Fore
SplineSet
852 170 m 1,0,1
 757 0 757 0 556 0 c 0,2,3
 464 0 464 0 381 32.5 c 128,-1,4
 298 65 298 65 235 123 c 128,-1,5
 172 181 172 181 135 260.5 c 128,-1,6
 98 340 98 340 98 434 c 2,7,-1
 98 1026 l 1,8,-1
 528 1026 l 1,9,-1
 528 454 l 2,10,11
 528 424 528 424 540.5 397.5 c 128,-1,12
 553 371 553 371 572.5 351 c 128,-1,13
 592 331 592 331 617 319.5 c 128,-1,14
 642 308 642 308 668 308 c 0,15,16
 705 308 705 308 735.5 321.5 c 128,-1,17
 766 335 766 335 787.5 358.5 c 128,-1,18
 809 382 809 382 820.5 413.5 c 128,-1,19
 832 445 832 445 832 482 c 2,20,-1
 832 1026 l 1,21,-1
 1264 1026 l 1,22,-1
 1264 260 l 2,23,24
 1264 80 1264 80 1226.5 -58 c 128,-1,25
 1189 -196 1189 -196 1116 -289.5 c 128,-1,26
 1043 -383 1043 -383 936 -431.5 c 128,-1,27
 829 -480 829 -480 690 -480 c 0,28,29
 627 -480 627 -480 512 -460 c 1,30,-1
 556 -124 l 1,31,32
 583 -131 583 -131 608 -133.5 c 128,-1,33
 633 -136 633 -136 657 -136 c 0,34,35
 715 -136 715 -136 750.5 -108.5 c 128,-1,36
 786 -81 786 -81 807 -37.5 c 128,-1,37
 828 6 828 6 837.5 60.5 c 128,-1,38
 847 115 847 115 852 170 c 1,0,1
EndSplineSet
EndChar

StartChar: z
Encoding: 122 122 96
Width: 1003
GlyphClass: 2
Flags: W
LayerCount: 2
Fore
SplineSet
63 220 m 1,0,-1
 423 764 l 1,1,-1
 77 764 l 1,2,-1
 77 1026 l 1,3,-1
 929 1026 l 1,4,-1
 929 804 l 1,5,-1
 611 262 l 1,6,-1
 939 262 l 1,7,-1
 939 0 l 1,8,-1
 63 0 l 1,9,-1
 63 220 l 1,0,-1
EndSplineSet
EndChar

StartChar: braceleft
Encoding: 123 123 97
Width: 728
GlyphClass: 2
Flags: W
LayerCount: 2
Fore
SplineSet
138 488 m 0,0,1
 138 545 138 545 103.5 575.5 c 128,-1,2
 69 606 69 606 12 612 c 1,3,-1
 12 772 l 1,4,5
 69 778 69 778 103.5 807.5 c 128,-1,6
 138 837 138 837 138 894 c 0,7,8
 138 1019 138 1019 175 1119 c 128,-1,9
 212 1219 212 1219 280 1291 c 128,-1,10
 348 1363 348 1363 444.5 1405.5 c 128,-1,11
 541 1448 541 1448 660 1458 c 1,12,-1
 660 1280 l 1,13,14
 592 1255 592 1255 563 1154.5 c 128,-1,15
 534 1054 534 1054 534 894 c 0,16,17
 534 824 534 824 492 776.5 c 128,-1,18
 450 729 450 729 378 692 c 1,19,20
 451 654 451 654 492.5 607 c 128,-1,21
 534 560 534 560 534 488 c 0,22,23
 534 323 534 323 566 225.5 c 128,-1,24
 598 128 598 128 660 104 c 1,25,-1
 660 -74 l 1,26,27
 538 -65 538 -65 441.5 -21.5 c 128,-1,28
 345 22 345 22 277.5 95 c 128,-1,29
 210 168 210 168 174 267.5 c 128,-1,30
 138 367 138 367 138 488 c 0,0,1
EndSplineSet
EndChar

StartChar: bar
Encoding: 124 124 98
Width: 434
GlyphClass: 2
Flags: W
LayerCount: 2
Fore
SplineSet
119 1408 m 1,0,-1
 315 1408 l 1,1,-1
 315 0 l 1,2,-1
 119 0 l 1,3,-1
 119 1408 l 1,0,-1
EndSplineSet
EndChar

StartChar: braceright
Encoding: 125 125 99
Width: 728
GlyphClass: 2
Flags: W
LayerCount: 2
Fore
SplineSet
716 612 m 1,0,1
 659 606 659 606 624.5 575.5 c 128,-1,2
 590 545 590 545 590 488 c 0,3,4
 590 363 590 363 553.5 263.5 c 128,-1,5
 517 164 517 164 449 92 c 128,-1,6
 381 20 381 20 284.5 -22 c 128,-1,7
 188 -64 188 -64 68 -74 c 1,8,-1
 68 104 l 1,9,10
 135 129 135 129 164.5 229 c 128,-1,11
 194 329 194 329 194 488 c 0,12,13
 194 560 194 560 235.5 607 c 128,-1,14
 277 654 277 654 350 692 c 1,15,16
 278 729 278 729 236 776.5 c 128,-1,17
 194 824 194 824 194 894 c 0,18,19
 194 1061 194 1061 162 1158.5 c 128,-1,20
 130 1256 130 1256 68 1280 c 1,21,-1
 68 1458 l 1,22,23
 191 1448 191 1448 287.5 1404.5 c 128,-1,24
 384 1361 384 1361 451.5 1288 c 128,-1,25
 519 1215 519 1215 554.5 1115.5 c 128,-1,26
 590 1016 590 1016 590 894 c 0,27,28
 590 837 590 837 624.5 807.5 c 128,-1,29
 659 778 659 778 716 772 c 1,30,-1
 716 612 l 1,0,1
EndSplineSet
EndChar

StartChar: asciitilde
Encoding: 126 126 100
Width: 1188
GlyphClass: 2
Flags: W
LayerCount: 2
Fore
SplineSet
390 710 m 0,0,1
 368 710 368 710 352 701 c 128,-1,2
 336 692 336 692 323.5 677.5 c 128,-1,3
 311 663 311 663 302 644 c 128,-1,4
 293 625 293 625 284 604 c 1,5,-1
 42 702 l 1,6,7
 71 786 71 786 109.5 852 c 128,-1,8
 148 918 148 918 193.5 963 c 128,-1,9
 239 1008 239 1008 289.5 1032 c 128,-1,10
 340 1056 340 1056 392 1056 c 0,11,12
 440 1056 440 1056 486.5 1045 c 128,-1,13
 533 1034 533 1034 564 1023 c 1,14,15
 620 1001 620 1001 655.5 986 c 128,-1,16
 691 971 691 971 716.5 961.5 c 128,-1,17
 742 952 742 952 763.5 948 c 128,-1,18
 785 944 785 944 814 944 c 0,19,20
 856 944 856 944 879 969 c 128,-1,21
 902 994 902 994 918 1036 c 1,22,-1
 1156 938 l 1,23,24
 1099 768 1099 768 1016.5 683 c 128,-1,25
 934 598 934 598 822 598 c 0,26,27
 786 598 786 598 755 602 c 128,-1,28
 724 606 724 606 696 612.5 c 128,-1,29
 668 619 668 619 641 628.5 c 128,-1,30
 614 638 614 638 586 649 c 2,31,-1
 486 692 l 2,32,33
 442 710 442 710 390 710 c 0,0,1
EndSplineSet
EndChar

StartChar: cent
Encoding: 162 162 103
Width: 1008
GlyphClass: 2
Flags: W
LayerCount: 2
Fore
SplineSet
918 50 m 1,0,1
 887 36 887 36 847.5 20.5 c 128,-1,2
 808 5 808 5 758 -12 c 1,3,-1
 758 -186 l 1,4,-1
 624 -186 l 1,5,-1
 624 -32 l 1,6,-1
 606 -32 l 2,7,8
 486 -32 486 -32 384.5 8.5 c 128,-1,9
 283 49 283 49 209 121 c 128,-1,10
 135 193 135 193 93.5 293 c 128,-1,11
 52 393 52 393 52 512 c 0,12,13
 52 630 52 630 94.5 730 c 128,-1,14
 137 830 137 830 211.5 902.5 c 128,-1,15
 286 975 286 975 387 1015.5 c 128,-1,16
 488 1056 488 1056 606 1056 c 2,17,-1
 624 1056 l 1,18,-1
 624 1190 l 1,19,-1
 758 1190 l 1,20,-1
 758 1034 l 1,21,22
 849 1003 849 1003 922 958 c 1,23,-1
 880 686 l 1,24,25
 845 697 845 697 814.5 703.5 c 128,-1,26
 784 710 784 710 758 714 c 1,27,-1
 758 308 l 1,28,29
 816 314 816 314 876 336 c 1,30,-1
 918 50 l 1,0,1
624 714 m 1,31,32
 558 698 558 698 518 644 c 128,-1,33
 478 590 478 590 478 512 c 0,34,35
 478 473 478 473 489 439 c 128,-1,36
 500 405 500 405 519.5 378.5 c 128,-1,37
 539 352 539 352 566 334.5 c 128,-1,38
 593 317 593 317 624 310 c 1,39,-1
 624 714 l 1,31,32
EndSplineSet
EndChar

StartChar: sterling
Encoding: 163 163 104
Width: 1074
GlyphClass: 2
Flags: W
LayerCount: 2
Fore
SplineSet
771 1132 m 0,0,1
 711 1132 711 1132 677.5 1102.5 c 128,-1,2
 644 1073 644 1073 644 1016 c 2,3,-1
 644 790 l 1,4,-1
 900 790 l 1,5,-1
 900 616 l 1,6,-1
 644 616 l 1,7,-1
 644 300 l 1,8,-1
 988 300 l 1,9,-1
 988 0 l 1,10,-1
 74 0 l 1,11,-1
 74 128 l 1,12,13
 137 132 137 132 170.5 178 c 128,-1,14
 204 224 204 224 204 300 c 2,15,-1
 204 616 l 1,16,-1
 74 616 l 1,17,-1
 74 790 l 1,18,-1
 204 790 l 1,19,-1
 204 894 l 2,20,21
 204 1024 204 1024 225 1125.5 c 128,-1,22
 246 1227 246 1227 297.5 1297 c 128,-1,23
 349 1367 349 1367 434.5 1403.5 c 128,-1,24
 520 1440 520 1440 649 1440 c 0,25,26
 817 1440 817 1440 1003 1362 c 1,27,-1
 969 1084 l 1,28,29
 852 1132 852 1132 771 1132 c 0,0,1
EndSplineSet
EndChar

StartChar: currency
Encoding: 164 164 105
Width: 1145
GlyphClass: 2
Flags: W
LayerCount: 2
Fore
SplineSet
219 378 m 1,0,1
 121 490 121 490 121 644 c 0,2,3
 121 720 121 720 145 786 c 128,-1,4
 169 852 169 852 215 906 c 1,5,-1
 74 1047 l 1,6,-1
 166 1138 l 1,7,-1
 315 989 l 1,8,9
 428 1056 428 1056 568 1056 c 0,10,11
 707 1056 707 1056 826 985 c 1,12,-1
 979 1138 l 1,13,-1
 1071 1047 l 1,14,-1
 926 902 l 1,15,16
 1020 796 1020 796 1020 644 c 256,17,18
 1020 492 1020 492 922 382 c 1,19,-1
 1071 233 l 1,20,-1
 980 141 l 1,21,-1
 819 301 l 1,22,23
 706 237 706 237 566 237 c 0,24,25
 428 237 428 237 322 298 c 1,26,-1
 165 141 l 1,27,-1
 74 233 l 1,28,-1
 219 378 l 1,0,1
446 518 m 0,29,30
 493 471 493 471 569 471 c 0,31,32
 607 471 607 471 638 484 c 128,-1,33
 669 497 669 497 691.5 520 c 128,-1,34
 714 543 714 543 726 574.5 c 128,-1,35
 738 606 738 606 738 644 c 256,36,37
 738 682 738 682 726 713.5 c 128,-1,38
 714 745 714 745 692 768 c 128,-1,39
 670 791 670 791 639 804 c 128,-1,40
 608 817 608 817 570 817 c 256,41,42
 532 817 532 817 501 804.5 c 128,-1,43
 470 792 470 792 447.5 769.5 c 128,-1,44
 425 747 425 747 412.5 715 c 128,-1,45
 400 683 400 683 400 644 c 0,46,47
 400 565 400 565 446 518 c 0,29,30
EndSplineSet
EndChar

StartChar: yen
Encoding: 165 165 106
Width: 1172
GlyphClass: 2
Flags: W
LayerCount: 2
Fore
SplineSet
158 298 m 1,0,-1
 466 298 l 1,1,-1
 466 388 l 1,2,-1
 158 388 l 1,3,-1
 158 516 l 1,4,-1
 414 516 l 1,5,-1
 48 1376 l 1,6,-1
 316 1376 l 1,7,-1
 586 632 l 1,8,-1
 852 1376 l 1,9,-1
 1120 1376 l 1,10,-1
 756 516 l 1,11,-1
 1028 516 l 1,12,-1
 1028 388 l 1,13,-1
 702 388 l 1,14,-1
 702 298 l 1,15,-1
 1028 298 l 1,16,-1
 1028 176 l 1,17,-1
 702 176 l 1,18,-1
 702 0 l 1,19,-1
 466 0 l 1,20,-1
 466 176 l 1,21,-1
 158 176 l 1,22,-1
 158 298 l 1,0,-1
EndSplineSet
EndChar

StartChar: brokenbar
Encoding: 166 166 107
Width: 438
GlyphClass: 2
Flags: W
LayerCount: 2
Fore
SplineSet
121 552 m 1,0,-1
 317 552 l 1,1,-1
 317 0 l 1,2,-1
 121 0 l 1,3,-1
 121 552 l 1,0,-1
121 1408 m 1,4,-1
 317 1408 l 1,5,-1
 317 856 l 1,6,-1
 121 856 l 1,7,-1
 121 1408 l 1,4,-1
EndSplineSet
EndChar

StartChar: section
Encoding: 167 167 108
Width: 1091
GlyphClass: 2
Flags: W
LayerCount: 2
Fore
SplineSet
883 516 m 1,0,1
 1007 435 1007 435 1007 282 c 0,2,3
 1007 220 1007 220 986 172 c 128,-1,4
 965 124 965 124 930 89.5 c 128,-1,5
 895 55 895 55 848 31.5 c 128,-1,6
 801 8 801 8 748.5 -6 c 128,-1,7
 696 -20 696 -20 641.5 -26 c 128,-1,8
 587 -32 587 -32 537 -32 c 0,9,10
 317 -32 317 -32 111 44 c 1,11,-1
 155 292 l 1,12,13
 189 281 189 281 230 270.5 c 128,-1,14
 271 260 271 260 315.5 251.5 c 128,-1,15
 360 243 360 243 405.5 237.5 c 128,-1,16
 451 232 451 232 495 232 c 0,17,18
 589 232 589 232 589 278 c 0,19,20
 589 290 589 290 582 298.5 c 128,-1,21
 575 307 575 307 557.5 315.5 c 128,-1,22
 540 324 540 324 509.5 334.5 c 128,-1,23
 479 345 479 345 433 362 c 2,24,-1
 352 391 l 2,25,26
 319 403 319 403 273.5 423.5 c 128,-1,27
 228 444 228 444 186 477.5 c 128,-1,28
 144 511 144 511 114.5 558 c 128,-1,29
 85 605 85 605 85 670 c 0,30,31
 85 826 85 826 209 916 c 1,32,33
 85 995 85 995 85 1152 c 1,34,35
 89 1234 89 1234 129.5 1289.5 c 128,-1,36
 170 1345 170 1345 234 1378.5 c 128,-1,37
 298 1412 298 1412 379.5 1426 c 128,-1,38
 461 1440 461 1440 547 1440 c 0,39,40
 785 1440 785 1440 949 1364 c 1,41,-1
 905 1136 l 1,42,43
 885 1143 885 1143 851.5 1151.5 c 128,-1,44
 818 1160 818 1160 776 1167 c 128,-1,45
 734 1174 734 1174 685.5 1179 c 128,-1,46
 637 1184 637 1184 587 1184 c 0,47,48
 491 1184 491 1184 491 1144 c 0,49,50
 491 1134 491 1134 501 1124.5 c 128,-1,51
 511 1115 511 1115 529 1105.5 c 128,-1,52
 547 1096 547 1096 571 1087 c 128,-1,53
 595 1078 595 1078 623 1068 c 0,54,55
 661 1054 661 1054 704.5 1038.5 c 128,-1,56
 748 1023 748 1023 791 1004 c 128,-1,57
 834 985 834 985 874 962 c 128,-1,58
 914 939 914 939 944.5 910 c 128,-1,59
 975 881 975 881 993 844.5 c 128,-1,60
 1011 808 1011 808 1011 764 c 0,61,62
 1011 679 1011 679 977 616 c 128,-1,63
 943 553 943 553 883 516 c 1,0,1
491 804 m 1,64,65
 451 801 451 801 427 777.5 c 128,-1,66
 403 754 403 754 403 712 c 0,67,68
 403 700 403 700 415.5 686 c 128,-1,69
 428 672 428 672 450.5 657.5 c 128,-1,70
 473 643 473 643 505 629.5 c 128,-1,71
 537 616 537 616 575 606 c 1,72,73
 621 606 621 606 649 629 c 128,-1,74
 677 652 677 652 677 694 c 0,75,76
 677 726 677 726 628.5 752.5 c 128,-1,77
 580 779 580 779 491 804 c 1,64,65
EndSplineSet
EndChar

StartChar: dieresis
Encoding: 168 168 109
Width: 1246
GlyphClass: 2
Flags: W
LayerCount: 2
Fore
SplineSet
702 1328 m 0,0,1
 702 1374 702 1374 722 1412 c 128,-1,2
 742 1450 742 1450 774.5 1477.5 c 128,-1,3
 807 1505 807 1505 848.5 1520.5 c 128,-1,4
 890 1536 890 1536 934 1536 c 0,5,6
 986 1536 986 1536 1028 1517.5 c 128,-1,7
 1070 1499 1070 1499 1100 1469 c 128,-1,8
 1130 1439 1130 1439 1146 1402 c 128,-1,9
 1162 1365 1162 1365 1162 1328 c 0,10,11
 1162 1283 1162 1283 1143 1245 c 128,-1,12
 1124 1207 1124 1207 1092.5 1180 c 128,-1,13
 1061 1153 1061 1153 1019.5 1137.5 c 128,-1,14
 978 1122 978 1122 934 1122 c 0,15,16
 882 1122 882 1122 839.5 1139 c 128,-1,17
 797 1156 797 1156 766.5 1184.5 c 128,-1,18
 736 1213 736 1213 719 1250.5 c 128,-1,19
 702 1288 702 1288 702 1328 c 0,0,1
84 1328 m 256,20,21
 84 1372 84 1372 103 1410 c 128,-1,22
 122 1448 122 1448 154 1476 c 128,-1,23
 186 1504 186 1504 227.5 1520 c 128,-1,24
 269 1536 269 1536 314 1536 c 0,25,26
 362 1536 362 1536 403.5 1519 c 128,-1,27
 445 1502 445 1502 476.5 1473 c 128,-1,28
 508 1444 508 1444 526 1406.5 c 128,-1,29
 544 1369 544 1369 544 1328 c 0,30,31
 544 1282 544 1282 524.5 1244 c 128,-1,32
 505 1206 505 1206 473 1179 c 128,-1,33
 441 1152 441 1152 399.5 1137 c 128,-1,34
 358 1122 358 1122 314 1122 c 0,35,36
 266 1122 266 1122 224.5 1138 c 128,-1,37
 183 1154 183 1154 151.5 1181.5 c 128,-1,38
 120 1209 120 1209 102 1246.5 c 128,-1,39
 84 1284 84 1284 84 1328 c 256,20,21
EndSplineSet
EndChar

StartChar: copyright
Encoding: 169 169 110
Width: 1426
GlyphClass: 2
Flags: W
LayerCount: 2
Fore
SplineSet
711 90 m 0,0,1
 814 90 814 90 905.5 131.5 c 128,-1,2
 997 173 997 173 1065.5 244 c 128,-1,3
 1134 315 1134 315 1173.5 410 c 128,-1,4
 1213 505 1213 505 1213 612 c 0,5,6
 1213 728 1213 728 1170.5 824 c 128,-1,7
 1128 920 1128 920 1057.5 989 c 128,-1,8
 987 1058 987 1058 897 1096 c 128,-1,9
 807 1134 807 1134 711 1134 c 0,10,11
 606 1134 606 1134 514.5 1093 c 128,-1,12
 423 1052 423 1052 355 981.5 c 128,-1,13
 287 911 287 911 248 815.5 c 128,-1,14
 209 720 209 720 209 612 c 0,15,16
 209 503 209 503 248 407.5 c 128,-1,17
 287 312 287 312 355 241.5 c 128,-1,18
 423 171 423 171 514.5 130.5 c 128,-1,19
 606 90 606 90 711 90 c 0,0,1
711 -32 m 256,20,21
 444 -32 444 -32 257 160 c 0,22,23
 71 350 71 350 71 619 c 0,24,25
 71 758 71 758 123 871 c 128,-1,26
 175 984 175 984 262 1068 c 0,27,28
 301 1106 301 1106 349.5 1139.5 c 128,-1,29
 398 1173 398 1173 455.5 1198 c 128,-1,30
 513 1223 513 1223 579 1237.5 c 128,-1,31
 645 1252 645 1252 718 1252 c 0,32,33
 978 1252 978 1252 1168 1062 c 0,34,35
 1355 875 1355 875 1355 612 c 0,36,37
 1355 347 1355 347 1166 157 c 0,38,39
 978 -32 978 -32 711 -32 c 256,20,21
505 610 m 256,40,41
 505 492 505 492 568.5 426 c 128,-1,42
 632 360 632 360 749 360 c 0,43,44
 831 360 831 360 939 402 c 1,45,-1
 959 282 l 1,46,47
 856 230 856 230 735 230 c 1,48,49
 646 231 646 231 574.5 258 c 128,-1,50
 503 285 503 285 452 334.5 c 128,-1,51
 401 384 401 384 372.5 453.5 c 128,-1,52
 344 523 344 523 343 610 c 1,53,54
 343 698 343 698 375 768.5 c 128,-1,55
 407 839 407 839 460 888 c 128,-1,56
 513 937 513 937 583 963.5 c 128,-1,57
 653 990 653 990 729 990 c 0,58,59
 860 990 860 990 961 928 c 1,60,-1
 943 814 l 1,61,62
 848 862 848 862 751 862 c 0,63,64
 634 862 634 862 569.5 795 c 128,-1,65
 505 728 505 728 505 610 c 256,40,41
EndSplineSet
EndChar

StartChar: guillemotleft
Encoding: 171 171 112
Width: 1109
GlyphClass: 2
Flags: W
LayerCount: 2
Fore
SplineSet
585 810 m 1,0,-1
 1015 1116 l 1,1,-1
 1015 744 l 1,2,-1
 817 626 l 1,3,-1
 1015 502 l 1,4,-1
 1015 128 l 1,5,-1
 585 442 l 1,6,-1
 585 810 l 1,0,-1
53 810 m 1,7,-1
 483 1116 l 1,8,-1
 483 744 l 1,9,-1
 287 626 l 1,10,-1
 483 502 l 1,11,-1
 483 128 l 1,12,-1
 53 442 l 1,13,-1
 53 810 l 1,7,-1
EndSplineSet
EndChar

StartChar: logicalnot
Encoding: 172 172 113
Width: 1094
GlyphClass: 2
Flags: W
LayerCount: 2
Fore
SplineSet
982 852 m 1,0,-1
 982 174 l 1,1,-1
 762 174 l 1,2,-1
 762 530 l 1,3,-1
 80 530 l 1,4,-1
 80 852 l 1,5,-1
 982 852 l 1,0,-1
EndSplineSet
EndChar

StartChar: registered
Encoding: 174 174 114
Width: 1426
GlyphClass: 2
Flags: W
LayerCount: 2
Fore
SplineSet
832 565 m 1,0,1
 841 524 841 524 851 486 c 128,-1,2
 861 448 861 448 879.5 418.5 c 128,-1,3
 898 389 898 389 929 371 c 128,-1,4
 960 353 960 353 1012 353 c 0,5,6
 1024 353 1024 353 1037 358 c 1,7,-1
 1011 256 l 1,8,9
 950 257 950 257 906.5 269.5 c 128,-1,10
 863 282 863 282 833 306.5 c 128,-1,11
 803 331 803 331 784 367.5 c 128,-1,12
 765 404 765 404 752 453 c 2,13,-1
 715 596 l 1,14,-1
 583 596 l 1,15,-1
 583 272 l 1,16,-1
 467 272 l 1,17,-1
 467 994 l 1,18,-1
 723 994 l 2,19,20
 1003 994 1003 994 1003 796 c 0,21,22
 1003 624 1003 624 825 602 c 1,23,-1
 832 565 l 1,0,1
877 796 m 0,24,25
 877 827 877 827 867 847 c 128,-1,26
 857 867 857 867 837 878.5 c 128,-1,27
 817 890 817 890 786 894 c 128,-1,28
 755 898 755 898 713 898 c 2,29,-1
 583 898 l 1,30,-1
 583 690 l 1,31,-1
 741 690 l 1,32,33
 774 692 774 692 799.5 695.5 c 128,-1,34
 825 699 825 699 842.5 710 c 128,-1,35
 860 721 860 721 868.5 741 c 128,-1,36
 877 761 877 761 877 796 c 0,24,25
711 90 m 0,37,38
 814 90 814 90 905.5 131.5 c 128,-1,39
 997 173 997 173 1065.5 244 c 128,-1,40
 1134 315 1134 315 1173.5 410 c 128,-1,41
 1213 505 1213 505 1213 612 c 0,42,43
 1213 728 1213 728 1170.5 824 c 128,-1,44
 1128 920 1128 920 1057.5 989 c 128,-1,45
 987 1058 987 1058 897 1096 c 128,-1,46
 807 1134 807 1134 711 1134 c 0,47,48
 606 1134 606 1134 514.5 1093 c 128,-1,49
 423 1052 423 1052 355 981.5 c 128,-1,50
 287 911 287 911 248 815.5 c 128,-1,51
 209 720 209 720 209 612 c 0,52,53
 209 503 209 503 248 407.5 c 128,-1,54
 287 312 287 312 355 241.5 c 128,-1,55
 423 171 423 171 514.5 130.5 c 128,-1,56
 606 90 606 90 711 90 c 0,37,38
711 -32 m 256,57,58
 444 -32 444 -32 257 160 c 0,59,60
 71 350 71 350 71 619 c 0,61,62
 71 758 71 758 123 871 c 128,-1,63
 175 984 175 984 262 1068 c 0,64,65
 301 1106 301 1106 349.5 1139.5 c 128,-1,66
 398 1173 398 1173 455.5 1198 c 128,-1,67
 513 1223 513 1223 579 1237.5 c 128,-1,68
 645 1252 645 1252 718 1252 c 0,69,70
 978 1252 978 1252 1168 1062 c 0,71,72
 1355 875 1355 875 1355 612 c 0,73,74
 1355 347 1355 347 1166 157 c 0,75,76
 978 -32 978 -32 711 -32 c 256,57,58
EndSplineSet
EndChar

StartChar: degree
Encoding: 176 176 116
Width: 1278
GlyphClass: 2
Flags: W
LayerCount: 2
Fore
SplineSet
909 878 m 0,0,1
 909 945 909 945 888 998.5 c 128,-1,2
 867 1052 867 1052 830.5 1089.5 c 128,-1,3
 794 1127 794 1127 745 1146.5 c 128,-1,4
 696 1166 696 1166 641 1166 c 0,5,6
 579 1166 579 1166 529.5 1144 c 128,-1,7
 480 1122 480 1122 445 1083.5 c 128,-1,8
 410 1045 410 1045 391 992.5 c 128,-1,9
 372 940 372 940 372 878 c 0,10,11
 372 813 372 813 392 760 c 128,-1,12
 412 707 412 707 447.5 669 c 128,-1,13
 483 631 483 631 532.5 610 c 128,-1,14
 582 589 582 589 641 589 c 0,15,16
 701 589 701 589 750.5 610.5 c 128,-1,17
 800 632 800 632 835.5 670 c 128,-1,18
 871 708 871 708 890 761.5 c 128,-1,19
 909 815 909 815 909 878 c 0,0,1
662 1421 m 2,20,21
 786 1421 786 1421 887 1380.5 c 128,-1,22
 988 1340 988 1340 1059 1268.5 c 128,-1,23
 1130 1197 1130 1197 1169 1098.5 c 128,-1,24
 1208 1000 1208 1000 1208 884 c 0,25,26
 1208 764 1208 764 1167 662.5 c 128,-1,27
 1126 561 1126 561 1051.5 487.5 c 128,-1,28
 977 414 977 414 872 372.5 c 128,-1,29
 767 331 767 331 639 331 c 0,30,31
 519 331 519 331 415 369.5 c 128,-1,32
 311 408 311 408 234 479 c 128,-1,33
 157 550 157 550 113 650.5 c 128,-1,34
 69 751 69 751 69 876 c 0,35,36
 69 996 69 996 110.5 1096.5 c 128,-1,37
 152 1197 152 1197 227.5 1269 c 128,-1,38
 303 1341 303 1341 408 1381 c 128,-1,39
 513 1421 513 1421 641 1421 c 2,40,-1
 662 1421 l 2,20,21
EndSplineSet
EndChar

StartChar: plusminus
Encoding: 177 177 117
Width: 1140
GlyphClass: 2
Flags: W
LayerCount: 2
Fore
SplineSet
512 644 m 1,0,-1
 72 644 l 1,1,-1
 72 760 l 1,2,-1
 512 760 l 1,3,-1
 512 1212 l 1,4,-1
 632 1212 l 1,5,-1
 632 760 l 1,6,-1
 1068 760 l 1,7,-1
 1068 644 l 1,8,-1
 632 644 l 1,9,-1
 632 186 l 1,10,-1
 512 186 l 1,11,-1
 512 644 l 1,0,-1
72 114 m 1,12,-1
 1068 114 l 1,13,-1
 1068 0 l 1,14,-1
 72 0 l 1,15,-1
 72 114 l 1,12,-1
EndSplineSet
EndChar

StartChar: twosuperior
Encoding: 178 178 118
Width: 666
GlyphClass: 2
Flags: W
LayerCount: 2
Fore
SplineSet
70 1376 m 1,0,1
 217 1440 217 1440 348 1440 c 0,2,3
 404 1440 404 1440 448.5 1422 c 128,-1,4
 493 1404 493 1404 524.5 1371.5 c 128,-1,5
 556 1339 556 1339 573 1293 c 128,-1,6
 590 1247 590 1247 590 1192 c 0,7,8
 590 1100 590 1100 522.5 1014.5 c 128,-1,9
 455 929 455 929 328 856 c 1,10,-1
 568 856 l 1,11,-1
 568 686 l 1,12,-1
 84 686 l 1,13,-1
 84 848 l 1,14,15
 218 973 218 973 284 1059.5 c 128,-1,16
 350 1146 350 1146 350 1190 c 0,17,18
 350 1246 350 1246 268 1246 c 0,19,20
 220 1246 220 1246 130 1202 c 1,21,-1
 70 1376 l 1,0,1
EndSplineSet
EndChar

StartChar: threesuperior
Encoding: 179 179 119
Width: 644
GlyphClass: 2
Flags: W
LayerCount: 2
Fore
SplineSet
444 1076 m 1,0,1
 584 1014 584 1014 584 872 c 0,2,3
 584 819 584 819 563 778.5 c 128,-1,4
 542 738 542 738 504.5 711 c 128,-1,5
 467 684 467 684 416.5 670 c 128,-1,6
 366 656 366 656 308 656 c 0,7,8
 212 656 212 656 68 704 c 1,9,-1
 106 868 l 1,10,11
 214 832 214 832 278 832 c 0,12,13
 314 832 314 832 338 844.5 c 128,-1,14
 362 857 362 857 362 884 c 0,15,16
 362 990 362 990 160 990 c 1,17,-1
 160 1128 l 1,18,19
 202 1128 202 1128 238 1131.5 c 128,-1,20
 274 1135 274 1135 300.5 1144.5 c 128,-1,21
 327 1154 327 1154 341.5 1170 c 128,-1,22
 356 1186 356 1186 356 1210 c 0,23,24
 356 1233 356 1233 339 1244.5 c 128,-1,25
 322 1256 322 1256 296 1256 c 0,26,27
 221 1256 221 1256 106 1222 c 1,28,-1
 68 1380 l 1,29,30
 200 1440 200 1440 320 1440 c 0,31,32
 366 1440 366 1440 408 1426.5 c 128,-1,33
 450 1413 450 1413 481.5 1389 c 128,-1,34
 513 1365 513 1365 531.5 1331.5 c 128,-1,35
 550 1298 550 1298 550 1258 c 0,36,37
 550 1146 550 1146 444 1076 c 1,0,1
EndSplineSet
EndChar

StartChar: acute
Encoding: 180 180 120
Width: 818
GlyphClass: 2
Flags: W
LayerCount: 2
Fore
SplineSet
4 1370 m 1,0,-1
 604 1790 l 1,1,-1
 812 1424 l 1,2,-1
 130 1150 l 1,3,-1
 4 1370 l 1,0,-1
EndSplineSet
EndChar

StartChar: paragraph
Encoding: 182 182 121
Width: 1138
GlyphClass: 2
Flags: W
LayerCount: 2
Fore
SplineSet
529 728 m 1,0,-1
 443 728 l 2,1,2
 357 728 357 728 284.5 753 c 128,-1,3
 212 778 212 778 159.5 823 c 128,-1,4
 107 868 107 868 77 930.5 c 128,-1,5
 47 993 47 993 47 1068 c 0,6,7
 47 1142 47 1142 81 1204.5 c 128,-1,8
 115 1267 115 1267 178 1312 c 128,-1,9
 241 1357 241 1357 330 1382.5 c 128,-1,10
 419 1408 419 1408 529 1408 c 2,11,-1
 987 1408 l 1,12,-1
 987 0 l 1,13,-1
 823 0 l 1,14,-1
 823 1254 l 1,15,-1
 695 1254 l 1,16,-1
 695 0 l 1,17,-1
 529 0 l 1,18,-1
 529 728 l 1,0,-1
EndSplineSet
EndChar

StartChar: periodcentered
Encoding: 183 183 122
Width: 630
GlyphClass: 2
Flags: W
LayerCount: 2
Fore
SplineSet
86 820 m 256,0,1
 86 864 86 864 105 902 c 128,-1,2
 124 940 124 940 156 968 c 128,-1,3
 188 996 188 996 229.5 1012 c 128,-1,4
 271 1028 271 1028 316 1028 c 0,5,6
 364 1028 364 1028 405.5 1011 c 128,-1,7
 447 994 447 994 478.5 965 c 128,-1,8
 510 936 510 936 528 898.5 c 128,-1,9
 546 861 546 861 546 820 c 0,10,11
 546 774 546 774 526.5 736 c 128,-1,12
 507 698 507 698 475 671 c 128,-1,13
 443 644 443 644 401.5 629 c 128,-1,14
 360 614 360 614 316 614 c 0,15,16
 268 614 268 614 226.5 630 c 128,-1,17
 185 646 185 646 153.5 673.5 c 128,-1,18
 122 701 122 701 104 738.5 c 128,-1,19
 86 776 86 776 86 820 c 256,0,1
EndSplineSet
EndChar

StartChar: cedilla
Encoding: 184 184 123
Width: 560
GlyphClass: 2
Flags: W
LayerCount: 2
Fore
SplineSet
290 -274 m 0,0,1
 290 -226 290 -226 258 -203 c 128,-1,2
 226 -180 226 -180 172 -180 c 2,3,-1
 168 -180 l 1,4,-1
 228 0 l 1,5,-1
 342 0 l 1,6,-1
 302 -116 l 1,7,8
 402 -127 402 -127 458 -167.5 c 128,-1,9
 514 -208 514 -208 514 -276 c 0,10,11
 514 -338 514 -338 483 -382 c 128,-1,12
 452 -426 452 -426 407 -454 c 128,-1,13
 362 -482 362 -482 310.5 -495 c 128,-1,14
 259 -508 259 -508 218 -508 c 0,15,16
 128 -508 128 -508 38 -464 c 1,17,-1
 66 -388 l 1,18,19
 117 -402 117 -402 158 -402 c 0,20,21
 290 -402 290 -402 290 -274 c 0,0,1
EndSplineSet
EndChar

StartChar: onesuperior
Encoding: 185 185 124
Width: 560
GlyphClass: 2
Flags: W
LayerCount: 2
Fore
SplineSet
86 1338 m 1,0,1
 200 1338 200 1338 294 1408 c 1,2,-1
 408 1408 l 1,3,-1
 408 842 l 1,4,-1
 498 842 l 1,5,-1
 498 682 l 1,6,-1
 86 682 l 1,7,-1
 86 842 l 1,8,-1
 176 842 l 1,9,-1
 176 1204 l 1,10,-1
 86 1196 l 1,11,-1
 86 1338 l 1,0,1
EndSplineSet
EndChar

StartChar: guillemotright
Encoding: 187 187 126
Width: 1107
GlyphClass: 2
Flags: W
LayerCount: 2
Fore
SplineSet
624 502 m 1,0,-1
 820 626 l 1,1,-1
 624 744 l 1,2,-1
 624 1116 l 1,3,-1
 1054 810 l 1,4,-1
 1054 442 l 1,5,-1
 624 128 l 1,6,-1
 624 502 l 1,0,-1
94 502 m 1,7,-1
 290 626 l 1,8,-1
 94 744 l 1,9,-1
 94 1116 l 1,10,-1
 524 810 l 1,11,-1
 524 442 l 1,12,-1
 94 128 l 1,13,-1
 94 502 l 1,7,-1
EndSplineSet
EndChar

StartChar: questiondown
Encoding: 191 191 130
Width: 1036
GlyphClass: 2
Flags: W
LayerCount: 2
Fore
SplineSet
501 382 m 0,0,1
 501 316 501 316 663 316 c 0,2,3
 821 316 821 316 929 370 c 1,4,-1
 957 58 l 1,5,6
 738 -32 738 -32 545 -32 c 0,7,8
 441 -32 441 -32 351 -6 c 128,-1,9
 261 20 261 20 193.5 69.5 c 128,-1,10
 126 119 126 119 87.5 189.5 c 128,-1,11
 49 260 49 260 49 350 c 0,12,13
 49 412 49 412 67 460.5 c 128,-1,14
 85 509 85 509 115 546 c 128,-1,15
 145 583 145 583 183.5 610 c 128,-1,16
 222 637 222 637 263 657 c 0,17,18
 345 697 345 697 394 719 c 128,-1,19
 443 741 443 741 468.5 759.5 c 128,-1,20
 494 778 494 778 501.5 800 c 128,-1,21
 509 822 509 822 509 862 c 2,22,-1
 509 888 l 1,23,-1
 795 888 l 1,24,-1
 818 810 l 2,25,26
 823 795 823 795 827.5 772 c 128,-1,27
 832 749 832 749 831 728 c 0,28,29
 830 690 830 690 822 660 c 128,-1,30
 814 630 814 630 799.5 606.5 c 128,-1,31
 785 583 785 583 765.5 564 c 128,-1,32
 746 545 746 545 722 529 c 0,33,34
 693 510 693 510 655 491.5 c 128,-1,35
 617 473 617 473 582.5 455 c 128,-1,36
 548 437 548 437 524.5 418.5 c 128,-1,37
 501 400 501 400 501 382 c 0,0,1
887 1232 m 0,38,39
 887 1187 887 1187 867 1149 c 128,-1,40
 847 1111 847 1111 814.5 1083.5 c 128,-1,41
 782 1056 782 1056 740.5 1041 c 128,-1,42
 699 1026 699 1026 655 1026 c 0,43,44
 608 1026 608 1026 566.5 1042.5 c 128,-1,45
 525 1059 525 1059 493.5 1087.5 c 128,-1,46
 462 1116 462 1116 443.5 1153 c 128,-1,47
 425 1190 425 1190 425 1232 c 0,48,49
 425 1277 425 1277 444 1315.5 c 128,-1,50
 463 1354 463 1354 495 1381.5 c 128,-1,51
 527 1409 527 1409 568.5 1424.5 c 128,-1,52
 610 1440 610 1440 655 1440 c 0,53,54
 703 1440 703 1440 745 1423.5 c 128,-1,55
 787 1407 787 1407 818.5 1378.5 c 128,-1,56
 850 1350 850 1350 868.5 1312.5 c 128,-1,57
 887 1275 887 1275 887 1232 c 0,38,39
EndSplineSet
EndChar

StartChar: AE
Encoding: 198 198 137
Width: 1914
GlyphClass: 2
Flags: W
LayerCount: 2
Fore
SplineSet
476 1408 m 1,0,-1
 1652 1408 l 1,1,-1
 1708 1098 l 1,2,-1
 1143 1098 l 1,3,-1
 1192 842 l 1,4,-1
 1702 842 l 1,5,-1
 1752 584 l 1,6,-1
 1254 584 l 1,7,-1
 1314 308 l 1,8,-1
 1842 308 l 1,9,-1
 1898 0 l 1,10,-1
 918 0 l 1,11,-1
 872 270 l 1,12,-1
 526 270 l 1,13,-1
 442 0 l 1,14,-1
 -6 0 l 1,15,-1
 476 1408 l 1,0,-1
824 522 m 1,16,-1
 740 1036 l 1,17,-1
 602 522 l 1,18,-1
 824 522 l 1,16,-1
EndSplineSet
EndChar

StartChar: Eth
Encoding: 208 208 147
Width: 1618
GlyphClass: 2
Flags: W
LayerCount: 2
Fore
SplineSet
3 618 m 1,0,-1
 3 792 l 1,1,-1
 187 792 l 1,2,-1
 187 1376 l 1,3,-1
 799 1376 l 2,4,5
 966 1376 966 1376 1105 1325 c 128,-1,6
 1244 1274 1244 1274 1343.5 1184 c 128,-1,7
 1443 1094 1443 1094 1498 969.5 c 128,-1,8
 1553 845 1553 845 1553 698 c 0,9,10
 1553 412 1553 412 1364 216 c 0,11,12
 1155 0 1155 0 799 0 c 2,13,-1
 187 0 l 1,14,-1
 187 618 l 1,15,-1
 3 618 l 1,0,-1
799 368 m 2,16,17
 867 368 867 368 921.5 394 c 128,-1,18
 976 420 976 420 1014 465.5 c 128,-1,19
 1052 511 1052 511 1072.5 572 c 128,-1,20
 1093 633 1093 633 1093 702 c 0,21,22
 1093 769 1093 769 1070.5 825.5 c 128,-1,23
 1048 882 1048 882 1009 922.5 c 128,-1,24
 970 963 970 963 916 985.5 c 128,-1,25
 862 1008 862 1008 799 1008 c 2,26,-1
 639 1008 l 1,27,-1
 639 792 l 1,28,-1
 801 792 l 1,29,-1
 801 618 l 1,30,-1
 639 618 l 1,31,-1
 639 368 l 1,32,-1
 799 368 l 2,16,17
EndSplineSet
EndChar

StartChar: multiply
Encoding: 215 215 154
Width: 941
GlyphClass: 2
Flags: W
LayerCount: 2
Fore
SplineSet
386 514 m 1,0,-1
 66 836 l 1,1,-1
 150 920 l 1,2,-1
 472 600 l 1,3,-1
 792 920 l 1,4,-1
 876 836 l 1,5,-1
 558 514 l 1,6,-1
 868 202 l 1,7,-1
 786 122 l 1,8,-1
 472 434 l 1,9,-1
 156 122 l 1,10,-1
 74 202 l 1,11,-1
 386 514 l 1,0,-1
EndSplineSet
EndChar

StartChar: Oslash
Encoding: 216 216 155
Width: 1636
GlyphClass: 2
Flags: W
LayerCount: 2
Fore
SplineSet
819 1439 m 0,0,1
 851 1439 851 1439 882.5 1437 c 128,-1,2
 914 1435 914 1435 944 1431 c 1,3,-1
 1007 1677 l 1,4,-1
 1147 1677 l 1,5,-1
 1076 1402 l 1,6,7
 1187 1367 1187 1367 1278 1302.5 c 128,-1,8
 1369 1238 1369 1238 1434.5 1148 c 128,-1,9
 1500 1058 1500 1058 1535.5 945 c 128,-1,10
 1571 832 1571 832 1571 702 c 0,11,12
 1571 605 1571 605 1549 513 c 128,-1,13
 1527 421 1527 421 1483.5 339.5 c 128,-1,14
 1440 258 1440 258 1376 190 c 128,-1,15
 1312 122 1312 122 1228.5 72.5 c 128,-1,16
 1145 23 1145 23 1042 -4.5 c 128,-1,17
 939 -32 939 -32 819 -32 c 0,18,19
 761 -32 761 -32 709 -26 c 1,20,-1
 628 -340 l 1,21,-1
 492 -340 l 1,22,-1
 579 0 l 1,23,24
 464 33 464 33 369 97.5 c 128,-1,25
 274 162 274 162 206.5 253 c 128,-1,26
 139 344 139 344 102 457.5 c 128,-1,27
 65 571 65 571 65 702 c 0,28,29
 65 1008 65 1008 259 1216 c 0,30,31
 467 1439 467 1439 819 1439 c 0,0,1
853 1076 m 2,32,33
 852 1076 852 1076 843.5 1077 c 128,-1,34
 835 1078 835 1078 819 1080 c 1,35,36
 745 1079 745 1079 689.5 1047.5 c 128,-1,37
 634 1016 634 1016 597 964 c 128,-1,38
 560 912 560 912 541.5 844.5 c 128,-1,39
 523 777 523 777 523 704 c 0,40,41
 523 592 523 592 563 508 c 128,-1,42
 603 424 603 424 675 379 c 1,43,-1
 853 1076 l 2,32,33
819 340 m 2,44,45
 898 340 898 340 953.5 373.5 c 128,-1,46
 1009 407 1009 407 1044.5 459.5 c 128,-1,47
 1080 512 1080 512 1096.5 576.5 c 128,-1,48
 1113 641 1113 641 1113 704 c 0,49,50
 1113 812 1113 812 1077.5 894 c 128,-1,51
 1042 976 1042 976 979 1024 c 1,52,-1
 803 340 l 1,53,-1
 819 340 l 2,44,45
EndSplineSet
EndChar

StartChar: Thorn
Encoding: 222 222 161
Width: 1334
GlyphClass: 2
Flags: W
LayerCount: 2
Fore
SplineSet
134 1408 m 1,0,-1
 574 1408 l 1,1,-1
 574 1266 l 1,2,-1
 642 1266 l 2,3,4
 800 1266 800 1266 923 1235 c 128,-1,5
 1046 1204 1046 1204 1130 1144 c 128,-1,6
 1214 1084 1214 1084 1258 997.5 c 128,-1,7
 1302 911 1302 911 1302 800 c 0,8,9
 1302 694 1302 694 1253 609 c 128,-1,10
 1204 524 1204 524 1118 464 c 128,-1,11
 1032 404 1032 404 914.5 372 c 128,-1,12
 797 340 797 340 660 340 c 2,13,-1
 574 340 l 1,14,-1
 574 0 l 1,15,-1
 134 0 l 1,16,-1
 134 1408 l 1,0,-1
662 624 m 0,17,18
 766 624 766 624 828 668 c 128,-1,19
 890 712 890 712 890 800 c 0,20,21
 890 841 890 841 872 873 c 128,-1,22
 854 905 854 905 823.5 927 c 128,-1,23
 793 949 793 949 751.5 960.5 c 128,-1,24
 710 972 710 972 662 972 c 2,25,-1
 574 972 l 1,26,-1
 574 628 l 1,27,28
 590 626 590 626 611.5 625 c 128,-1,29
 633 624 633 624 662 624 c 0,17,18
EndSplineSet
EndChar

StartChar: germandbls
Encoding: 223 223 162
Width: 1448
GlyphClass: 2
Flags: W
LayerCount: 2
Fore
SplineSet
694 1168 m 0,0,1
 627 1168 627 1168 586.5 1130.5 c 128,-1,2
 546 1093 546 1093 546 1030 c 2,3,-1
 546 0 l 1,4,-1
 106 -32 l 1,5,-1
 106 1104 l 2,6,7
 106 1176 106 1176 151 1237.5 c 128,-1,8
 196 1299 196 1299 275 1344 c 128,-1,9
 354 1389 354 1389 462.5 1414.5 c 128,-1,10
 571 1440 571 1440 698 1440 c 0,11,12
 801 1440 801 1440 894.5 1416.5 c 128,-1,13
 988 1393 988 1393 1059 1349 c 128,-1,14
 1130 1305 1130 1305 1172 1240.5 c 128,-1,15
 1214 1176 1214 1176 1214 1094 c 0,16,17
 1214 998 1214 998 1172 927 c 128,-1,18
 1130 856 1130 856 1060 814 c 1,19,20
 1133 793 1133 793 1196.5 753 c 128,-1,21
 1260 713 1260 713 1307.5 659.5 c 128,-1,22
 1355 606 1355 606 1382.5 540 c 128,-1,23
 1410 474 1410 474 1410 400 c 0,24,25
 1410 270 1410 270 1359 177 c 128,-1,26
 1308 84 1308 84 1223 24 c 128,-1,27
 1138 -36 1138 -36 1028 -64 c 128,-1,28
 918 -92 918 -92 800 -92 c 0,29,30
 789 -92 789 -92 770.5 -91.5 c 128,-1,31
 752 -91 752 -91 732 -91 c 128,-1,32
 712 -91 712 -91 693 -90.5 c 128,-1,33
 674 -90 674 -90 664 -90 c 1,34,-1
 664 240 l 1,35,36
 690 238 690 238 714.5 237 c 128,-1,37
 739 236 739 236 764 236 c 0,38,39
 813 236 813 236 851.5 253.5 c 128,-1,40
 890 271 890 271 916 302 c 128,-1,41
 942 333 942 333 956 375.5 c 128,-1,42
 970 418 970 418 970 468 c 0,43,44
 970 553 970 553 903 621 c 128,-1,45
 836 689 836 689 704 718 c 1,46,-1
 704 908 l 1,47,48
 740 914 740 914 771 927 c 128,-1,49
 802 940 802 940 825 958 c 128,-1,50
 848 976 848 976 861 999.5 c 128,-1,51
 874 1023 874 1023 874 1050 c 0,52,53
 874 1080 874 1080 859.5 1102.5 c 128,-1,54
 845 1125 845 1125 820 1139.5 c 128,-1,55
 795 1154 795 1154 762.5 1161 c 128,-1,56
 730 1168 730 1168 694 1168 c 0,0,1
EndSplineSet
EndChar

StartChar: ae
Encoding: 230 230 169
Width: 2162
GlyphClass: 2
Flags: W
LayerCount: 2
Fore
SplineSet
2075 52 m 1,0,1
 1860 -32 1860 -32 1597 -32 c 0,2,3
 1559 -32 1559 -32 1519.5 -24 c 128,-1,4
 1480 -16 1480 -16 1440 -1 c 128,-1,5
 1400 14 1400 14 1362 37 c 128,-1,6
 1324 60 1324 60 1290 90 c 1,7,-1
 1290 0 l 1,8,-1
 890 -32 l 1,9,-1
 890 190 l 1,10,11
 866 140 866 140 833.5 99 c 128,-1,12
 801 58 801 58 759 29 c 128,-1,13
 717 0 717 0 665 -16 c 128,-1,14
 613 -32 613 -32 552 -32 c 0,15,16
 452 -32 452 -32 361.5 11 c 128,-1,17
 271 54 271 54 202 128.5 c 128,-1,18
 133 203 133 203 92.5 303.5 c 128,-1,19
 52 404 52 404 52 519 c 0,20,21
 52 633 52 633 93.5 731.5 c 128,-1,22
 135 830 135 830 204.5 902 c 128,-1,23
 274 974 274 974 364.5 1015 c 128,-1,24
 455 1056 455 1056 554 1056 c 0,25,26
 605 1056 605 1056 654.5 1040 c 128,-1,27
 704 1024 704 1024 748.5 992 c 128,-1,28
 793 960 793 960 829.5 912.5 c 128,-1,29
 866 865 866 865 890 802 c 1,30,-1
 890 1056 l 1,31,-1
 1290 1026 l 1,32,-1
 1290 936 l 1,33,34
 1420 1056 1420 1056 1613 1056 c 0,35,36
 1728 1056 1728 1056 1821 1018 c 128,-1,37
 1914 980 1914 980 1980 911.5 c 128,-1,38
 2046 843 2046 843 2081.5 748 c 128,-1,39
 2117 653 2117 653 2117 538 c 0,40,41
 2117 524 2117 524 2116 511 c 128,-1,42
 2115 498 2115 498 2113 486 c 1,43,-1
 1439 406 l 1,44,45
 1494 262 1494 262 1693 262 c 0,46,47
 1851 262 1851 262 2025 334 c 1,48,-1
 2075 52 l 1,0,1
890 520 m 1,49,50
 888 561 888 561 871 596.5 c 128,-1,51
 854 632 854 632 826.5 658.5 c 128,-1,52
 799 685 799 685 763 700.5 c 128,-1,53
 727 716 727 716 688 716 c 0,54,55
 644 716 644 716 606.5 699.5 c 128,-1,56
 569 683 569 683 541.5 655.5 c 128,-1,57
 514 628 514 628 498 591 c 128,-1,58
 482 554 482 554 482 512 c 0,59,60
 482 468 482 468 499 430.5 c 128,-1,61
 516 393 516 393 544.5 366 c 128,-1,62
 573 339 573 339 610 323.5 c 128,-1,63
 647 308 647 308 688 308 c 0,64,65
 730 308 730 308 766 324 c 128,-1,66
 802 340 802 340 829 367 c 128,-1,67
 856 394 856 394 872 429.5 c 128,-1,68
 888 465 888 465 890 504 c 1,69,-1
 890 520 l 1,49,50
1799 664 m 1,70,71
 1779 725 1779 725 1731 758.5 c 128,-1,72
 1683 792 1683 792 1613 792 c 0,73,74
 1525 792 1525 792 1474.5 738 c 128,-1,75
 1424 684 1424 684 1421 594 c 1,76,-1
 1799 664 l 1,70,71
EndSplineSet
EndChar

StartChar: eth
Encoding: 240 240 179
Width: 1324
GlyphClass: 2
Flags: W
LayerCount: 2
Fore
SplineSet
1170 1103 m 1,0,1
 1262 924 1262 924 1262 690 c 0,2,3
 1262 526 1262 526 1216.5 393 c 128,-1,4
 1171 260 1171 260 1088.5 165.5 c 128,-1,5
 1006 71 1006 71 890 19.5 c 128,-1,6
 774 -32 774 -32 632 -32 c 0,7,8
 497 -32 497 -32 386.5 3 c 128,-1,9
 276 38 276 38 197.5 101 c 128,-1,10
 119 164 119 164 76 251.5 c 128,-1,11
 33 339 33 339 33 444 c 256,12,13
 33 549 33 549 69 630 c 128,-1,14
 105 711 105 711 171 766.5 c 128,-1,15
 237 822 237 822 330.5 851 c 128,-1,16
 424 880 424 880 540 880 c 0,17,18
 695 880 695 880 808 788 c 1,19,20
 793 895 793 895 762 958 c 1,21,-1
 615 906 l 1,22,-1
 569 1021 l 1,23,-1
 674 1058 l 1,24,25
 631 1080 631 1080 580 1080 c 0,26,27
 451 1080 451 1080 240 1026 c 1,28,-1
 132 1330 l 1,29,30
 388 1440 388 1440 632 1440 c 0,31,32
 925 1440 925 1440 1102 1210 c 1,33,-1
 1247 1262 l 1,34,-1
 1293 1147 l 1,35,-1
 1170 1103 l 1,0,1
632 302 m 0,36,37
 677 302 677 302 707 323 c 128,-1,38
 737 344 737 344 757 380 c 128,-1,39
 777 416 777 416 788.5 463.5 c 128,-1,40
 800 511 800 511 806 564 c 1,41,42
 725 594 725 594 622 594 c 0,43,44
 588 594 588 594 558.5 583.5 c 128,-1,45
 529 573 529 573 507 553.5 c 128,-1,46
 485 534 485 534 472.5 506 c 128,-1,47
 460 478 460 478 460 444 c 0,48,49
 460 411 460 411 473 384.5 c 128,-1,50
 486 358 486 358 508.5 339.5 c 128,-1,51
 531 321 531 321 562.5 311.5 c 128,-1,52
 594 302 594 302 632 302 c 0,36,37
EndSplineSet
EndChar

StartChar: divide
Encoding: 247 247 186
Width: 926
GlyphClass: 2
Flags: W
LayerCount: 2
Fore
SplineSet
50 580 m 1,0,-1
 876 580 l 1,1,-1
 876 466 l 1,2,-1
 50 466 l 1,3,-1
 50 580 l 1,0,-1
259 200 m 0,4,5
 259 240 259 240 276 273.5 c 128,-1,6
 293 307 293 307 321 331 c 128,-1,7
 349 355 349 355 386 368.5 c 128,-1,8
 423 382 423 382 462 382 c 0,9,10
 503 382 503 382 539.5 367.5 c 128,-1,11
 576 353 576 353 603 328 c 128,-1,12
 630 303 630 303 646 270 c 128,-1,13
 662 237 662 237 662 200 c 0,14,15
 662 161 662 161 646 128 c 128,-1,16
 630 95 630 95 602.5 71 c 128,-1,17
 575 47 575 47 538.5 33.5 c 128,-1,18
 502 20 502 20 462 20 c 0,19,20
 420 20 420 20 383 34 c 128,-1,21
 346 48 346 48 318.5 72.5 c 128,-1,22
 291 97 291 97 275 129.5 c 128,-1,23
 259 162 259 162 259 200 c 0,4,5
259 846 m 0,24,25
 259 885 259 885 276 918.5 c 128,-1,26
 293 952 293 952 321.5 976 c 128,-1,27
 350 1000 350 1000 386.5 1014 c 128,-1,28
 423 1028 423 1028 462 1028 c 0,29,30
 503 1028 503 1028 539.5 1013 c 128,-1,31
 576 998 576 998 603 973 c 128,-1,32
 630 948 630 948 646 915 c 128,-1,33
 662 882 662 882 662 846 c 0,34,35
 662 807 662 807 646 774 c 128,-1,36
 630 741 630 741 602.5 717 c 128,-1,37
 575 693 575 693 538.5 679.5 c 128,-1,38
 502 666 502 666 462 666 c 0,39,40
 418 666 418 666 381 680 c 128,-1,41
 344 694 344 694 317 718.5 c 128,-1,42
 290 743 290 743 274.5 776 c 128,-1,43
 259 809 259 809 259 846 c 0,24,25
EndSplineSet
EndChar

StartChar: oslash
Encoding: 248 248 187
Width: 1244
GlyphClass: 2
Flags: W
LayerCount: 2
Fore
SplineSet
432 -2 m 1,0,1
 348 25 348 25 278 72 c 128,-1,2
 208 119 208 119 158.5 185 c 128,-1,3
 109 251 109 251 81.5 333.5 c 128,-1,4
 54 416 54 416 54 514 c 0,5,6
 54 608 54 608 77.5 684.5 c 128,-1,7
 101 761 101 761 142.5 821.5 c 128,-1,8
 184 882 184 882 240.5 926 c 128,-1,9
 297 970 297 970 364 999 c 128,-1,10
 431 1028 431 1028 505.5 1042 c 128,-1,11
 580 1056 580 1056 656 1056 c 1,12,13
 655 1055 655 1055 663.5 1055.5 c 128,-1,14
 672 1056 672 1056 688 1054 c 1,15,-1
 690 1054 l 1,16,-1
 726 1202 l 1,17,-1
 844 1202 l 1,18,-1
 802 1032 l 1,19,20
 887 1006 887 1006 958.5 958.5 c 128,-1,21
 1030 911 1030 911 1081.5 845 c 128,-1,22
 1133 779 1133 779 1161.5 695.5 c 128,-1,23
 1190 612 1190 612 1190 514 c 0,24,25
 1190 419 1190 419 1165.5 341.5 c 128,-1,26
 1141 264 1141 264 1097.5 203.5 c 128,-1,27
 1054 143 1054 143 995 98.5 c 128,-1,28
 936 54 936 54 867.5 25 c 128,-1,29
 799 -4 799 -4 724.5 -18 c 128,-1,30
 650 -32 650 -32 575 -32 c 2,31,-1
 559 -32 l 2,32,33
 555 -32 555 -32 550 -31.5 c 128,-1,34
 545 -31 545 -31 540 -30 c 1,35,-1
 506 -174 l 1,36,-1
 390 -174 l 1,37,-1
 432 -2 l 1,0,1
620 288 m 1,38,39
 660 294 660 294 695 314.5 c 128,-1,40
 730 335 730 335 755.5 365.5 c 128,-1,41
 781 396 781 396 795.5 434 c 128,-1,42
 810 472 810 472 810 514 c 0,43,44
 810 574 810 574 785 622.5 c 128,-1,45
 760 671 760 671 720 700 c 1,46,-1
 620 288 l 1,38,39
614 738 m 1,47,48
 573 736 573 736 539 717.5 c 128,-1,49
 505 699 505 699 481 668.5 c 128,-1,50
 457 638 457 638 443.5 598.5 c 128,-1,51
 430 559 430 559 430 514 c 0,52,53
 430 454 430 454 453.5 405.5 c 128,-1,54
 477 357 477 357 514 328 c 1,55,-1
 614 738 l 1,47,48
EndSplineSet
EndChar

StartChar: thorn
Encoding: 254 254 193
Width: 1427
GlyphClass: 2
Flags: W
LayerCount: 2
Fore
SplineSet
875 -32 m 0,0,1
 755 -32 755 -32 671 28 c 128,-1,2
 587 88 587 88 539 190 c 1,3,-1
 539 -510 l 1,4,-1
 107 -510 l 1,5,-1
 107 1350 l 1,6,-1
 539 1414 l 1,7,-1
 539 834 l 1,8,9
 642 1056 642 1056 873 1056 c 0,10,11
 977 1056 977 1056 1068.5 1013.5 c 128,-1,12
 1160 971 1160 971 1228 897.5 c 128,-1,13
 1296 824 1296 824 1335.5 724.5 c 128,-1,14
 1375 625 1375 625 1375 512 c 0,15,16
 1375 437 1375 437 1356.5 367.5 c 128,-1,17
 1338 298 1338 298 1304.5 237.5 c 128,-1,18
 1271 177 1271 177 1224.5 127.5 c 128,-1,19
 1178 78 1178 78 1122.5 43 c 128,-1,20
 1067 8 1067 8 1004 -12 c 128,-1,21
 941 -32 941 -32 875 -32 c 0,0,1
539 512 m 2,22,23
 539 469 539 469 555.5 432 c 128,-1,24
 572 395 572 395 599.5 367.5 c 128,-1,25
 627 340 627 340 663.5 324 c 128,-1,26
 700 308 700 308 741 308 c 0,27,28
 784 308 784 308 822 324.5 c 128,-1,29
 860 341 860 341 887.5 369.5 c 128,-1,30
 915 398 915 398 931 434.5 c 128,-1,31
 947 471 947 471 947 512 c 0,32,33
 947 561 947 561 928.5 599 c 128,-1,34
 910 637 910 637 880 663 c 128,-1,35
 850 689 850 689 813.5 702.5 c 128,-1,36
 777 716 777 716 741 716 c 0,37,38
 699 716 699 716 662.5 700.5 c 128,-1,39
 626 685 626 685 599 658 c 128,-1,40
 572 631 572 631 556 595.5 c 128,-1,41
 540 560 540 560 539 520 c 1,42,-1
 539 512 l 2,22,23
EndSplineSet
EndChar

StartChar: Dcroat
Encoding: 272 272 211
Width: 1565
GlyphClass: 2
Flags: W
LayerCount: 2
Fore
SplineSet
78 766 m 1,0,-1
 134 766 l 1,1,-1
 134 1376 l 1,2,-1
 746 1376 l 2,3,4
 913 1376 913 1376 1051.5 1325.5 c 128,-1,5
 1190 1275 1190 1275 1290 1185 c 128,-1,6
 1390 1095 1390 1095 1445 970.5 c 128,-1,7
 1500 846 1500 846 1500 698 c 0,8,9
 1500 413 1500 413 1310 216 c 0,10,11
 1101 0 1101 0 746 0 c 2,12,-1
 134 0 l 1,13,-1
 134 592 l 1,14,-1
 78 592 l 1,15,-1
 78 766 l 1,0,-1
746 368 m 2,16,17
 814 368 814 368 868.5 394 c 128,-1,18
 923 420 923 420 961 465.5 c 128,-1,19
 999 511 999 511 1019.5 572 c 128,-1,20
 1040 633 1040 633 1040 702 c 0,21,22
 1040 769 1040 769 1017.5 825 c 128,-1,23
 995 881 995 881 956 921.5 c 128,-1,24
 917 962 917 962 863 985 c 128,-1,25
 809 1008 809 1008 746 1008 c 2,26,-1
 586 1008 l 1,27,-1
 586 766 l 1,28,-1
 718 766 l 1,29,-1
 718 592 l 1,30,-1
 586 592 l 1,31,-1
 586 368 l 1,32,-1
 746 368 l 2,16,17
EndSplineSet
EndChar

StartChar: dcroat
Encoding: 273 273 212
Width: 1428
GlyphClass: 2
Flags: W
LayerCount: 2
Fore
SplineSet
553 1056 m 0,0,1
 785 1056 785 1056 889 834 c 1,2,-1
 889 1106 l 1,3,-1
 747 1106 l 1,4,-1
 747 1280 l 1,5,-1
 889 1280 l 1,6,-1
 889 1350 l 1,7,-1
 1321 1414 l 1,8,-1
 1321 1280 l 1,9,-1
 1387 1280 l 1,10,-1
 1387 1106 l 1,11,-1
 1321 1106 l 1,12,-1
 1321 0 l 1,13,-1
 889 0 l 1,14,-1
 889 190 l 1,15,16
 865 139 865 139 832 98 c 128,-1,17
 799 57 799 57 757 28 c 128,-1,18
 715 -1 715 -1 663.5 -16.5 c 128,-1,19
 612 -32 612 -32 551 -32 c 0,20,21
 361 -32 361 -32 212 117 c 0,22,23
 53 276 53 276 53 512 c 0,24,25
 53 625 53 625 93.5 724 c 128,-1,26
 134 823 134 823 203 897 c 128,-1,27
 272 971 272 971 362.5 1013.5 c 128,-1,28
 453 1056 453 1056 553 1056 c 0,0,1
889 520 m 1,29,30
 887 561 887 561 870 596.5 c 128,-1,31
 853 632 853 632 825.5 658.5 c 128,-1,32
 798 685 798 685 762 700.5 c 128,-1,33
 726 716 726 716 687 716 c 0,34,35
 643 716 643 716 605.5 699.5 c 128,-1,36
 568 683 568 683 541 655 c 128,-1,37
 514 627 514 627 498.5 590 c 128,-1,38
 483 553 483 553 483 512 c 0,39,40
 483 469 483 469 499.5 431.5 c 128,-1,41
 516 394 516 394 544 366.5 c 128,-1,42
 572 339 572 339 609 323.5 c 128,-1,43
 646 308 646 308 687 308 c 0,44,45
 730 308 730 308 767 325 c 128,-1,46
 804 342 804 342 831 370 c 128,-1,47
 858 398 858 398 873.5 435 c 128,-1,48
 889 472 889 472 889 512 c 2,49,-1
 889 520 l 1,29,30
EndSplineSet
EndChar

StartChar: Hbar
Encoding: 294 294 233
Width: 1647
GlyphClass: 2
Flags: W
LayerCount: 2
Fore
SplineSet
86 1152 m 1,0,-1
 144 1152 l 1,1,-1
 144 1376 l 1,2,-1
 604 1376 l 1,3,-1
 604 1152 l 1,4,-1
 1040 1152 l 1,5,-1
 1040 1376 l 1,6,-1
 1502 1376 l 1,7,-1
 1502 1152 l 1,8,-1
 1562 1152 l 1,9,-1
 1562 978 l 1,10,-1
 1502 978 l 1,11,-1
 1502 0 l 1,12,-1
 1040 0 l 1,13,-1
 1040 552 l 1,14,-1
 604 552 l 1,15,-1
 604 0 l 1,16,-1
 144 0 l 1,17,-1
 144 978 l 1,18,-1
 86 978 l 1,19,-1
 86 1152 l 1,0,-1
1040 848 m 1,20,-1
 1040 978 l 1,21,-1
 604 978 l 1,22,-1
 604 848 l 1,23,-1
 1040 848 l 1,20,-1
EndSplineSet
EndChar

StartChar: hbar
Encoding: 295 295 234
Width: 1413
GlyphClass: 2
Flags: W
LayerCount: 2
Fore
SplineSet
-15 1280 m 1,0,-1
 107 1280 l 1,1,-1
 107 1350 l 1,2,-1
 539 1414 l 1,3,-1
 539 1280 l 1,4,-1
 753 1280 l 1,5,-1
 753 1106 l 1,6,-1
 539 1106 l 1,7,-1
 539 798 l 1,8,9
 591 923 591 923 677 989.5 c 128,-1,10
 763 1056 763 1056 877 1056 c 0,11,12
 970 1056 970 1056 1050 1016 c 128,-1,13
 1130 976 1130 976 1189.5 904.5 c 128,-1,14
 1249 833 1249 833 1283 735 c 128,-1,15
 1317 637 1317 637 1317 520 c 2,16,-1
 1317 0 l 1,17,-1
 887 0 l 1,18,-1
 887 512 l 2,19,20
 887 551 887 551 876 588 c 128,-1,21
 865 625 865 625 846 653.5 c 128,-1,22
 827 682 827 682 800.5 699 c 128,-1,23
 774 716 774 716 743 716 c 0,24,25
 699 716 699 716 661.5 698.5 c 128,-1,26
 624 681 624 681 597 651 c 128,-1,27
 570 621 570 621 554.5 581.5 c 128,-1,28
 539 542 539 542 539 498 c 2,29,-1
 539 0 l 1,30,-1
 107 0 l 1,31,-1
 107 1106 l 1,32,-1
 -15 1106 l 1,33,-1
 -15 1280 l 1,0,-1
EndSplineSet
EndChar

StartChar: dotlessi
Encoding: 305 305 244
Width: 748
GlyphClass: 2
Flags: W
LayerCount: 2
Fore
SplineSet
731 38 m 1,0,1
 609 -32 609 -32 463 -32 c 0,2,3
 376 -32 376 -32 308 -3 c 128,-1,4
 240 26 240 26 193.5 79.5 c 128,-1,5
 147 133 147 133 123 209 c 128,-1,6
 99 285 99 285 99 378 c 2,7,-1
 99 1026 l 1,8,-1
 533 1026 l 1,9,-1
 533 408 l 1,10,-1
 533 398 l 2,11,12
 533 349 533 349 559 324.5 c 128,-1,13
 585 300 585 300 625 300 c 256,14,15
 665 300 665 300 709 324 c 1,16,-1
 731 38 l 1,0,1
EndSplineSet
EndChar

StartChar: kgreenlandic
Encoding: 312 312 251
Width: 1309
GlyphClass: 2
Flags: W
LayerCount: 2
Fore
SplineSet
1169 314 m 0,0,1
 1195 314 1195 314 1257 326 c 1,2,-1
 1225 -24 l 1,3,4
 1165 -30 1165 -30 1113 -30 c 0,5,6
 1005 -30 1005 -30 931 -6.5 c 128,-1,7
 857 17 857 17 806 65 c 128,-1,8
 755 113 755 113 721 186 c 128,-1,9
 687 259 687 259 659 358 c 1,10,-1
 539 262 l 1,11,-1
 539 0 l 1,12,-1
 107 0 l 1,13,-1
 107 1024 l 1,14,-1
 539 1024 l 1,15,-1
 539 692 l 1,16,-1
 925 1024 l 1,17,-1
 1145 1024 l 1,18,-1
 1293 848 l 1,19,-1
 951 572 l 1,20,-1
 963 513 l 1,21,-1
 978 461 l 2,22,23
 987 431 987 431 1001 404 c 128,-1,24
 1015 377 1015 377 1037.5 357 c 128,-1,25
 1060 337 1060 337 1092 325.5 c 128,-1,26
 1124 314 1124 314 1169 314 c 0,0,1
EndSplineSet
EndChar

StartChar: Lslash
Encoding: 321 321 260
Width: 1156
GlyphClass: 2
Flags: W
LayerCount: 2
Fore
SplineSet
6 788 m 1,0,-1
 190 835 l 1,1,-1
 190 1408 l 1,2,-1
 630 1408 l 1,3,-1
 630 947 l 1,4,-1
 936 1026 l 1,5,-1
 936 852 l 1,6,-1
 630 773 l 1,7,-1
 630 302 l 1,8,-1
 1120 302 l 1,9,-1
 1120 0 l 1,10,-1
 190 0 l 1,11,-1
 190 661 l 1,12,-1
 6 614 l 1,13,-1
 6 788 l 1,0,-1
EndSplineSet
EndChar

StartChar: lslash
Encoding: 322 322 261
Width: 863
GlyphClass: 2
Flags: W
LayerCount: 2
Fore
SplineSet
828 38 m 1,0,1
 695 -32 695 -32 550 -32 c 0,2,3
 463 -32 463 -32 396 -3 c 128,-1,4
 329 26 329 26 282.5 79.5 c 128,-1,5
 236 133 236 133 212 209 c 128,-1,6
 188 285 188 285 188 378 c 2,7,-1
 188 666 l 1,8,-1
 16 614 l 1,9,-1
 16 788 l 1,10,-1
 188 840 l 1,11,-1
 188 1350 l 1,12,-1
 620 1414 l 1,13,-1
 620 972 l 1,14,-1
 796 1026 l 1,15,-1
 796 852 l 1,16,-1
 620 798 l 1,17,-1
 620 408 l 2,18,19
 620 300 620 300 718 300 c 0,20,21
 761 300 761 300 806 324 c 1,22,-1
 828 38 l 1,0,1
EndSplineSet
EndChar

StartChar: Eng
Encoding: 330 330 269
Width: 1606
GlyphClass: 2
Flags: W
LayerCount: 2
Fore
SplineSet
832 -172 m 1,0,1
 926 -202 926 -202 974 -202 c 0,2,3
 1108 -202 1108 -202 1108 -32 c 1,4,-1
 498 734 l 1,5,-1
 498 0 l 1,6,-1
 134 0 l 1,7,-1
 134 1376 l 1,8,-1
 544 1376 l 1,9,-1
 1106 650 l 1,10,-1
 1106 1376 l 1,11,-1
 1472 1376 l 1,12,-1
 1472 -32 l 2,13,14
 1472 -137 1472 -137 1446 -224.5 c 128,-1,15
 1420 -312 1420 -312 1370.5 -375 c 128,-1,16
 1321 -438 1321 -438 1249.5 -473 c 128,-1,17
 1178 -508 1178 -508 1088 -508 c 0,18,19
 938 -508 938 -508 738 -426 c 1,20,-1
 832 -172 l 1,0,1
EndSplineSet
EndChar

StartChar: eng
Encoding: 331 331 270
Width: 1406
GlyphClass: 2
Flags: W
LayerCount: 2
Fore
SplineSet
742 -170 m 0,0,1
 880 -170 880 -170 880 0 c 2,2,-1
 880 512 l 2,3,4
 880 551 880 551 869 588 c 128,-1,5
 858 625 858 625 839 653.5 c 128,-1,6
 820 682 820 682 793.5 699 c 128,-1,7
 767 716 767 716 736 716 c 0,8,9
 694 716 694 716 657.5 700 c 128,-1,10
 621 684 621 684 594 657 c 128,-1,11
 567 630 567 630 551 594.5 c 128,-1,12
 535 559 535 559 534 520 c 1,13,-1
 534 0 l 1,14,-1
 102 0 l 1,15,-1
 102 990 l 1,16,-1
 534 1056 l 1,17,-1
 534 802 l 1,18,19
 588 921 588 921 679 988.5 c 128,-1,20
 770 1056 770 1056 890 1056 c 0,21,22
 980 1056 980 1056 1057 1014 c 128,-1,23
 1134 972 1134 972 1190.5 898.5 c 128,-1,24
 1247 825 1247 825 1278.5 726 c 128,-1,25
 1310 627 1310 627 1310 512 c 2,26,-1
 1310 0 l 2,27,28
 1310 -117 1310 -117 1279.5 -210.5 c 128,-1,29
 1249 -304 1249 -304 1190.5 -369 c 128,-1,30
 1132 -434 1132 -434 1048 -469 c 128,-1,31
 964 -504 964 -504 858 -504 c 0,32,33
 670 -504 670 -504 508 -396 c 1,34,-1
 602 -142 l 1,35,36
 685 -170 685 -170 742 -170 c 0,0,1
EndSplineSet
EndChar

StartChar: OE
Encoding: 338 338 277
Width: 2098
GlyphClass: 2
Flags: W
LayerCount: 2
Fore
SplineSet
712 1414 m 0,0,1
 756 1414 756 1414 795 1407.5 c 128,-1,2
 834 1401 834 1401 871 1388.5 c 128,-1,3
 908 1376 908 1376 944.5 1357 c 128,-1,4
 981 1338 981 1338 1020 1314 c 1,5,-1
 1020 1376 l 1,6,-1
 2000 1376 l 1,7,-1
 2000 1066 l 1,8,-1
 1508 1066 l 1,9,-1
 1508 842 l 1,10,-1
 1958 842 l 1,11,-1
 1958 584 l 1,12,-1
 1508 584 l 1,13,-1
 1508 308 l 1,14,-1
 2000 308 l 1,15,-1
 2000 0 l 1,16,-1
 1014 0 l 1,17,-1
 1014 60 l 1,18,19
 838 -32 838 -32 696 -32 c 0,20,21
 405 -32 405 -32 226 201 c 0,22,23
 64 412 64 412 64 692 c 0,24,25
 64 777 64 777 84.5 863 c 128,-1,26
 105 949 105 949 144 1029.5 c 128,-1,27
 183 1110 183 1110 239.5 1180 c 128,-1,28
 296 1250 296 1250 368 1302 c 128,-1,29
 440 1354 440 1354 526.5 1384 c 128,-1,30
 613 1414 613 1414 712 1414 c 0,0,1
748 338 m 0,31,32
 898 338 898 338 1014 368 c 1,33,-1
 1014 1018 l 1,34,35
 871 1050 871 1050 748 1050 c 0,36,37
 698 1050 698 1050 656.5 1024 c 128,-1,38
 615 998 615 998 585 951.5 c 128,-1,39
 555 905 555 905 538.5 839 c 128,-1,40
 522 773 522 773 522 694 c 0,41,42
 522 622 522 622 535.5 557.5 c 128,-1,43
 549 493 549 493 577 444.5 c 128,-1,44
 605 396 605 396 647.5 367 c 128,-1,45
 690 338 690 338 748 338 c 0,31,32
EndSplineSet
EndChar

StartChar: oe
Encoding: 339 339 278
Width: 1894
GlyphClass: 2
Flags: W
LayerCount: 2
Fore
SplineSet
1454 262 m 0,0,1
 1511 262 1511 262 1570 275 c 0,2,3
 1604 282 1604 282 1624 287 c 128,-1,4
 1644 292 1644 292 1662 298 c 128,-1,5
 1680 304 1680 304 1700.5 312 c 128,-1,6
 1721 320 1721 320 1756 334 c 1,7,-1
 1806 52 l 1,8,9
 1620 -32 1620 -32 1386 -32 c 0,10,11
 1165 -32 1165 -32 1008 134 c 1,12,13
 857 -32 857 -32 642 -32 c 0,14,15
 510 -32 510 -32 401.5 9 c 128,-1,16
 293 50 293 50 215 123 c 128,-1,17
 137 196 137 196 94.5 296 c 128,-1,18
 52 396 52 396 52 514 c 0,19,20
 52 646 52 646 102 747 c 128,-1,21
 152 848 152 848 237 918 c 0,22,23
 310 978 310 978 414.5 1017 c 128,-1,24
 519 1056 519 1056 644 1056 c 0,25,26
 850 1056 850 1056 1008 910 c 1,27,28
 1166 1056 1166 1056 1374 1056 c 0,29,30
 1480 1056 1480 1056 1567.5 1019 c 128,-1,31
 1655 982 1655 982 1717.5 914.5 c 128,-1,32
 1780 847 1780 847 1814 751 c 128,-1,33
 1848 655 1848 655 1848 538 c 0,34,35
 1848 524 1848 524 1847 511 c 128,-1,36
 1846 498 1846 498 1844 486 c 1,37,-1
 1228 406 l 1,38,39
 1254 333 1254 333 1307.5 297.5 c 128,-1,40
 1361 262 1361 262 1454 262 c 0,0,1
644 310 m 0,41,42
 690 310 690 310 724.5 330.5 c 128,-1,43
 759 351 759 351 782 382 c 128,-1,44
 805 413 805 413 816.5 448.5 c 128,-1,45
 828 484 828 484 828 514 c 0,46,47
 828 556 828 556 813 593 c 128,-1,48
 798 630 798 630 773 658 c 128,-1,49
 748 686 748 686 714.5 702 c 128,-1,50
 681 718 681 718 644 718 c 0,51,52
 603 718 603 718 569 701.5 c 128,-1,53
 535 685 535 685 511 656.5 c 128,-1,54
 487 628 487 628 473.5 591 c 128,-1,55
 460 554 460 554 460 514 c 0,56,57
 460 471 460 471 474.5 434 c 128,-1,58
 489 397 489 397 514.5 369.5 c 128,-1,59
 540 342 540 342 573 326 c 128,-1,60
 606 310 606 310 644 310 c 0,41,42
1530 664 m 1,61,62
 1495 792 1495 792 1374 792 c 0,63,64
 1335 792 1335 792 1306 777 c 128,-1,65
 1277 762 1277 762 1256.5 735 c 128,-1,66
 1236 708 1236 708 1225 672 c 128,-1,67
 1214 636 1214 636 1212 594 c 1,68,-1
 1530 664 l 1,61,62
EndSplineSet
EndChar

StartChar: Tbar
Encoding: 358 358 297
Width: 1202
GlyphClass: 2
Flags: W
LayerCount: 2
Fore
SplineSet
362 518 m 1,0,-1
 216 518 l 1,1,-1
 216 692 l 1,2,-1
 362 692 l 1,3,-1
 362 1078 l 1,4,-1
 70 1078 l 1,5,-1
 70 1376 l 1,6,-1
 1132 1376 l 1,7,-1
 1132 1078 l 1,8,-1
 840 1078 l 1,9,-1
 840 692 l 1,10,-1
 986 692 l 1,11,-1
 986 518 l 1,12,-1
 840 518 l 1,13,-1
 840 0 l 1,14,-1
 362 0 l 1,15,-1
 362 518 l 1,0,-1
EndSplineSet
EndChar

StartChar: tbar
Encoding: 359 359 298
Width: 921
GlyphClass: 2
Flags: W
LayerCount: 2
Fore
SplineSet
856 38 m 1,0,1
 717 -32 717 -32 548 -32 c 0,2,3
 460 -32 460 -32 392.5 -3 c 128,-1,4
 325 26 325 26 278.5 79 c 128,-1,5
 232 132 232 132 208 208 c 128,-1,6
 184 284 184 284 184 378 c 2,7,-1
 184 518 l 1,8,-1
 70 518 l 1,9,-1
 70 692 l 1,10,-1
 186 692 l 1,11,-1
 186 772 l 1,12,-1
 56 772 l 1,13,-1
 56 1026 l 1,14,-1
 186 1026 l 1,15,-1
 186 1274 l 1,16,-1
 616 1414 l 1,17,-1
 616 1026 l 1,18,-1
 852 1026 l 1,19,-1
 852 772 l 1,20,-1
 616 772 l 1,21,-1
 616 692 l 1,22,-1
 840 692 l 1,23,-1
 840 518 l 1,24,-1
 616 518 l 1,25,-1
 616 408 l 2,26,27
 616 354 616 354 651 327 c 128,-1,28
 686 300 686 300 746 300 c 0,29,30
 793 300 793 300 840 324 c 1,31,-1
 856 38 l 1,0,1
EndSplineSet
EndChar

StartChar: florin
Encoding: 402 402 323
Width: 891
GlyphClass: 2
Flags: W
LayerCount: 2
Fore
SplineSet
729 1246 m 0,0,1
 613 1246 613 1246 613 1122 c 2,2,-1
 613 1026 l 1,3,-1
 871 1026 l 1,4,-1
 871 772 l 1,5,-1
 613 772 l 1,6,-1
 613 0 l 1,7,-1
 179 0 l 1,8,-1
 179 772 l 1,9,-1
 53 772 l 1,10,-1
 53 1026 l 1,11,-1
 179 1026 l 1,12,-1
 179 1136 l 2,13,14
 179 1239 179 1239 202 1320.5 c 128,-1,15
 225 1402 225 1402 272 1457.5 c 128,-1,16
 319 1513 319 1513 389.5 1542.5 c 128,-1,17
 460 1572 460 1572 555 1572 c 0,18,19
 704 1572 704 1572 889 1494 c 1,20,-1
 875 1216 l 1,21,22
 785 1246 785 1246 729 1246 c 0,0,1
EndSplineSet
EndChar

StartChar: dotlessj
Encoding: 567 567 352
Width: 646
GlyphClass: 2
Flags: W
LayerCount: 2
Fore
SplineSet
-29 -110 m 0,0,1
 107 -110 107 -110 107 60 c 2,2,-1
 107 1026 l 1,3,-1
 539 1026 l 1,4,-1
 539 60 l 2,5,6
 539 -57 539 -57 507.5 -150 c 128,-1,7
 476 -243 476 -243 417.5 -308 c 128,-1,8
 359 -373 359 -373 275 -407.5 c 128,-1,9
 191 -442 191 -442 85 -442 c 0,10,11
 -103 -442 -103 -442 -265 -334 c 1,12,-1
 -171 -80 l 1,13,14
 -77 -110 -77 -110 -29 -110 c 0,0,1
EndSplineSet
EndChar

StartChar: circumflex
Encoding: 710 710 353
Width: 986
GlyphClass: 2
Flags: W
LayerCount: 2
Fore
SplineSet
300 1640 m 1,0,-1
 678 1640 l 1,1,-1
 930 1130 l 1,2,-1
 590 1130 l 1,3,-1
 512 1348 l 1,4,-1
 488 1426 l 1,5,-1
 466 1348 l 1,6,-1
 388 1130 l 1,7,-1
 48 1130 l 1,8,-1
 300 1640 l 1,0,-1
EndSplineSet
EndChar

StartChar: caron
Encoding: 711 711 354
Width: 986
GlyphClass: 2
Flags: W
LayerCount: 2
Fore
SplineSet
48 1640 m 1,0,-1
 388 1640 l 1,1,-1
 466 1422 l 1,2,-1
 488 1342 l 1,3,4
 496 1369 496 1369 509.5 1408.5 c 128,-1,5
 523 1448 523 1448 537.5 1490 c 128,-1,6
 552 1532 552 1532 566.5 1572 c 128,-1,7
 581 1612 581 1612 590 1640 c 1,8,-1
 930 1640 l 1,9,-1
 678 1130 l 1,10,-1
 300 1130 l 1,11,-1
 48 1640 l 1,0,-1
EndSplineSet
EndChar

StartChar: breve
Encoding: 728 728 355
Width: 842
GlyphClass: 2
Flags: W
LayerCount: 2
Fore
SplineSet
772 1500 m 1,0,1
 772 1420 772 1420 746 1355.5 c 128,-1,2
 720 1291 720 1291 673.5 1245.5 c 128,-1,3
 627 1200 627 1200 562.5 1175 c 128,-1,4
 498 1150 498 1150 422 1150 c 0,5,6
 344 1150 344 1150 279 1175.5 c 128,-1,7
 214 1201 214 1201 167.5 1247.5 c 128,-1,8
 121 1294 121 1294 95.5 1358.5 c 128,-1,9
 70 1423 70 1423 70 1500 c 1,10,-1
 296 1500 l 1,11,12
 296 1445 296 1445 331.5 1410.5 c 128,-1,13
 367 1376 367 1376 422 1376 c 256,14,15
 477 1376 477 1376 508.5 1409.5 c 128,-1,16
 540 1443 540 1443 540 1500 c 1,17,-1
 772 1500 l 1,0,1
EndSplineSet
EndChar

StartChar: dotaccent
Encoding: 729 729 356
Width: 630
GlyphClass: 2
Flags: W
LayerCount: 2
Fore
SplineSet
86 1372 m 0,0,1
 86 1417 86 1417 105.5 1455 c 128,-1,2
 125 1493 125 1493 157 1520 c 128,-1,3
 189 1547 189 1547 230.5 1562.5 c 128,-1,4
 272 1578 272 1578 316 1578 c 0,5,6
 362 1578 362 1578 404 1561.5 c 128,-1,7
 446 1545 446 1545 477.5 1516.5 c 128,-1,8
 509 1488 509 1488 527.5 1451 c 128,-1,9
 546 1414 546 1414 546 1372 c 0,10,11
 546 1326 546 1326 526.5 1287.5 c 128,-1,12
 507 1249 507 1249 475 1221.5 c 128,-1,13
 443 1194 443 1194 401.5 1179 c 128,-1,14
 360 1164 360 1164 316 1164 c 0,15,16
 268 1164 268 1164 226 1180 c 128,-1,17
 184 1196 184 1196 153 1224 c 128,-1,18
 122 1252 122 1252 104 1290 c 128,-1,19
 86 1328 86 1328 86 1372 c 0,0,1
EndSplineSet
EndChar

StartChar: ring
Encoding: 730 730 357
Width: 842
GlyphClass: 2
Flags: W
LayerCount: 2
Fore
SplineSet
418 1628 m 0,0,1
 391 1628 391 1628 368.5 1618.5 c 128,-1,2
 346 1609 346 1609 330 1592 c 128,-1,3
 314 1575 314 1575 305 1551.5 c 128,-1,4
 296 1528 296 1528 296 1500 c 0,5,6
 296 1443 296 1443 331.5 1409.5 c 128,-1,7
 367 1376 367 1376 422 1376 c 0,8,9
 479 1376 479 1376 509.5 1410 c 128,-1,10
 540 1444 540 1444 540 1500 c 0,11,12
 540 1557 540 1557 506.5 1592.5 c 128,-1,13
 473 1628 473 1628 418 1628 c 0,0,1
70 1500 m 0,14,15
 70 1581 70 1581 96.5 1646 c 128,-1,16
 123 1711 123 1711 170 1757.5 c 128,-1,17
 217 1804 217 1804 281.5 1829 c 128,-1,18
 346 1854 346 1854 422 1854 c 0,19,20
 505 1854 505 1854 570 1826 c 128,-1,21
 635 1798 635 1798 680 1750 c 128,-1,22
 725 1702 725 1702 748.5 1637.5 c 128,-1,23
 772 1573 772 1573 772 1500 c 0,24,25
 772 1420 772 1420 746 1355.5 c 128,-1,26
 720 1291 720 1291 673.5 1245.5 c 128,-1,27
 627 1200 627 1200 562.5 1175 c 128,-1,28
 498 1150 498 1150 422 1150 c 0,29,30
 344 1150 344 1150 279 1175.5 c 128,-1,31
 214 1201 214 1201 167.5 1247.5 c 128,-1,32
 121 1294 121 1294 95.5 1358.5 c 128,-1,33
 70 1423 70 1423 70 1500 c 0,14,15
EndSplineSet
EndChar

StartChar: ogonek
Encoding: 731 731 358
Width: 642
GlyphClass: 2
Flags: W
LayerCount: 2
Fore
SplineSet
410 -402 m 0,0,1
 442 -402 442 -402 506 -388 c 1,2,-1
 508 -464 l 1,3,4
 403 -508 403 -508 310 -508 c 0,5,6
 263 -508 263 -508 222 -497 c 128,-1,7
 181 -486 181 -486 151 -464 c 128,-1,8
 121 -442 121 -442 103.5 -409 c 128,-1,9
 86 -376 86 -376 86 -332 c 0,10,11
 86 -296 86 -296 101.5 -263 c 128,-1,12
 117 -230 117 -230 141 -200 c 128,-1,13
 165 -170 165 -170 194 -143 c 128,-1,14
 223 -116 223 -116 250 -93 c 2,15,-1
 307 -45 l 2,16,17
 327 -28 327 -28 341 -18 c 128,-1,18
 355 -8 355 -8 362 0 c 1,19,-1
 474 0 l 1,20,21
 442 -67 442 -67 410 -123 c 128,-1,22
 378 -179 378 -179 346 -225 c 1,23,-1
 326 -256 l 2,24,25
 320 -265 320 -265 314.5 -286 c 128,-1,26
 309 -307 309 -307 308 -328 c 1,27,28
 308 -402 308 -402 410 -402 c 0,0,1
EndSplineSet
EndChar

StartChar: tilde
Encoding: 732 732 359
Width: 1112
GlyphClass: 2
Flags: W
LayerCount: 2
Fore
SplineSet
412 1266 m 0,0,1
 389 1266 389 1266 372 1256.5 c 128,-1,2
 355 1247 355 1247 342.5 1231.5 c 128,-1,3
 330 1216 330 1216 320.5 1196.5 c 128,-1,4
 311 1177 311 1177 304 1158 c 1,5,-1
 62 1256 l 1,6,7
 93 1341 93 1341 132.5 1407 c 128,-1,8
 172 1473 172 1473 217 1518.5 c 128,-1,9
 262 1564 262 1564 311.5 1588 c 128,-1,10
 361 1612 361 1612 414 1612 c 0,11,12
 429 1612 429 1612 445.5 1609 c 128,-1,13
 462 1606 462 1606 477 1602 c 128,-1,14
 492 1598 492 1598 504.5 1592.5 c 128,-1,15
 517 1587 517 1587 525 1583 c 2,16,-1
 572 1555 l 2,17,18
 574 1553 574 1553 579 1550 c 128,-1,19
 584 1547 584 1547 591 1542 c 2,20,-1
 634 1517 l 1,21,22
 652 1508 652 1508 670.5 1503 c 128,-1,23
 689 1498 689 1498 712 1498 c 0,24,25
 782 1498 782 1498 814 1590 c 1,26,-1
 1054 1492 l 1,27,28
 992 1315 992 1315 908.5 1233.5 c 128,-1,29
 825 1152 825 1152 720 1152 c 0,30,31
 662 1152 662 1152 621 1170 c 128,-1,32
 580 1188 580 1188 546.5 1209 c 128,-1,33
 513 1230 513 1230 481.5 1248 c 128,-1,34
 450 1266 450 1266 412 1266 c 0,0,1
EndSplineSet
EndChar

StartChar: hungarumlaut
Encoding: 733 733 360
Width: 1302
GlyphClass: 2
Flags: W
LayerCount: 2
Fore
SplineSet
258 2006 m 1,0,-1
 658 1888 l 1,1,-1
 358 1218 l 1,2,-1
 114 1288 l 1,3,-1
 258 2006 l 1,0,-1
860 2010 m 1,4,-1
 1234 1822 l 1,5,-1
 818 1216 l 1,6,-1
 592 1328 l 1,7,-1
 860 2010 l 1,4,-1
EndSplineSet
EndChar

StartChar: uni030F
Encoding: 783 783 361
Width: 1302
GlyphClass: 2
Flags: W
LayerCount: 2
Fore
SplineSet
642 1888 m 1,0,-1
 1044 2006 l 1,1,-1
 1188 1288 l 1,2,-1
 944 1218 l 1,3,-1
 642 1888 l 1,0,-1
68 1822 m 1,4,-1
 442 2010 l 1,5,-1
 710 1328 l 1,6,-1
 482 1216 l 1,7,-1
 68 1822 l 1,4,-1
EndSplineSet
EndChar

StartChar: uni0311
Encoding: 785 785 362
Width: 842
GlyphClass: 2
Flags: W
LayerCount: 2
Fore
SplineSet
548 1182 m 1,0,1
 548 1209 548 1209 538.5 1232.5 c 128,-1,2
 529 1256 529 1256 512 1272.5 c 128,-1,3
 495 1289 495 1289 472 1298.5 c 128,-1,4
 449 1308 449 1308 422 1308 c 256,5,6
 395 1308 395 1308 372 1298.5 c 128,-1,7
 349 1289 349 1289 332 1272.5 c 128,-1,8
 315 1256 315 1256 305.5 1232.5 c 128,-1,9
 296 1209 296 1209 296 1182 c 1,10,-1
 50 1182 l 1,11,12
 50 1269 50 1269 77.5 1339 c 128,-1,13
 105 1409 105 1409 154.5 1458.5 c 128,-1,14
 204 1508 204 1508 272 1535 c 128,-1,15
 340 1562 340 1562 422 1562 c 0,16,17
 506 1562 506 1562 574.5 1534 c 128,-1,18
 643 1506 643 1506 691.5 1455.5 c 128,-1,19
 740 1405 740 1405 767 1335.5 c 128,-1,20
 794 1266 794 1266 794 1182 c 1,21,-1
 548 1182 l 1,0,1
EndSplineSet
EndChar

StartChar: Delta
Encoding: 916 916 364
Width: 1210
GlyphClass: 2
Flags: W
LayerCount: 2
Fore
SplineSet
421 1376 m 1,0,-1
 785 1376 l 1,1,-1
 1161 0 l 1,2,-1
 51 0 l 1,3,-1
 421 1376 l 1,0,-1
799 230 m 1,4,-1
 605 1060 l 1,5,-1
 417 230 l 1,6,-1
 799 230 l 1,4,-1
EndSplineSet
EndChar

StartChar: mu
Encoding: 956 956 366
Width: 1272
GlyphClass: 2
Flags: W
LayerCount: 2
Fore
SplineSet
755 -32 m 0,0,1
 643 -32 643 -32 526 24 c 1,2,-1
 526 -270 l 1,3,-1
 116 -300 l 1,4,-1
 116 1026 l 1,5,-1
 538 1026 l 1,6,-1
 538 344 l 1,7,8
 599 304 599 304 666 304 c 0,9,10
 692 304 692 304 714.5 313.5 c 128,-1,11
 737 323 737 323 754 339.5 c 128,-1,12
 771 356 771 356 780.5 378 c 128,-1,13
 790 400 790 400 790 426 c 2,14,-1
 790 1026 l 1,15,-1
 1202 1026 l 1,16,-1
 1202 440 l 2,17,18
 1202 338 1202 338 1167.5 251.5 c 128,-1,19
 1133 165 1133 165 1073 102 c 128,-1,20
 1013 39 1013 39 931.5 3.5 c 128,-1,21
 850 -32 850 -32 755 -32 c 0,0,1
EndSplineSet
EndChar

StartChar: pi
Encoding: 960 960 367
Width: 1432
GlyphClass: 2
Flags: W
LayerCount: 2
Fore
SplineSet
240 1026 m 1,0,-1
 1318 1026 l 1,1,-1
 1318 3 l 1,2,-1
 886 3 l 1,3,-1
 886 852 l 1,4,-1
 674 852 l 1,5,-1
 674 378 l 2,6,7
 674 282 674 282 649 206 c 128,-1,8
 624 130 624 130 577 77 c 128,-1,9
 530 24 530 24 462.5 -4 c 128,-1,10
 395 -32 395 -32 310 -32 c 0,11,12
 163 -32 163 -32 42 38 c 1,13,-1
 64 324 l 1,14,15
 107 300 107 300 148 300 c 0,16,17
 188 300 188 300 214 324.5 c 128,-1,18
 240 349 240 349 240 398 c 2,19,-1
 240 408 l 1,20,-1
 240 1026 l 1,0,-1
EndSplineSet
EndChar

StartChar: endash
Encoding: 8211 8211 368
Width: 972
GlyphClass: 2
Flags: W
LayerCount: 2
Fore
SplineSet
97 476 m 1,0,-1
 876 476 l 1,1,-1
 876 302 l 1,2,-1
 97 302 l 1,3,-1
 97 476 l 1,0,-1
EndSplineSet
EndChar

StartChar: emdash
Encoding: 8212 8212 369
Width: 1244
GlyphClass: 2
Flags: W
LayerCount: 2
Fore
SplineSet
97 476 m 1,0,-1
 1147 476 l 1,1,-1
 1147 302 l 1,2,-1
 97 302 l 1,3,-1
 97 476 l 1,0,-1
EndSplineSet
EndChar

StartChar: quoteleft
Encoding: 8216 8216 370
Width: 600
GlyphClass: 2
Flags: W
LayerCount: 2
Fore
SplineSet
504 1200 m 1,0,1
 441 1200 441 1200 403.5 1200 c 128,-1,2
 366 1200 366 1200 346 1191 c 128,-1,3
 326 1182 326 1182 320 1160 c 128,-1,4
 314 1138 314 1138 314 1094 c 1,5,-1
 504 1094 l 1,6,-1
 504 710 l 1,7,-1
 84 710 l 1,8,9
 85 729 85 729 85 760.5 c 128,-1,10
 85 792 85 792 86 837 c 2,11,-1
 89 969 l 2,12,13
 92 1067 92 1067 98.5 1140 c 128,-1,14
 105 1213 105 1213 120 1265.5 c 128,-1,15
 135 1318 135 1318 162.5 1352 c 128,-1,16
 190 1386 190 1386 235 1405.5 c 128,-1,17
 280 1425 280 1425 345.5 1432.5 c 128,-1,18
 411 1440 411 1440 504 1440 c 1,19,-1
 504 1200 l 1,0,1
EndSplineSet
EndChar

StartChar: quoteright
Encoding: 8217 8217 371
Width: 590
GlyphClass: 2
Flags: W
LayerCount: 2
Fore
SplineSet
100 918 m 1,0,1
 168 918 168 918 206.5 919 c 128,-1,2
 245 920 245 920 264 930 c 128,-1,3
 283 940 283 940 287.5 961.5 c 128,-1,4
 292 983 292 983 292 1024 c 1,5,-1
 100 1024 l 1,6,-1
 100 1408 l 1,7,-1
 520 1408 l 1,8,-1
 517 1281 l 2,9,10
 515 1154 515 1154 511 1059.5 c 128,-1,11
 507 965 507 965 494.5 898 c 128,-1,12
 482 831 482 831 457 788.5 c 128,-1,13
 432 746 432 746 386.5 721.5 c 128,-1,14
 341 697 341 697 271 687.5 c 128,-1,15
 201 678 201 678 100 678 c 1,16,-1
 100 918 l 1,0,1
EndSplineSet
EndChar

StartChar: quotesinglbase
Encoding: 8218 8218 372
Width: 458
GlyphClass: 2
Flags: W
LayerCount: 2
Fore
SplineSet
82 253 m 1,0,-1
 378 253 l 1,1,-1
 320 -255 l 1,2,-1
 124 -255 l 1,3,-1
 82 253 l 1,0,-1
EndSplineSet
EndChar

StartChar: quotedblleft
Encoding: 8220 8220 373
Width: 1162
GlyphClass: 2
Flags: W
LayerCount: 2
Fore
SplineSet
504 1200 m 1,0,1
 441 1200 441 1200 403.5 1200 c 128,-1,2
 366 1200 366 1200 346 1191 c 128,-1,3
 326 1182 326 1182 320 1160 c 128,-1,4
 314 1138 314 1138 314 1094 c 1,5,-1
 504 1094 l 1,6,-1
 504 710 l 1,7,-1
 84 710 l 1,8,9
 85 729 85 729 85 760.5 c 128,-1,10
 85 792 85 792 86 837 c 2,11,-1
 89 969 l 2,12,13
 92 1067 92 1067 98.5 1140 c 128,-1,14
 105 1213 105 1213 120 1265.5 c 128,-1,15
 135 1318 135 1318 162.5 1352 c 128,-1,16
 190 1386 190 1386 235 1405.5 c 128,-1,17
 280 1425 280 1425 345.5 1432.5 c 128,-1,18
 411 1440 411 1440 504 1440 c 1,19,-1
 504 1200 l 1,0,1
1066 1200 m 1,20,21
 1004 1200 1004 1200 966.5 1200 c 128,-1,22
 929 1200 929 1200 908.5 1191 c 128,-1,23
 888 1182 888 1182 881 1160 c 128,-1,24
 874 1138 874 1138 874 1094 c 1,25,-1
 1066 1094 l 1,26,-1
 1066 710 l 1,27,-1
 646 710 l 1,28,29
 647 729 647 729 647 760.5 c 128,-1,30
 647 792 647 792 648 837 c 2,31,-1
 651 969 l 2,32,33
 654 1073 654 1073 662 1148 c 128,-1,34
 670 1223 670 1223 686.5 1275.5 c 128,-1,35
 703 1328 703 1328 731.5 1360 c 128,-1,36
 760 1392 760 1392 805 1410 c 128,-1,37
 850 1428 850 1428 914 1434 c 128,-1,38
 978 1440 978 1440 1066 1440 c 1,39,-1
 1066 1200 l 1,20,21
EndSplineSet
EndChar

StartChar: quotedblright
Encoding: 8221 8221 374
Width: 1152
GlyphClass: 2
Flags: W
LayerCount: 2
Fore
SplineSet
100 918 m 1,0,1
 168 918 168 918 206.5 919 c 128,-1,2
 245 920 245 920 264 930 c 128,-1,3
 283 940 283 940 287.5 961.5 c 128,-1,4
 292 983 292 983 292 1024 c 1,5,-1
 100 1024 l 1,6,-1
 100 1408 l 1,7,-1
 520 1408 l 1,8,-1
 517 1281 l 2,9,10
 515 1154 515 1154 511 1059.5 c 128,-1,11
 507 965 507 965 494.5 898 c 128,-1,12
 482 831 482 831 457 788.5 c 128,-1,13
 432 746 432 746 386.5 721.5 c 128,-1,14
 341 697 341 697 271 687.5 c 128,-1,15
 201 678 201 678 100 678 c 1,16,-1
 100 918 l 1,0,1
662 918 m 1,17,18
 731 918 731 918 769 919 c 128,-1,19
 807 920 807 920 825.5 930 c 128,-1,20
 844 940 844 940 848 961.5 c 128,-1,21
 852 983 852 983 852 1024 c 1,22,-1
 662 1024 l 1,23,-1
 662 1408 l 1,24,-1
 1082 1408 l 1,25,-1
 1079 1281 l 1,26,27
 1077 1153 1077 1153 1073 1059 c 128,-1,28
 1069 965 1069 965 1056.5 898 c 128,-1,29
 1044 831 1044 831 1019 788.5 c 128,-1,30
 994 746 994 746 948.5 721 c 128,-1,31
 903 696 903 696 833 687 c 128,-1,32
 763 678 763 678 662 678 c 1,33,-1
 662 918 l 1,17,18
EndSplineSet
EndChar

StartChar: quotedblbase
Encoding: 8222 8222 375
Width: 838
GlyphClass: 2
Flags: W
LayerCount: 2
Fore
SplineSet
466 300 m 1,0,-1
 762 300 l 1,1,-1
 704 -208 l 1,2,-1
 508 -208 l 1,3,-1
 466 300 l 1,0,-1
80 300 m 1,4,-1
 374 300 l 1,5,-1
 316 -208 l 1,6,-1
 120 -208 l 1,7,-1
 80 300 l 1,4,-1
EndSplineSet
EndChar

StartChar: dagger
Encoding: 8224 8224 376
Width: 720
GlyphClass: 2
Flags: W
LayerCount: 2
Fore
SplineSet
48 1027 m 1,0,-1
 294 1027 l 1,1,-1
 294 1376 l 1,2,-1
 426 1376 l 1,3,-1
 426 1027 l 1,4,-1
 672 1027 l 1,5,-1
 672 901 l 1,6,-1
 426 901 l 1,7,-1
 426 0 l 1,8,-1
 294 0 l 1,9,-1
 294 901 l 1,10,-1
 48 901 l 1,11,-1
 48 1027 l 1,0,-1
EndSplineSet
EndChar

StartChar: daggerdbl
Encoding: 8225 8225 377
Width: 752
GlyphClass: 2
Flags: W
LayerCount: 2
Fore
SplineSet
64 530 m 1,0,-1
 310 530 l 1,1,-1
 310 901 l 1,2,-1
 64 901 l 1,3,-1
 64 1027 l 1,4,-1
 310 1027 l 1,5,-1
 310 1376 l 1,6,-1
 442 1376 l 1,7,-1
 442 1027 l 1,8,-1
 688 1027 l 1,9,-1
 688 901 l 1,10,-1
 442 901 l 1,11,-1
 442 530 l 1,12,-1
 688 530 l 1,13,-1
 688 406 l 1,14,-1
 442 406 l 1,15,-1
 442 0 l 1,16,-1
 310 0 l 1,17,-1
 310 406 l 1,18,-1
 64 406 l 1,19,-1
 64 530 l 1,0,-1
EndSplineSet
EndChar

StartChar: bullet
Encoding: 8226 8226 378
Width: 1036
GlyphClass: 2
Flags: W
LayerCount: 2
Fore
SplineSet
67 530 m 0,0,1
 67 618 67 618 100 694 c 128,-1,2
 133 770 133 770 192.5 826 c 128,-1,3
 252 882 252 882 335 914 c 128,-1,4
 418 946 418 946 519 946 c 0,5,6
 617 946 617 946 699.5 915.5 c 128,-1,7
 782 885 782 885 842 830 c 128,-1,8
 902 775 902 775 935.5 698.5 c 128,-1,9
 969 622 969 622 969 530 c 0,10,11
 969 431 969 431 932.5 353.5 c 128,-1,12
 896 276 896 276 834 223 c 128,-1,13
 772 170 772 170 690 142 c 128,-1,14
 608 114 608 114 517 114 c 0,15,16
 420 114 420 114 337.5 144.5 c 128,-1,17
 255 175 255 175 195 230 c 128,-1,18
 135 285 135 285 101 361.5 c 128,-1,19
 67 438 67 438 67 530 c 0,0,1
EndSplineSet
EndChar

StartChar: ellipsis
Encoding: 8230 8230 379
Width: 1838
GlyphClass: 2
Flags: W
LayerCount: 2
Fore
SplineSet
58 176 m 0,0,1
 58 221 58 221 77.5 259 c 128,-1,2
 97 297 97 297 129 324 c 128,-1,3
 161 351 161 351 202.5 366.5 c 128,-1,4
 244 382 244 382 288 382 c 0,5,6
 334 382 334 382 376 365.5 c 128,-1,7
 418 349 418 349 449.5 320.5 c 128,-1,8
 481 292 481 292 499.5 255 c 128,-1,9
 518 218 518 218 518 176 c 0,10,11
 518 130 518 130 498.5 91.5 c 128,-1,12
 479 53 479 53 447 25.5 c 128,-1,13
 415 -2 415 -2 373.5 -17 c 128,-1,14
 332 -32 332 -32 288 -32 c 0,15,16
 240 -32 240 -32 198 -16 c 128,-1,17
 156 0 156 0 125 28 c 128,-1,18
 94 56 94 56 76 94 c 128,-1,19
 58 132 58 132 58 176 c 0,0,1
688 176 m 0,20,21
 688 221 688 221 707.5 259 c 128,-1,22
 727 297 727 297 759.5 324.5 c 128,-1,23
 792 352 792 352 833.5 367 c 128,-1,24
 875 382 875 382 920 382 c 0,25,26
 966 382 966 382 1008 365.5 c 128,-1,27
 1050 349 1050 349 1081.5 320.5 c 128,-1,28
 1113 292 1113 292 1131.5 255 c 128,-1,29
 1150 218 1150 218 1150 176 c 0,30,31
 1150 130 1150 130 1130.5 91.5 c 128,-1,32
 1111 53 1111 53 1079 25.5 c 128,-1,33
 1047 -2 1047 -2 1005.5 -17 c 128,-1,34
 964 -32 964 -32 920 -32 c 0,35,36
 871 -32 871 -32 829 -16 c 128,-1,37
 787 0 787 0 755.5 28 c 128,-1,38
 724 56 724 56 706 94 c 128,-1,39
 688 132 688 132 688 176 c 0,20,21
1320 176 m 0,40,41
 1320 221 1320 221 1339 259 c 128,-1,42
 1358 297 1358 297 1390 324.5 c 128,-1,43
 1422 352 1422 352 1463.5 367 c 128,-1,44
 1505 382 1505 382 1550 382 c 0,45,46
 1597 382 1597 382 1638.5 365.5 c 128,-1,47
 1680 349 1680 349 1711.5 321 c 128,-1,48
 1743 293 1743 293 1761.5 255.5 c 128,-1,49
 1780 218 1780 218 1780 176 c 0,50,51
 1780 130 1780 130 1761 91.5 c 128,-1,52
 1742 53 1742 53 1710 25.5 c 128,-1,53
 1678 -2 1678 -2 1636.5 -17 c 128,-1,54
 1595 -32 1595 -32 1550 -32 c 0,55,56
 1502 -32 1502 -32 1460 -16 c 128,-1,57
 1418 0 1418 0 1387 28 c 128,-1,58
 1356 56 1356 56 1338 94 c 128,-1,59
 1320 132 1320 132 1320 176 c 0,40,41
EndSplineSet
EndChar

StartChar: perthousand
Encoding: 8240 8240 380
Width: 2660
GlyphClass: 2
Flags: W
LayerCount: 2
Fore
SplineSet
998 1376 m 1,0,-1
 1140 1376 l 1,1,-1
 800 0 l 1,2,-1
 662 0 l 1,3,-1
 998 1376 l 1,0,-1
1396 -32 m 0,4,5
 1307 -32 1307 -32 1238 0.5 c 128,-1,6
 1169 33 1169 33 1122 88.5 c 128,-1,7
 1075 144 1075 144 1050.5 216 c 128,-1,8
 1026 288 1026 288 1026 368 c 0,9,10
 1026 455 1026 455 1053.5 528.5 c 128,-1,11
 1081 602 1081 602 1130 656 c 128,-1,12
 1179 710 1179 710 1247 740 c 128,-1,13
 1315 770 1315 770 1396 770 c 0,14,15
 1484 770 1484 770 1553 737 c 128,-1,16
 1622 704 1622 704 1670 648.5 c 128,-1,17
 1718 593 1718 593 1743 520 c 128,-1,18
 1768 447 1768 447 1768 368 c 0,19,20
 1768 280 1768 280 1741 206.5 c 128,-1,21
 1714 133 1714 133 1665 80 c 128,-1,22
 1616 27 1616 27 1547.5 -2.5 c 128,-1,23
 1479 -32 1479 -32 1396 -32 c 0,4,5
1396 172 m 0,24,25
 1427 172 1427 172 1449.5 189 c 128,-1,26
 1472 206 1472 206 1486 233.5 c 128,-1,27
 1500 261 1500 261 1507 296.5 c 128,-1,28
 1514 332 1514 332 1514 368 c 0,29,30
 1514 406 1514 406 1506.5 441 c 128,-1,31
 1499 476 1499 476 1484 503 c 128,-1,32
 1469 530 1469 530 1447 546 c 128,-1,33
 1425 562 1425 562 1396 562 c 0,34,35
 1364 562 1364 562 1341.5 544.5 c 128,-1,36
 1319 527 1319 527 1305.5 499 c 128,-1,37
 1292 471 1292 471 1286 436.5 c 128,-1,38
 1280 402 1280 402 1280 368 c 0,39,40
 1280 330 1280 330 1287.5 294.5 c 128,-1,41
 1295 259 1295 259 1310 232 c 128,-1,42
 1325 205 1325 205 1346.5 188.5 c 128,-1,43
 1368 172 1368 172 1396 172 c 0,24,25
420 614 m 0,44,45
 330 614 330 614 261 646.5 c 128,-1,46
 192 679 192 679 145 734.5 c 128,-1,47
 98 790 98 790 74 862 c 128,-1,48
 50 934 50 934 50 1014 c 0,49,50
 50 1107 50 1107 79.5 1181 c 128,-1,51
 109 1255 109 1255 160 1307 c 128,-1,52
 211 1359 211 1359 279 1386.5 c 128,-1,53
 347 1414 347 1414 425 1414 c 0,54,55
 517 1414 517 1414 586 1379.5 c 128,-1,56
 655 1345 655 1345 701.5 1288.5 c 128,-1,57
 748 1232 748 1232 771 1160.5 c 128,-1,58
 794 1089 794 1089 794 1014 c 0,59,60
 794 925 794 925 767 851.5 c 128,-1,61
 740 778 740 778 690.5 725.5 c 128,-1,62
 641 673 641 673 572.5 643.5 c 128,-1,63
 504 614 504 614 420 614 c 0,44,45
420 816 m 0,64,65
 453 816 453 816 476 834.5 c 128,-1,66
 499 853 499 853 513.5 881.5 c 128,-1,67
 528 910 528 910 534 945 c 128,-1,68
 540 980 540 980 540 1014 c 0,69,70
 540 1051 540 1051 532.5 1086 c 128,-1,71
 525 1121 525 1121 510 1148 c 128,-1,72
 495 1175 495 1175 472.5 1191.5 c 128,-1,73
 450 1208 450 1208 420 1208 c 256,74,75
 390 1208 390 1208 368 1191.5 c 128,-1,76
 346 1175 346 1175 331.5 1148 c 128,-1,77
 317 1121 317 1121 310.5 1086 c 128,-1,78
 304 1051 304 1051 304 1014 c 0,79,80
 304 975 304 975 311.5 939 c 128,-1,81
 319 903 319 903 334 876 c 128,-1,82
 349 849 349 849 370.5 832.5 c 128,-1,83
 392 816 392 816 420 816 c 0,64,65
2238 -32 m 0,84,85
 2149 -32 2149 -32 2080 0.5 c 128,-1,86
 2011 33 2011 33 1963.5 88.5 c 128,-1,87
 1916 144 1916 144 1891 216 c 128,-1,88
 1866 288 1866 288 1866 368 c 0,89,90
 1866 455 1866 455 1893.5 529 c 128,-1,91
 1921 603 1921 603 1970.5 656.5 c 128,-1,92
 2020 710 2020 710 2088.5 740 c 128,-1,93
 2157 770 2157 770 2238 770 c 0,94,95
 2325 770 2325 770 2394 737 c 128,-1,96
 2463 704 2463 704 2511 648.5 c 128,-1,97
 2559 593 2559 593 2584.5 520 c 128,-1,98
 2610 447 2610 447 2610 368 c 0,99,100
 2610 280 2610 280 2583 206.5 c 128,-1,101
 2556 133 2556 133 2507 80 c 128,-1,102
 2458 27 2458 27 2389.5 -2.5 c 128,-1,103
 2321 -32 2321 -32 2238 -32 c 0,84,85
2238 172 m 0,104,105
 2269 172 2269 172 2291.5 189 c 128,-1,106
 2314 206 2314 206 2328 233.5 c 128,-1,107
 2342 261 2342 261 2349 296.5 c 128,-1,108
 2356 332 2356 332 2356 368 c 0,109,110
 2356 406 2356 406 2348.5 441 c 128,-1,111
 2341 476 2341 476 2326 503 c 128,-1,112
 2311 530 2311 530 2289 546 c 128,-1,113
 2267 562 2267 562 2238 562 c 0,114,115
 2207 562 2207 562 2185 545.5 c 128,-1,116
 2163 529 2163 529 2148.5 502 c 128,-1,117
 2134 475 2134 475 2127 440 c 128,-1,118
 2120 405 2120 405 2120 368 c 0,119,120
 2120 329 2120 329 2127.5 293.5 c 128,-1,121
 2135 258 2135 258 2150 231 c 128,-1,122
 2165 204 2165 204 2187 188 c 128,-1,123
 2209 172 2209 172 2238 172 c 0,104,105
EndSplineSet
EndChar

StartChar: guilsinglleft
Encoding: 8249 8249 381
Width: 577
GlyphClass: 2
Flags: W
LayerCount: 2
Fore
SplineSet
53 810 m 1,0,-1
 483 1116 l 1,1,-1
 483 744 l 1,2,-1
 285 626 l 1,3,-1
 483 502 l 1,4,-1
 483 128 l 1,5,-1
 53 442 l 1,6,-1
 53 810 l 1,0,-1
EndSplineSet
EndChar

StartChar: guilsinglright
Encoding: 8250 8250 382
Width: 577
GlyphClass: 2
Flags: W
LayerCount: 2
Fore
SplineSet
94 502 m 1,0,-1
 290 626 l 1,1,-1
 94 744 l 1,2,-1
 94 1116 l 1,3,-1
 524 810 l 1,4,-1
 524 442 l 1,5,-1
 94 128 l 1,6,-1
 94 502 l 1,0,-1
EndSplineSet
EndChar

StartChar: fraction
Encoding: 8260 8260 383
Width: 562
GlyphClass: 2
Flags: W
LayerCount: 2
Fore
SplineSet
349 1408 m 1,0,-1
 553 1408 l 1,1,-1
 213 0 l 1,2,-1
 13 0 l 1,3,-1
 349 1408 l 1,0,-1
EndSplineSet
EndChar

StartChar: foursuperior
Encoding: 8308 8308 384
Width: 746
GlyphClass: 2
Flags: W
LayerCount: 2
Fore
SplineSet
40 978 m 1,0,-1
 342 1376 l 1,1,-1
 598 1376 l 1,2,-1
 598 978 l 1,3,-1
 692 978 l 1,4,-1
 692 822 l 1,5,-1
 598 822 l 1,6,-1
 598 650 l 1,7,-1
 352 650 l 1,8,-1
 352 822 l 1,9,-1
 40 822 l 1,10,-1
 40 978 l 1,0,-1
352 978 m 1,11,-1
 352 1180 l 1,12,-1
 208 978 l 1,13,-1
 352 978 l 1,11,-1
EndSplineSet
EndChar

StartChar: Euro
Encoding: 8364 8364 385
Width: 1360
GlyphClass: 2
Flags: W
LayerCount: 2
Fore
SplineSet
978 338 m 0,0,1
 1014 338 1014 338 1043.5 341.5 c 128,-1,2
 1073 345 1073 345 1102.5 352.5 c 128,-1,3
 1132 360 1132 360 1163 370.5 c 128,-1,4
 1194 381 1194 381 1232 396 c 1,5,-1
 1284 74 l 1,6,7
 1100 -32 1100 -32 900 -32 c 0,8,9
 768 -32 768 -32 653 7 c 128,-1,10
 538 46 538 46 445.5 115.5 c 128,-1,11
 353 185 353 185 288 281.5 c 128,-1,12
 223 378 223 378 192 492 c 1,13,-1
 54 492 l 1,14,-1
 54 614 l 1,15,-1
 170 614 l 1,16,17
 168 634 168 634 167 654 c 128,-1,18
 166 674 166 674 166 694 c 0,19,20
 166 730 166 730 169 766 c 1,21,-1
 54 766 l 1,22,-1
 54 892 l 1,23,-1
 191 892 l 1,24,25
 221 1007 221 1007 286.5 1103 c 128,-1,26
 352 1199 352 1199 444 1268 c 128,-1,27
 536 1337 536 1337 649 1375.5 c 128,-1,28
 762 1414 762 1414 888 1414 c 0,29,30
 1097 1414 1097 1414 1286 1306 c 1,31,-1
 1232 988 l 1,32,33
 1082 1044 1082 1044 966 1044 c 0,34,35
 753 1044 753 1044 669 892 c 1,36,-1
 966 892 l 1,37,-1
 966 766 l 1,38,-1
 630 766 l 1,39,40
 628 749 628 749 627 731.5 c 128,-1,41
 626 714 626 714 626 696 c 0,42,43
 626 651 626 651 632 614 c 1,44,-1
 966 614 l 1,45,-1
 966 492 l 1,46,-1
 675 492 l 1,47,48
 763 338 763 338 978 338 c 0,0,1
EndSplineSet
EndChar

StartChar: trademark
Encoding: 8482 8482 386
Width: 1988
GlyphClass: 2
Flags: W
LayerCount: 2
Fore
SplineSet
275 1162 m 1,0,-1
 97 1162 l 1,1,-1
 97 1376 l 1,2,-1
 771 1376 l 1,3,-1
 771 1162 l 1,4,-1
 593 1162 l 1,5,-1
 593 614 l 1,6,-1
 275 614 l 1,7,-1
 275 1162 l 1,0,-1
889 1376 m 1,8,-1
 1205 1376 l 1,9,-1
 1381 1070 l 1,10,-1
 1555 1376 l 1,11,-1
 1869 1376 l 1,12,-1
 1869 614 l 1,13,-1
 1555 614 l 1,14,-1
 1555 1018 l 1,15,-1
 1441 798 l 1,16,-1
 1317 798 l 1,17,-1
 1205 1018 l 1,18,-1
 1205 614 l 1,19,-1
 889 614 l 1,20,-1
 889 1376 l 1,8,-1
EndSplineSet
EndChar

StartChar: minus
Encoding: 8722 8722 388
Width: 1030
GlyphClass: 2
Flags: W
LayerCount: 2
Fore
SplineSet
102 114 m 1,0,-1
 928 114 l 1,1,-1
 928 0 l 1,2,-1
 102 0 l 1,3,-1
 102 114 l 1,0,-1
EndSplineSet
EndChar

StartChar: notequal
Encoding: 8800 8800 393
Width: 760
GlyphClass: 2
Flags: W
LayerCount: 2
Fore
SplineSet
68 442 m 1,0,-1
 290 442 l 1,1,-1
 330 594 l 1,2,-1
 68 594 l 1,3,-1
 68 720 l 1,4,-1
 363 720 l 1,5,-1
 444 1026 l 1,6,-1
 586 1026 l 1,7,-1
 504 720 l 1,8,-1
 692 720 l 1,9,-1
 692 594 l 1,10,-1
 470 594 l 1,11,-1
 430 442 l 1,12,-1
 692 442 l 1,13,-1
 692 318 l 1,14,-1
 397 318 l 1,15,-1
 312 0 l 1,16,-1
 174 0 l 1,17,-1
 257 318 l 1,18,-1
 68 318 l 1,19,-1
 68 442 l 1,0,-1
EndSplineSet
EndChar

StartChar: lessequal
Encoding: 8804 8804 394
Width: 986
GlyphClass: 2
Flags: W
LayerCount: 2
Fore
SplineSet
92 1154 m 1,0,-1
 872 1582 l 1,1,-1
 872 1274 l 1,2,-1
 264 970 l 1,3,-1
 872 682 l 1,4,-1
 872 350 l 1,5,-1
 92 806 l 1,6,-1
 92 1154 l 1,0,-1
68 114 m 1,7,-1
 894 114 l 1,8,-1
 894 0 l 1,9,-1
 68 0 l 1,10,-1
 68 114 l 1,7,-1
EndSplineSet
EndChar

StartChar: greaterequal
Encoding: 8805 8805 395
Width: 986
GlyphClass: 2
Flags: W
LayerCount: 2
Fore
SplineSet
114 682 m 1,0,-1
 722 970 l 1,1,-1
 114 1274 l 1,2,-1
 114 1582 l 1,3,-1
 894 1154 l 1,4,-1
 894 806 l 1,5,-1
 114 350 l 1,6,-1
 114 682 l 1,0,-1
90 114 m 1,7,-1
 916 114 l 1,8,-1
 916 0 l 1,9,-1
 90 0 l 1,10,-1
 90 114 l 1,7,-1
EndSplineSet
EndChar

StartChar: lozenge
Encoding: 9674 9674 396
Width: 1043
GlyphClass: 2
Flags: W
LayerCount: 2
Fore
SplineSet
686 710 m 1,0,-1
 518 1236 l 1,1,-1
 334 710 l 1,2,-1
 518 172 l 1,3,-1
 686 710 l 1,0,-1
56 710 m 1,4,-1
 314 1408 l 1,5,-1
 712 1408 l 1,6,-1
 988 710 l 1,7,-1
 686 0 l 1,8,-1
 314 0 l 1,9,-1
 56 710 l 1,4,-1
EndSplineSet
EndChar

StartChar: fi
Encoding: 64257 64257 398
Width: 1733
GlyphClass: 2
Flags: W
LayerCount: 2
Fore
SplineSet
1716 38 m 1,0,1
 1595 -32 1595 -32 1448 -32 c 0,2,3
 1361 -32 1361 -32 1294 -3 c 128,-1,4
 1227 26 1227 26 1180.5 79.5 c 128,-1,5
 1134 133 1134 133 1110 209 c 128,-1,6
 1086 285 1086 285 1086 378 c 2,7,-1
 1086 772 l 1,8,-1
 612 772 l 1,9,-1
 612 0 l 1,10,-1
 180 0 l 1,11,-1
 180 772 l 1,12,-1
 52 772 l 1,13,-1
 52 1026 l 1,14,-1
 180 1026 l 1,15,-1
 180 1136 l 2,16,17
 180 1343 180 1343 272.5 1457.5 c 128,-1,18
 365 1572 365 1572 554 1572 c 0,19,20
 712 1572 712 1572 888 1494 c 1,21,-1
 874 1216 l 1,22,23
 784 1246 784 1246 728 1246 c 0,24,25
 612 1246 612 1246 612 1122 c 2,26,-1
 612 1026 l 1,27,-1
 1518 1026 l 1,28,-1
 1518 408 l 1,29,-1
 1518 398 l 2,30,31
 1518 349 1518 349 1544 324.5 c 128,-1,32
 1570 300 1570 300 1610 300 c 256,33,34
 1650 300 1650 300 1694 324 c 1,35,-1
 1716 38 l 1,0,1
1076 1366 m 0,36,37
 1076 1411 1076 1411 1095.5 1448.5 c 128,-1,38
 1115 1486 1115 1486 1147.5 1513.5 c 128,-1,39
 1180 1541 1180 1541 1222 1556.5 c 128,-1,40
 1264 1572 1264 1572 1308 1572 c 0,41,42
 1354 1572 1354 1572 1396 1555.5 c 128,-1,43
 1438 1539 1438 1539 1469.5 1510.5 c 128,-1,44
 1501 1482 1501 1482 1519.5 1445 c 128,-1,45
 1538 1408 1538 1408 1538 1366 c 0,46,47
 1538 1320 1538 1320 1518.5 1281.5 c 128,-1,48
 1499 1243 1499 1243 1467 1215.5 c 128,-1,49
 1435 1188 1435 1188 1393.5 1173 c 128,-1,50
 1352 1158 1352 1158 1308 1158 c 0,51,52
 1260 1158 1260 1158 1217.5 1174 c 128,-1,53
 1175 1190 1175 1190 1143.5 1218 c 128,-1,54
 1112 1246 1112 1246 1094 1284 c 128,-1,55
 1076 1322 1076 1322 1076 1366 c 0,36,37
EndSplineSet
EndChar

StartChar: fl
Encoding: 64258 64258 399
Width: 1709
GlyphClass: 2
Flags: W
LayerCount: 2
Fore
SplineSet
826 1246 m 0,0,1
 612 1246 612 1246 612 1122 c 2,2,-1
 612 1026 l 1,3,-1
 870 1026 l 1,4,-1
 870 772 l 1,5,-1
 612 772 l 1,6,-1
 612 0 l 1,7,-1
 180 0 l 1,8,-1
 180 772 l 1,9,-1
 52 772 l 1,10,-1
 52 1026 l 1,11,-1
 180 1026 l 1,12,-1
 180 1136 l 2,13,14
 180 1220 180 1220 206 1282 c 128,-1,15
 232 1344 232 1344 279 1388 c 128,-1,16
 326 1432 326 1432 392 1460.5 c 128,-1,17
 458 1489 458 1489 538 1505.5 c 128,-1,18
 618 1522 618 1522 710 1528 c 128,-1,19
 802 1534 802 1534 902 1534 c 0,20,21
 929 1534 929 1534 954.5 1533 c 128,-1,22
 980 1532 980 1532 1010 1528.5 c 128,-1,23
 1040 1525 1040 1525 1079 1518.5 c 128,-1,24
 1118 1512 1118 1512 1174 1501.5 c 128,-1,25
 1230 1491 1230 1491 1306.5 1474.5 c 128,-1,26
 1383 1458 1383 1458 1488 1436 c 1,27,-1
 1488 408 l 2,28,29
 1488 300 1488 300 1586 300 c 0,30,31
 1629 300 1629 300 1674 324 c 1,32,-1
 1698 38 l 1,33,34
 1565 -32 1565 -32 1418 -32 c 0,35,36
 1326 -32 1326 -32 1258 -0.5 c 128,-1,37
 1190 31 1190 31 1145 86.5 c 128,-1,38
 1100 142 1100 142 1078 216.5 c 128,-1,39
 1056 291 1056 291 1056 378 c 2,40,-1
 1056 1228 l 1,41,42
 921 1246 921 1246 826 1246 c 0,0,1
EndSplineSet
EndChar
